G04 PROTEUS RS274X GERBER FILE*
%FSLAX45Y45*%
%MOMM*%
G01*
%ADD18C,0.600000*%
%ADD30C,4.000000*%
%AMPPAD034*
4,1,23,
-0.500000,-0.150000,
0.350000,-0.150000,
0.365590,-0.149240,
0.380670,-0.147020,
0.409030,-0.138430,
0.434540,-0.124790,
0.456640,-0.106640,
0.474790,-0.084540,
0.488430,-0.059030,
0.497020,-0.030670,
0.499240,-0.015590,
0.500000,0.000000,
0.499240,0.015590,
0.497020,0.030670,
0.488430,0.059030,
0.474790,0.084540,
0.456640,0.106640,
0.434540,0.124790,
0.409030,0.138430,
0.380670,0.147020,
0.365590,0.149240,
0.350000,0.150000,
-0.500000,0.150000,
-0.500000,-0.150000,
0*%
%ADD40PPAD034*%
%AMPPAD035*
4,1,23,
-0.150000,0.500000,
-0.150000,-0.350000,
-0.149240,-0.365590,
-0.147020,-0.380670,
-0.138430,-0.409030,
-0.124790,-0.434540,
-0.106640,-0.456640,
-0.084540,-0.474790,
-0.059030,-0.488430,
-0.030670,-0.497020,
-0.015590,-0.499240,
0.000000,-0.500000,
0.015590,-0.499240,
0.030670,-0.497020,
0.059030,-0.488430,
0.084540,-0.474790,
0.106640,-0.456640,
0.124790,-0.434540,
0.138430,-0.409030,
0.147020,-0.380670,
0.149240,-0.365590,
0.150000,-0.350000,
0.150000,0.500000,
-0.150000,0.500000,
0*%
%ADD41PPAD035*%
%AMPPAD036*
4,1,23,
0.500000,0.150000,
-0.350000,0.150000,
-0.365590,0.149240,
-0.380670,0.147020,
-0.409030,0.138430,
-0.434540,0.124790,
-0.456640,0.106640,
-0.474790,0.084540,
-0.488430,0.059030,
-0.497020,0.030670,
-0.499240,0.015590,
-0.500000,0.000000,
-0.499240,-0.015590,
-0.497020,-0.030670,
-0.488430,-0.059030,
-0.474790,-0.084540,
-0.456640,-0.106640,
-0.434540,-0.124790,
-0.409030,-0.138430,
-0.380670,-0.147020,
-0.365590,-0.149240,
-0.350000,-0.150000,
0.500000,-0.150000,
0.500000,0.150000,
0*%
%ADD42PPAD036*%
%AMPPAD037*
4,1,23,
0.150000,-0.500000,
0.150000,0.350000,
0.149240,0.365590,
0.147020,0.380670,
0.138430,0.409030,
0.124790,0.434540,
0.106640,0.456640,
0.084540,0.474790,
0.059030,0.488430,
0.030670,0.497020,
0.015590,0.499240,
0.000000,0.500000,
-0.015590,0.499240,
-0.030670,0.497020,
-0.059030,0.488430,
-0.084540,0.474790,
-0.106640,0.456640,
-0.124790,0.434540,
-0.138430,0.409030,
-0.147020,0.380670,
-0.149240,0.365590,
-0.150000,0.350000,
-0.150000,-0.500000,
0.150000,-0.500000,
0*%
%ADD43PPAD037*%
%AMPPAD065*
4,1,4,
-1.675000,-1.675000,
1.675000,-1.675000,
1.675000,1.675000,
-1.675000,1.675000,
-1.675000,-1.675000,
0*%
%ADD75PPAD065*%
%AMPPAD066*
4,1,4,
0.304800,-0.304800,
0.304800,0.304800,
-0.304800,0.304800,
-0.304800,-0.304800,
0.304800,-0.304800,
0*%
%ADD76PPAD066*%
%AMPPAD067*
4,1,4,
-0.304800,0.279400,
-0.304800,-0.279400,
0.304800,-0.279400,
0.304800,0.279400,
-0.304800,0.279400,
0*%
%ADD77PPAD067*%
%AMPPAD068*
4,1,4,
-0.571500,-0.723900,
0.571500,-0.723900,
0.571500,0.723900,
-0.571500,0.723900,
-0.571500,-0.723900,
0*%
%ADD78PPAD068*%
%AMPPAD069*
4,1,4,
0.469900,1.079500,
-0.469900,1.079500,
-0.469900,-1.079500,
0.469900,-1.079500,
0.469900,1.079500,
0*%
%ADD79PPAD069*%
%AMPPAD070*
4,1,4,
-1.625600,1.079500,
-1.625600,-1.079500,
1.625600,-1.079500,
1.625600,1.079500,
-1.625600,1.079500,
0*%
%ADD80PPAD070*%
%AMPPAD071*
4,1,4,
0.469900,0.495300,
-0.469900,0.495300,
-0.469900,-0.495300,
0.469900,-0.495300,
0.469900,0.495300,
0*%
%ADD81PPAD071*%
%AMPPAD072*
4,1,4,
0.901700,-0.622300,
0.901700,0.622300,
-0.901700,0.622300,
-0.901700,-0.622300,
0.901700,-0.622300,
0*%
%ADD82PPAD072*%
%AMPPAD026*
4,1,36,
-0.279400,1.016000,
0.279400,1.016000,
0.326140,1.011450,
0.369360,0.998360,
0.408240,0.977570,
0.441920,0.949920,
0.469570,0.916240,
0.490360,0.877360,
0.503450,0.834140,
0.508000,0.787400,
0.508000,-0.787400,
0.503450,-0.834140,
0.490360,-0.877360,
0.469570,-0.916240,
0.441920,-0.949920,
0.408240,-0.977570,
0.369360,-0.998360,
0.326140,-1.011450,
0.279400,-1.016000,
-0.279400,-1.016000,
-0.326140,-1.011450,
-0.369360,-0.998360,
-0.408240,-0.977570,
-0.441920,-0.949920,
-0.469570,-0.916240,
-0.490360,-0.877360,
-0.503450,-0.834140,
-0.508000,-0.787400,
-0.508000,0.787400,
-0.503450,0.834140,
-0.490360,0.877360,
-0.469570,0.916240,
-0.441920,0.949920,
-0.408240,0.977570,
-0.369360,0.998360,
-0.326140,1.011450,
-0.279400,1.016000,
0*%
%ADD32PPAD026*%
%AMPPAD027*
4,1,36,
1.016000,0.279400,
1.016000,-0.279400,
1.011450,-0.326140,
0.998360,-0.369360,
0.977570,-0.408240,
0.949920,-0.441920,
0.916240,-0.469570,
0.877360,-0.490360,
0.834140,-0.503450,
0.787400,-0.508000,
-0.787400,-0.508000,
-0.834140,-0.503450,
-0.877360,-0.490360,
-0.916240,-0.469570,
-0.949920,-0.441920,
-0.977570,-0.408240,
-0.998360,-0.369360,
-1.011450,-0.326140,
-1.016000,-0.279400,
-1.016000,0.279400,
-1.011450,0.326140,
-0.998360,0.369360,
-0.977570,0.408240,
-0.949920,0.441920,
-0.916240,0.469570,
-0.877360,0.490360,
-0.834140,0.503450,
-0.787400,0.508000,
0.787400,0.508000,
0.834140,0.503450,
0.877360,0.490360,
0.916240,0.469570,
0.949920,0.441920,
0.977570,0.408240,
0.998360,0.369360,
1.011450,0.326140,
1.016000,0.279400,
0*%
%ADD33PPAD027*%
%AMPPAD073*
4,1,4,
0.279400,0.304800,
-0.279400,0.304800,
-0.279400,-0.304800,
0.279400,-0.304800,
0.279400,0.304800,
0*%
%ADD83PPAD073*%
%ADD74C,1.651000*%
%ADD13C,0.203200*%
D18*
X+1900823Y+1898135D03*
X+902641Y+2655444D03*
X+893163Y+2553261D03*
X+1685628Y+1095824D03*
X+563009Y+2806884D03*
X+1806531Y+1819189D03*
X+1030239Y+1713743D03*
X+1007892Y+2002799D03*
X+1050823Y+2098135D03*
X+2422271Y+2387202D03*
X+2543326Y+2057053D03*
X+2414347Y+2200031D03*
X+1390441Y+1100919D03*
X+1322057Y+819241D03*
X+2033474Y+609913D03*
X+721411Y+2452511D03*
X+1621790Y+450272D03*
X+2505288Y+1312153D03*
X+2280000Y+1420000D03*
X+835623Y+2452976D03*
X+1703926Y+1567791D03*
X+750823Y+438135D03*
X+2300000Y+340000D03*
X+1470000Y+880000D03*
X+1490823Y+1158135D03*
X+1800823Y+2448135D03*
X+1700823Y+2648135D03*
X+2730000Y+2120000D03*
X+2795375Y+822687D03*
X+1963312Y+1247819D03*
X+1560000Y+2480000D03*
X+450000Y+2850000D03*
X+1482934Y+2457686D03*
X+2498776Y+1556793D03*
X+1047080Y+2974179D03*
X+1012219Y+2191131D03*
X+821510Y+2237448D03*
X+2300000Y+1720000D03*
X+684976Y+1573884D03*
X+1870000Y+1100000D03*
X+2092523Y+905535D03*
X+2304027Y+1175239D03*
X+1454903Y+1869124D03*
X+1699805Y+1227114D03*
X+1825798Y+2071445D03*
X+1030000Y+920000D03*
X+1117727Y+855682D03*
X+1050000Y+1390000D03*
X+1036410Y+1504020D03*
X+1002548Y+1587452D03*
X+1582900Y+1583307D03*
X+1220000Y+1300000D03*
X+620000Y+1040000D03*
X+1453641Y+1681342D03*
X+1140000Y+1330000D03*
X+680000Y+1110000D03*
X+1480000Y+1020000D03*
X+1317823Y+664235D03*
X+1960000Y+1730000D03*
X+2660000Y+2060000D03*
X+2590000Y+1730000D03*
X+2710000Y+1760000D03*
X+2100823Y+2398135D03*
X+2271346Y+436956D03*
X+2748165Y+1236247D03*
X+2540047Y+1225819D03*
X+2150823Y+400000D03*
X+2730000Y+1350000D03*
X+2744740Y+1667174D03*
X+674332Y+1429095D03*
D30*
X+823Y-1865D03*
X+823Y+2998135D03*
X+3000823Y+2998135D03*
X+3000823Y-1865D03*
D40*
X+1015623Y+2581935D03*
X+1015623Y+2631935D03*
X+1015623Y+2681935D03*
X+1015623Y+2731935D03*
X+1015623Y+2781935D03*
X+1015623Y+2831935D03*
X+1015623Y+2881935D03*
D41*
X+1105623Y+2971935D03*
X+1155623Y+2971935D03*
X+1205623Y+2971935D03*
X+1255623Y+2971935D03*
X+1305623Y+2971935D03*
X+1355623Y+2971935D03*
X+1405623Y+2971935D03*
D42*
X+1495623Y+2881935D03*
X+1495623Y+2831935D03*
X+1495623Y+2781935D03*
X+1495623Y+2731935D03*
X+1495623Y+2681935D03*
X+1495623Y+2631935D03*
X+1495623Y+2581935D03*
D43*
X+1405623Y+2491935D03*
X+1355623Y+2491935D03*
X+1305623Y+2491935D03*
X+1255623Y+2491935D03*
X+1205623Y+2491935D03*
X+1155623Y+2491935D03*
X+1105623Y+2491935D03*
D75*
X+1255623Y+2731935D03*
D76*
X+722023Y+2493035D03*
X+632023Y+2493035D03*
X+722023Y+2612931D03*
X+632023Y+2612931D03*
D77*
X+657423Y+2899435D03*
X+657423Y+2799435D03*
X+771723Y+2797835D03*
X+771723Y+2897835D03*
D78*
X+2350823Y+3098135D03*
X+2530823Y+3098135D03*
D79*
X+2190823Y+2560195D03*
X+2420823Y+2560195D03*
X+2650823Y+2560195D03*
D80*
X+2420823Y+1980195D03*
D81*
X+2350823Y+2860195D03*
X+2190823Y+2860195D03*
X+2650823Y+2860195D03*
X+2490823Y+2860195D03*
D82*
X+2560000Y+1720000D03*
X+2300000Y+1720000D03*
D32*
X+1500823Y-101865D03*
X+1700823Y-101865D03*
X+1900823Y-101865D03*
X+2100823Y-101865D03*
X+2300823Y-101865D03*
X+2500823Y-101865D03*
D33*
X+823Y+798135D03*
X+823Y+598135D03*
X+823Y+398135D03*
X+823Y+1398135D03*
X+823Y+1198135D03*
X+823Y+998135D03*
X+823Y+1798135D03*
X+823Y+1598135D03*
X+3050000Y+2150000D03*
X+3050000Y+2330000D03*
X+3050823Y+2498135D03*
X+3050823Y+448135D03*
X+3050823Y+648135D03*
X+3050823Y+1148135D03*
X+3050823Y+1348135D03*
X+3050823Y+1548135D03*
X+3050823Y+1748135D03*
D32*
X+1300823Y-101865D03*
X+1100823Y-101865D03*
X+900823Y-101865D03*
D83*
X+1910823Y+618135D03*
X+1810823Y+618135D03*
D33*
X+3050000Y+1960000D03*
X+3050823Y+938135D03*
D74*
X+2010000Y+2900000D03*
X+1810000Y+2900000D03*
X+2010000Y+3100000D03*
X+1810000Y+3100000D03*
D13*
X-299177Y+3078135D02*
X-295100Y+3135532D01*
X-282966Y+3185752D01*
X-262922Y+3228648D01*
X-235114Y+3264072D01*
X-199689Y+3291880D01*
X-156794Y+3311924D01*
X-106574Y+3324058D01*
X-49177Y+3328135D01*
X+3050823Y+3328135D02*
X+3108220Y+3324058D01*
X+3158440Y+3311924D01*
X+3201335Y+3291880D01*
X+3236760Y+3264072D01*
X+3264568Y+3228648D01*
X+3284612Y+3185752D01*
X+3296746Y+3135532D01*
X+3300823Y+3078135D01*
X+3300823Y-51865D02*
X+3296746Y-109262D01*
X+3284612Y-159482D01*
X+3264568Y-202378D01*
X+3236760Y-237802D01*
X+3201335Y-265610D01*
X+3158440Y-285654D01*
X+3108220Y-297788D01*
X+3050823Y-301865D01*
X-49177Y-301865D02*
X-106574Y-297788D01*
X-156794Y-285654D01*
X-199689Y-265610D01*
X-235114Y-237802D01*
X-262922Y-202378D01*
X-282966Y-159482D01*
X-295100Y-109262D01*
X-299177Y-51865D01*
X-49177Y-301865D02*
X+3050823Y-301865D01*
X-299177Y-51865D02*
X-299177Y+3098135D01*
X-59177Y+3328135D02*
X+3040823Y+3328135D01*
X+3300823Y+3098135D02*
X+3300823Y-51865D01*
M02*
