G04 PROTEUS RS274X GERBER FILE*
%FSLAX45Y45*%
%MOMM*%
G01*
%ADD13C,0.203200*%
%ADD114C,0.127000*%
%ADD115C,0.063500*%
D13*
X+1900823Y+1961635D02*
X+1900823Y+1834635D01*
X+1837323Y+1898135D02*
X+1964323Y+1898135D01*
X+902641Y+2718944D02*
X+902641Y+2591944D01*
X+839141Y+2655444D02*
X+966141Y+2655444D01*
X+893163Y+2616761D02*
X+893163Y+2489761D01*
X+829663Y+2553261D02*
X+956663Y+2553261D01*
X+1685628Y+1159324D02*
X+1685628Y+1032324D01*
X+1622128Y+1095824D02*
X+1749128Y+1095824D01*
X+563009Y+2870384D02*
X+563009Y+2743384D01*
X+499509Y+2806884D02*
X+626509Y+2806884D01*
X+1806531Y+1882689D02*
X+1806531Y+1755689D01*
X+1743031Y+1819189D02*
X+1870031Y+1819189D01*
X+1030239Y+1777243D02*
X+1030239Y+1650243D01*
X+966739Y+1713743D02*
X+1093739Y+1713743D01*
X+1007892Y+2066299D02*
X+1007892Y+1939299D01*
X+944392Y+2002799D02*
X+1071392Y+2002799D01*
X+1050823Y+2161635D02*
X+1050823Y+2034635D01*
X+987323Y+2098135D02*
X+1114323Y+2098135D01*
X+2422271Y+2450702D02*
X+2422271Y+2323702D01*
X+2358771Y+2387202D02*
X+2485771Y+2387202D01*
X+2543326Y+2120553D02*
X+2543326Y+1993553D01*
X+2479826Y+2057053D02*
X+2606826Y+2057053D01*
X+2414347Y+2263531D02*
X+2414347Y+2136531D01*
X+2350847Y+2200031D02*
X+2477847Y+2200031D01*
X+1390441Y+1164419D02*
X+1390441Y+1037419D01*
X+1326941Y+1100919D02*
X+1453941Y+1100919D01*
X+1322057Y+882741D02*
X+1322057Y+755741D01*
X+1258557Y+819241D02*
X+1385557Y+819241D01*
X+2033474Y+673413D02*
X+2033474Y+546413D01*
X+1969974Y+609913D02*
X+2096974Y+609913D01*
X+721411Y+2516011D02*
X+721411Y+2389011D01*
X+657911Y+2452511D02*
X+784911Y+2452511D01*
X+1621790Y+513772D02*
X+1621790Y+386772D01*
X+1558290Y+450272D02*
X+1685290Y+450272D01*
X+2505288Y+1375653D02*
X+2505288Y+1248653D01*
X+2441788Y+1312153D02*
X+2568788Y+1312153D01*
X+2280000Y+1483500D02*
X+2280000Y+1356500D01*
X+2216500Y+1420000D02*
X+2343500Y+1420000D01*
X+835623Y+2516476D02*
X+835623Y+2389476D01*
X+772123Y+2452976D02*
X+899123Y+2452976D01*
X+1703926Y+1631291D02*
X+1703926Y+1504291D01*
X+1640426Y+1567791D02*
X+1767426Y+1567791D01*
X+750823Y+501635D02*
X+750823Y+374635D01*
X+687323Y+438135D02*
X+814323Y+438135D01*
X+2300000Y+403500D02*
X+2300000Y+276500D01*
X+2236500Y+340000D02*
X+2363500Y+340000D01*
X+1470000Y+943500D02*
X+1470000Y+816500D01*
X+1406500Y+880000D02*
X+1533500Y+880000D01*
X+1490823Y+1221635D02*
X+1490823Y+1094635D01*
X+1427323Y+1158135D02*
X+1554323Y+1158135D01*
X+1800823Y+2511635D02*
X+1800823Y+2384635D01*
X+1737323Y+2448135D02*
X+1864323Y+2448135D01*
X+1700823Y+2711635D02*
X+1700823Y+2584635D01*
X+1637323Y+2648135D02*
X+1764323Y+2648135D01*
X+2730000Y+2183500D02*
X+2730000Y+2056500D01*
X+2666500Y+2120000D02*
X+2793500Y+2120000D01*
X+2795375Y+886187D02*
X+2795375Y+759187D01*
X+2731875Y+822687D02*
X+2858875Y+822687D01*
X+1963312Y+1311319D02*
X+1963312Y+1184319D01*
X+1899812Y+1247819D02*
X+2026812Y+1247819D01*
X+1560000Y+2543500D02*
X+1560000Y+2416500D01*
X+1496500Y+2480000D02*
X+1623500Y+2480000D01*
X+450000Y+2913500D02*
X+450000Y+2786500D01*
X+386500Y+2850000D02*
X+513500Y+2850000D01*
X+1482934Y+2521186D02*
X+1482934Y+2394186D01*
X+1419434Y+2457686D02*
X+1546434Y+2457686D01*
X+2498776Y+1620293D02*
X+2498776Y+1493293D01*
X+2435276Y+1556793D02*
X+2562276Y+1556793D01*
X+1047080Y+3037679D02*
X+1047080Y+2910679D01*
X+983580Y+2974179D02*
X+1110580Y+2974179D01*
X+1012219Y+2254631D02*
X+1012219Y+2127631D01*
X+948719Y+2191131D02*
X+1075719Y+2191131D01*
X+821510Y+2300948D02*
X+821510Y+2173948D01*
X+758010Y+2237448D02*
X+885010Y+2237448D01*
X+2300000Y+1783500D02*
X+2300000Y+1656500D01*
X+2236500Y+1720000D02*
X+2363500Y+1720000D01*
X+684976Y+1637384D02*
X+684976Y+1510384D01*
X+621476Y+1573884D02*
X+748476Y+1573884D01*
X+1870000Y+1163500D02*
X+1870000Y+1036500D01*
X+1806500Y+1100000D02*
X+1933500Y+1100000D01*
X+2092523Y+969035D02*
X+2092523Y+842035D01*
X+2029023Y+905535D02*
X+2156023Y+905535D01*
X+2304027Y+1238739D02*
X+2304027Y+1111739D01*
X+2240527Y+1175239D02*
X+2367527Y+1175239D01*
X+1454903Y+1932624D02*
X+1454903Y+1805624D01*
X+1391403Y+1869124D02*
X+1518403Y+1869124D01*
X+1699805Y+1290614D02*
X+1699805Y+1163614D01*
X+1636305Y+1227114D02*
X+1763305Y+1227114D01*
X+1825798Y+2134945D02*
X+1825798Y+2007945D01*
X+1762298Y+2071445D02*
X+1889298Y+2071445D01*
X+1030000Y+983500D02*
X+1030000Y+856500D01*
X+966500Y+920000D02*
X+1093500Y+920000D01*
X+1117727Y+919182D02*
X+1117727Y+792182D01*
X+1054227Y+855682D02*
X+1181227Y+855682D01*
X+1050000Y+1453500D02*
X+1050000Y+1326500D01*
X+986500Y+1390000D02*
X+1113500Y+1390000D01*
X+1036410Y+1567520D02*
X+1036410Y+1440520D01*
X+972910Y+1504020D02*
X+1099910Y+1504020D01*
X+1002548Y+1650952D02*
X+1002548Y+1523952D01*
X+939048Y+1587452D02*
X+1066048Y+1587452D01*
X+1582900Y+1646807D02*
X+1582900Y+1519807D01*
X+1519400Y+1583307D02*
X+1646400Y+1583307D01*
X+1220000Y+1363500D02*
X+1220000Y+1236500D01*
X+1156500Y+1300000D02*
X+1283500Y+1300000D01*
X+620000Y+1103500D02*
X+620000Y+976500D01*
X+556500Y+1040000D02*
X+683500Y+1040000D01*
X+1453641Y+1744842D02*
X+1453641Y+1617842D01*
X+1390141Y+1681342D02*
X+1517141Y+1681342D01*
X+1140000Y+1393500D02*
X+1140000Y+1266500D01*
X+1076500Y+1330000D02*
X+1203500Y+1330000D01*
X+680000Y+1173500D02*
X+680000Y+1046500D01*
X+616500Y+1110000D02*
X+743500Y+1110000D01*
X+1480000Y+1083500D02*
X+1480000Y+956500D01*
X+1416500Y+1020000D02*
X+1543500Y+1020000D01*
X+1317823Y+727735D02*
X+1317823Y+600735D01*
X+1254323Y+664235D02*
X+1381323Y+664235D01*
X+1960000Y+1793500D02*
X+1960000Y+1666500D01*
X+1896500Y+1730000D02*
X+2023500Y+1730000D01*
X+2660000Y+2123500D02*
X+2660000Y+1996500D01*
X+2596500Y+2060000D02*
X+2723500Y+2060000D01*
X+2590000Y+1793500D02*
X+2590000Y+1666500D01*
X+2526500Y+1730000D02*
X+2653500Y+1730000D01*
X+2710000Y+1823500D02*
X+2710000Y+1696500D01*
X+2646500Y+1760000D02*
X+2773500Y+1760000D01*
X+2100823Y+2461635D02*
X+2100823Y+2334635D01*
X+2037323Y+2398135D02*
X+2164323Y+2398135D01*
X+2271346Y+500456D02*
X+2271346Y+373456D01*
X+2207846Y+436956D02*
X+2334846Y+436956D01*
X+2748165Y+1299747D02*
X+2748165Y+1172747D01*
X+2684665Y+1236247D02*
X+2811665Y+1236247D01*
X+2540047Y+1289319D02*
X+2540047Y+1162319D01*
X+2476547Y+1225819D02*
X+2603547Y+1225819D01*
X+2150823Y+463500D02*
X+2150823Y+336500D01*
X+2087323Y+400000D02*
X+2214323Y+400000D01*
X+2730000Y+1413500D02*
X+2730000Y+1286500D01*
X+2666500Y+1350000D02*
X+2793500Y+1350000D01*
X+2744740Y+1730674D02*
X+2744740Y+1603674D01*
X+2681240Y+1667174D02*
X+2808240Y+1667174D01*
X+674332Y+1492595D02*
X+674332Y+1365595D01*
X+610832Y+1429095D02*
X+737832Y+1429095D01*
X+64323Y-1865D02*
X+64106Y+3382D01*
X+62341Y+13877D01*
X+58649Y+24372D01*
X+52621Y+34867D01*
X+43399Y+45247D01*
X+32904Y+52935D01*
X+22409Y+57853D01*
X+11914Y+60659D01*
X+1419Y+61632D01*
X+823Y+61635D01*
X-62677Y-1865D02*
X-62460Y+3382D01*
X-60695Y+13877D01*
X-57003Y+24372D01*
X-50975Y+34867D01*
X-41753Y+45247D01*
X-31258Y+52935D01*
X-20763Y+57853D01*
X-10268Y+60659D01*
X+227Y+61632D01*
X+823Y+61635D01*
X-62677Y-1865D02*
X-62460Y-7112D01*
X-60695Y-17607D01*
X-57003Y-28102D01*
X-50975Y-38597D01*
X-41753Y-48977D01*
X-31258Y-56665D01*
X-20763Y-61583D01*
X-10268Y-64389D01*
X+227Y-65362D01*
X+823Y-65365D01*
X+64323Y-1865D02*
X+64106Y-7112D01*
X+62341Y-17607D01*
X+58649Y-28102D01*
X+52621Y-38597D01*
X+43399Y-48977D01*
X+32904Y-56665D01*
X+22409Y-61583D01*
X+11914Y-64389D01*
X+1419Y-65362D01*
X+823Y-65365D01*
X+823Y+61635D02*
X+823Y-65365D01*
X-62677Y-1865D02*
X+64323Y-1865D01*
X+64323Y+2998135D02*
X+64106Y+3003382D01*
X+62341Y+3013877D01*
X+58649Y+3024372D01*
X+52621Y+3034867D01*
X+43399Y+3045247D01*
X+32904Y+3052935D01*
X+22409Y+3057853D01*
X+11914Y+3060659D01*
X+1419Y+3061632D01*
X+823Y+3061635D01*
X-62677Y+2998135D02*
X-62460Y+3003382D01*
X-60695Y+3013877D01*
X-57003Y+3024372D01*
X-50975Y+3034867D01*
X-41753Y+3045247D01*
X-31258Y+3052935D01*
X-20763Y+3057853D01*
X-10268Y+3060659D01*
X+227Y+3061632D01*
X+823Y+3061635D01*
X-62677Y+2998135D02*
X-62460Y+2992888D01*
X-60695Y+2982393D01*
X-57003Y+2971898D01*
X-50975Y+2961403D01*
X-41753Y+2951023D01*
X-31258Y+2943335D01*
X-20763Y+2938417D01*
X-10268Y+2935611D01*
X+227Y+2934638D01*
X+823Y+2934635D01*
X+64323Y+2998135D02*
X+64106Y+2992888D01*
X+62341Y+2982393D01*
X+58649Y+2971898D01*
X+52621Y+2961403D01*
X+43399Y+2951023D01*
X+32904Y+2943335D01*
X+22409Y+2938417D01*
X+11914Y+2935611D01*
X+1419Y+2934638D01*
X+823Y+2934635D01*
X+823Y+3061635D02*
X+823Y+2934635D01*
X-62677Y+2998135D02*
X+64323Y+2998135D01*
X+3064323Y+2998135D02*
X+3064106Y+3003382D01*
X+3062341Y+3013877D01*
X+3058649Y+3024372D01*
X+3052621Y+3034867D01*
X+3043399Y+3045247D01*
X+3032904Y+3052935D01*
X+3022409Y+3057853D01*
X+3011914Y+3060659D01*
X+3001419Y+3061632D01*
X+3000823Y+3061635D01*
X+2937323Y+2998135D02*
X+2937540Y+3003382D01*
X+2939305Y+3013877D01*
X+2942997Y+3024372D01*
X+2949025Y+3034867D01*
X+2958247Y+3045247D01*
X+2968742Y+3052935D01*
X+2979237Y+3057853D01*
X+2989732Y+3060659D01*
X+3000227Y+3061632D01*
X+3000823Y+3061635D01*
X+2937323Y+2998135D02*
X+2937540Y+2992888D01*
X+2939305Y+2982393D01*
X+2942997Y+2971898D01*
X+2949025Y+2961403D01*
X+2958247Y+2951023D01*
X+2968742Y+2943335D01*
X+2979237Y+2938417D01*
X+2989732Y+2935611D01*
X+3000227Y+2934638D01*
X+3000823Y+2934635D01*
X+3064323Y+2998135D02*
X+3064106Y+2992888D01*
X+3062341Y+2982393D01*
X+3058649Y+2971898D01*
X+3052621Y+2961403D01*
X+3043399Y+2951023D01*
X+3032904Y+2943335D01*
X+3022409Y+2938417D01*
X+3011914Y+2935611D01*
X+3001419Y+2934638D01*
X+3000823Y+2934635D01*
X+3000823Y+3061635D02*
X+3000823Y+2934635D01*
X+2937323Y+2998135D02*
X+3064323Y+2998135D01*
X+3064323Y-1865D02*
X+3064106Y+3382D01*
X+3062341Y+13877D01*
X+3058649Y+24372D01*
X+3052621Y+34867D01*
X+3043399Y+45247D01*
X+3032904Y+52935D01*
X+3022409Y+57853D01*
X+3011914Y+60659D01*
X+3001419Y+61632D01*
X+3000823Y+61635D01*
X+2937323Y-1865D02*
X+2937540Y+3382D01*
X+2939305Y+13877D01*
X+2942997Y+24372D01*
X+2949025Y+34867D01*
X+2958247Y+45247D01*
X+2968742Y+52935D01*
X+2979237Y+57853D01*
X+2989732Y+60659D01*
X+3000227Y+61632D01*
X+3000823Y+61635D01*
X+2937323Y-1865D02*
X+2937540Y-7112D01*
X+2939305Y-17607D01*
X+2942997Y-28102D01*
X+2949025Y-38597D01*
X+2958247Y-48977D01*
X+2968742Y-56665D01*
X+2979237Y-61583D01*
X+2989732Y-64389D01*
X+3000227Y-65362D01*
X+3000823Y-65365D01*
X+3064323Y-1865D02*
X+3064106Y-7112D01*
X+3062341Y-17607D01*
X+3058649Y-28102D01*
X+3052621Y-38597D01*
X+3043399Y-48977D01*
X+3032904Y-56665D01*
X+3022409Y-61583D01*
X+3011914Y-64389D01*
X+3001419Y-65362D01*
X+3000823Y-65365D01*
X+3000823Y+61635D02*
X+3000823Y-65365D01*
X+2937323Y-1865D02*
X+3064323Y-1865D01*
X+1455922Y-56964D02*
X+1545724Y-146766D01*
X+1455922Y-146766D02*
X+1545724Y-56964D01*
X+1655922Y-56964D02*
X+1745724Y-146766D01*
X+1655922Y-146766D02*
X+1745724Y-56964D01*
X+1855922Y-56964D02*
X+1945724Y-146766D01*
X+1855922Y-146766D02*
X+1945724Y-56964D01*
X+2055922Y-56964D02*
X+2145724Y-146766D01*
X+2055922Y-146766D02*
X+2145724Y-56964D01*
X+2255922Y-56964D02*
X+2345724Y-146766D01*
X+2255922Y-146766D02*
X+2345724Y-56964D01*
X+2455922Y-56964D02*
X+2545724Y-146766D01*
X+2455922Y-146766D02*
X+2545724Y-56964D01*
X-44078Y+843036D02*
X+45724Y+753234D01*
X-44078Y+753234D02*
X+45724Y+843036D01*
X-44078Y+643036D02*
X+45724Y+553234D01*
X-44078Y+553234D02*
X+45724Y+643036D01*
X-44078Y+443036D02*
X+45724Y+353234D01*
X-44078Y+353234D02*
X+45724Y+443036D01*
X-44078Y+1443036D02*
X+45724Y+1353234D01*
X-44078Y+1353234D02*
X+45724Y+1443036D01*
X-44078Y+1243036D02*
X+45724Y+1153234D01*
X-44078Y+1153234D02*
X+45724Y+1243036D01*
X-44078Y+1043036D02*
X+45724Y+953234D01*
X-44078Y+953234D02*
X+45724Y+1043036D01*
X-44078Y+1843036D02*
X+45724Y+1753234D01*
X-44078Y+1753234D02*
X+45724Y+1843036D01*
X-44078Y+1643036D02*
X+45724Y+1553234D01*
X-44078Y+1553234D02*
X+45724Y+1643036D01*
X+3005099Y+2194901D02*
X+3094901Y+2105099D01*
X+3005099Y+2105099D02*
X+3094901Y+2194901D01*
X+3005099Y+2374901D02*
X+3094901Y+2285099D01*
X+3005099Y+2285099D02*
X+3094901Y+2374901D01*
X+3114323Y+2498135D02*
X+3114106Y+2503382D01*
X+3112341Y+2513877D01*
X+3108649Y+2524372D01*
X+3102621Y+2534867D01*
X+3093399Y+2545247D01*
X+3082904Y+2552935D01*
X+3072409Y+2557853D01*
X+3061914Y+2560659D01*
X+3051419Y+2561632D01*
X+3050823Y+2561635D01*
X+2987323Y+2498135D02*
X+2987540Y+2503382D01*
X+2989305Y+2513877D01*
X+2992997Y+2524372D01*
X+2999025Y+2534867D01*
X+3008247Y+2545247D01*
X+3018742Y+2552935D01*
X+3029237Y+2557853D01*
X+3039732Y+2560659D01*
X+3050227Y+2561632D01*
X+3050823Y+2561635D01*
X+2987323Y+2498135D02*
X+2987540Y+2492888D01*
X+2989305Y+2482393D01*
X+2992997Y+2471898D01*
X+2999025Y+2461403D01*
X+3008247Y+2451023D01*
X+3018742Y+2443335D01*
X+3029237Y+2438417D01*
X+3039732Y+2435611D01*
X+3050227Y+2434638D01*
X+3050823Y+2434635D01*
X+3114323Y+2498135D02*
X+3114106Y+2492888D01*
X+3112341Y+2482393D01*
X+3108649Y+2471898D01*
X+3102621Y+2461403D01*
X+3093399Y+2451023D01*
X+3082904Y+2443335D01*
X+3072409Y+2438417D01*
X+3061914Y+2435611D01*
X+3051419Y+2434638D01*
X+3050823Y+2434635D01*
X+3005922Y+2543036D02*
X+3095724Y+2453234D01*
X+3005922Y+2453234D02*
X+3095724Y+2543036D01*
X+3005922Y+493036D02*
X+3095724Y+403234D01*
X+3005922Y+403234D02*
X+3095724Y+493036D01*
X+3005922Y+693036D02*
X+3095724Y+603234D01*
X+3005922Y+603234D02*
X+3095724Y+693036D01*
X+3005922Y+1193036D02*
X+3095724Y+1103234D01*
X+3005922Y+1103234D02*
X+3095724Y+1193036D01*
X+3005922Y+1393036D02*
X+3095724Y+1303234D01*
X+3005922Y+1303234D02*
X+3095724Y+1393036D01*
X+3005922Y+1593036D02*
X+3095724Y+1503234D01*
X+3005922Y+1503234D02*
X+3095724Y+1593036D01*
X+3005922Y+1793036D02*
X+3095724Y+1703234D01*
X+3005922Y+1703234D02*
X+3095724Y+1793036D01*
X+1255922Y-56964D02*
X+1345724Y-146766D01*
X+1255922Y-146766D02*
X+1345724Y-56964D01*
X+1055922Y-56964D02*
X+1145724Y-146766D01*
X+1055922Y-146766D02*
X+1145724Y-56964D01*
X+855922Y-56964D02*
X+945724Y-146766D01*
X+855922Y-146766D02*
X+945724Y-56964D01*
X+3005099Y+2004901D02*
X+3094901Y+1915099D01*
X+3005099Y+1915099D02*
X+3094901Y+2004901D01*
X+3005922Y+983036D02*
X+3095724Y+893234D01*
X+3005922Y+893234D02*
X+3095724Y+983036D01*
X+2010000Y+2963500D02*
X+2010000Y+2836500D01*
X+1946500Y+2900000D02*
X+2073500Y+2900000D01*
X+1965099Y+2944901D02*
X+2054901Y+2855099D01*
X+1965099Y+2855099D02*
X+2054901Y+2944901D01*
X+1810000Y+2963500D02*
X+1810000Y+2836500D01*
X+1746500Y+2900000D02*
X+1873500Y+2900000D01*
X+1765099Y+2944901D02*
X+1854901Y+2855099D01*
X+1765099Y+2855099D02*
X+1854901Y+2944901D01*
X+2010000Y+3163500D02*
X+2010000Y+3036500D01*
X+1946500Y+3100000D02*
X+2073500Y+3100000D01*
X+1965099Y+3144901D02*
X+2054901Y+3055099D01*
X+1965099Y+3055099D02*
X+2054901Y+3144901D01*
X+1810000Y+3163500D02*
X+1810000Y+3036500D01*
X+1746500Y+3100000D02*
X+1873500Y+3100000D01*
X+1765099Y+3144901D02*
X+1854901Y+3055099D01*
X+1765099Y+3055099D02*
X+1854901Y+3144901D01*
X-299177Y+3078135D02*
X-295100Y+3135532D01*
X-282966Y+3185752D01*
X-262922Y+3228648D01*
X-235114Y+3264072D01*
X-199689Y+3291880D01*
X-156794Y+3311924D01*
X-106574Y+3324058D01*
X-49177Y+3328135D01*
X+3050823Y+3328135D02*
X+3108220Y+3324058D01*
X+3158440Y+3311924D01*
X+3201335Y+3291880D01*
X+3236760Y+3264072D01*
X+3264568Y+3228648D01*
X+3284612Y+3185752D01*
X+3296746Y+3135532D01*
X+3300823Y+3078135D01*
X+3300823Y-51865D02*
X+3296746Y-109262D01*
X+3284612Y-159482D01*
X+3264568Y-202378D01*
X+3236760Y-237802D01*
X+3201335Y-265610D01*
X+3158440Y-285654D01*
X+3108220Y-297788D01*
X+3050823Y-301865D01*
X-49177Y-301865D02*
X-106574Y-297788D01*
X-156794Y-285654D01*
X-199689Y-265610D01*
X-235114Y-237802D01*
X-262922Y-202378D01*
X-282966Y-159482D01*
X-295100Y-109262D01*
X-299177Y-51865D01*
X-49177Y-301865D02*
X+3050823Y-301865D01*
X-299177Y-51865D02*
X-299177Y+3098135D01*
X-59177Y+3328135D02*
X+3040823Y+3328135D01*
X+3300823Y+3098135D02*
X+3300823Y-51865D01*
D114*
X-1132700Y-2792600D02*
X+1613040Y-2792600D01*
X+1613040Y-1306700D01*
X-1132700Y-1306700D01*
X-1132700Y-2792600D01*
D115*
X-665338Y-1306700D02*
X-665338Y-2792600D01*
X+249062Y-1306700D02*
X+249062Y-2792600D01*
X+1082182Y-1306700D02*
X+1082182Y-2792600D01*
X-1132700Y-1579750D02*
X+1613040Y-1579750D01*
X-1132700Y-1821050D02*
X+1613040Y-1821050D01*
X-1132700Y-2062350D02*
X+1613040Y-2062350D01*
X-1132700Y-2303650D02*
X+1613040Y-2303650D01*
X-1132700Y-2544950D02*
X+1613040Y-2544950D01*
D114*
X-1075550Y-1470530D02*
X-1060310Y-1485770D01*
X-999350Y-1485770D01*
X-984110Y-1470530D01*
X-984110Y-1455290D01*
X-999350Y-1440050D01*
X-1060310Y-1440050D01*
X-1075550Y-1424810D01*
X-1075550Y-1409570D01*
X-1060310Y-1394330D01*
X-999350Y-1394330D01*
X-984110Y-1409570D01*
X-862190Y-1394330D02*
X-953630Y-1485770D01*
X-953630Y-1394330D02*
X-907910Y-1440050D01*
X-831710Y-1485770D02*
X-831710Y-1394330D01*
X-785990Y-1440050D01*
X-740270Y-1394330D01*
X-740270Y-1485770D01*
X-608190Y-1470530D02*
X-592950Y-1485770D01*
X-531990Y-1485770D01*
X-516750Y-1470530D01*
X-516750Y-1455290D01*
X-531990Y-1440050D01*
X-592950Y-1440050D01*
X-608190Y-1424810D01*
X-608190Y-1409570D01*
X-592950Y-1394330D01*
X-531990Y-1394330D01*
X-516750Y-1409570D01*
X-471030Y-1394330D02*
X-410070Y-1394330D01*
X-440550Y-1394330D02*
X-440550Y-1485770D01*
X-471030Y-1485770D02*
X-410070Y-1485770D01*
X-364350Y-1394330D02*
X-272910Y-1394330D01*
X-364350Y-1485770D01*
X-272910Y-1485770D01*
X-150990Y-1485770D02*
X-242430Y-1485770D01*
X-242430Y-1394330D01*
X-150990Y-1394330D01*
X-242430Y-1440050D02*
X-181470Y-1440050D01*
X+306210Y-1485770D02*
X+306210Y-1394330D01*
X+382410Y-1394330D01*
X+397650Y-1409570D01*
X+397650Y-1424810D01*
X+382410Y-1440050D01*
X+306210Y-1440050D01*
X+428130Y-1394330D02*
X+428130Y-1485770D01*
X+519570Y-1485770D01*
X+550050Y-1485770D02*
X+550050Y-1424810D01*
X+580530Y-1394330D01*
X+611010Y-1394330D01*
X+641490Y-1424810D01*
X+641490Y-1485770D01*
X+550050Y-1455290D02*
X+641490Y-1455290D01*
X+671970Y-1394330D02*
X+763410Y-1394330D01*
X+717690Y-1394330D02*
X+717690Y-1485770D01*
X+885330Y-1485770D02*
X+793890Y-1485770D01*
X+793890Y-1394330D01*
X+885330Y-1394330D01*
X+793890Y-1440050D02*
X+854850Y-1440050D01*
X+915810Y-1485770D02*
X+915810Y-1394330D01*
X+976770Y-1394330D01*
X+1007250Y-1424810D01*
X+1007250Y-1455290D01*
X+976770Y-1485770D01*
X+915810Y-1485770D01*
X+1139330Y-1424810D02*
X+1169810Y-1394330D01*
X+1200290Y-1394330D01*
X+1230770Y-1424810D01*
X+1230770Y-1455290D01*
X+1200290Y-1485770D01*
X+1169810Y-1485770D01*
X+1139330Y-1455290D01*
X+1139330Y-1424810D01*
X+1200290Y-1455290D02*
X+1230770Y-1485770D01*
X+1261250Y-1394330D02*
X+1352690Y-1394330D01*
X+1306970Y-1394330D02*
X+1306970Y-1485770D01*
X+1474610Y-1394330D02*
X+1383170Y-1485770D01*
X+1383170Y-1394330D02*
X+1428890Y-1440050D01*
D13*
X-886320Y-1630550D02*
X-886320Y-1757550D01*
X-949820Y-1694050D02*
X-822820Y-1694050D01*
D114*
X-589140Y-1719450D02*
X-589140Y-1668650D01*
X-576440Y-1655950D01*
X-525640Y-1655950D01*
X-512940Y-1668650D01*
X-512940Y-1719450D01*
X-525640Y-1732150D01*
X-576440Y-1732150D01*
X-589140Y-1719450D01*
X-589140Y-1732150D02*
X-512940Y-1655950D01*
X-449440Y-1719450D02*
X-436740Y-1719450D01*
X-436740Y-1732150D01*
X-449440Y-1732150D01*
X-449440Y-1719450D01*
X-373240Y-1668650D02*
X-360540Y-1655950D01*
X-322440Y-1655950D01*
X-309740Y-1668650D01*
X-309740Y-1681350D01*
X-322440Y-1694050D01*
X-309740Y-1706750D01*
X-309740Y-1719450D01*
X-322440Y-1732150D01*
X-360540Y-1732150D01*
X-373240Y-1719450D01*
X-347840Y-1694050D02*
X-322440Y-1694050D01*
X-284340Y-1732150D02*
X-284340Y-1681350D01*
X-284340Y-1694050D02*
X-271640Y-1681350D01*
X-246240Y-1706750D01*
X-220840Y-1681350D01*
X-208140Y-1694050D01*
X-208140Y-1732150D01*
X-182740Y-1732150D02*
X-182740Y-1681350D01*
X-182740Y-1694050D02*
X-170040Y-1681350D01*
X-144640Y-1706750D01*
X-119240Y-1681350D01*
X-106540Y-1694050D01*
X-106540Y-1732150D01*
X+414160Y-1655950D02*
X+337960Y-1732150D01*
X+337960Y-1655950D02*
X+376060Y-1694050D01*
X+515760Y-1732150D02*
X+439560Y-1732150D01*
X+439560Y-1655950D01*
X+515760Y-1655950D01*
X+439560Y-1694050D02*
X+490360Y-1694050D01*
X+541160Y-1719450D02*
X+553860Y-1732150D01*
X+604660Y-1732150D01*
X+617360Y-1719450D01*
X+617360Y-1706750D01*
X+604660Y-1694050D01*
X+553860Y-1694050D01*
X+541160Y-1681350D01*
X+541160Y-1668650D01*
X+553860Y-1655950D01*
X+604660Y-1655950D01*
X+617360Y-1668650D01*
X+1196480Y-1655950D02*
X+1259980Y-1655950D01*
X+1259980Y-1668650D01*
X+1196480Y-1732150D01*
X+1285380Y-1719450D02*
X+1285380Y-1668650D01*
X+1298080Y-1655950D01*
X+1348880Y-1655950D01*
X+1361580Y-1668650D01*
X+1361580Y-1719450D01*
X+1348880Y-1732150D01*
X+1298080Y-1732150D01*
X+1285380Y-1719450D01*
X+1285380Y-1732150D02*
X+1361580Y-1655950D01*
D13*
X-931221Y-1890449D02*
X-841419Y-1980251D01*
X-931221Y-1980251D02*
X-841419Y-1890449D01*
D114*
X-589140Y-1960750D02*
X-589140Y-1909950D01*
X-576440Y-1897250D01*
X-525640Y-1897250D01*
X-512940Y-1909950D01*
X-512940Y-1960750D01*
X-525640Y-1973450D01*
X-576440Y-1973450D01*
X-589140Y-1960750D01*
X-589140Y-1973450D02*
X-512940Y-1897250D01*
X-449440Y-1960750D02*
X-436740Y-1960750D01*
X-436740Y-1973450D01*
X-449440Y-1973450D01*
X-449440Y-1960750D01*
X-309740Y-1897250D02*
X-373240Y-1897250D01*
X-373240Y-1922650D01*
X-322440Y-1922650D01*
X-309740Y-1935350D01*
X-309740Y-1960750D01*
X-322440Y-1973450D01*
X-360540Y-1973450D01*
X-373240Y-1960750D01*
X-284340Y-1960750D02*
X-284340Y-1909950D01*
X-271640Y-1897250D01*
X-220840Y-1897250D01*
X-208140Y-1909950D01*
X-208140Y-1960750D01*
X-220840Y-1973450D01*
X-271640Y-1973450D01*
X-284340Y-1960750D01*
X-284340Y-1973450D02*
X-208140Y-1897250D01*
X-157340Y-1935350D02*
X-170040Y-1922650D01*
X-170040Y-1909950D01*
X-157340Y-1897250D01*
X-119240Y-1897250D01*
X-106540Y-1909950D01*
X-106540Y-1922650D01*
X-119240Y-1935350D01*
X-157340Y-1935350D01*
X-170040Y-1948050D01*
X-170040Y-1960750D01*
X-157340Y-1973450D01*
X-119240Y-1973450D01*
X-106540Y-1960750D01*
X-106540Y-1948050D01*
X-119240Y-1935350D01*
X-81140Y-1973450D02*
X-81140Y-1922650D01*
X-81140Y-1935350D02*
X-68440Y-1922650D01*
X-43040Y-1948050D01*
X-17640Y-1922650D01*
X-4940Y-1935350D01*
X-4940Y-1973450D01*
X+20460Y-1973450D02*
X+20460Y-1922650D01*
X+20460Y-1935350D02*
X+33160Y-1922650D01*
X+58560Y-1948050D01*
X+83960Y-1922650D01*
X+96660Y-1935350D01*
X+96660Y-1973450D01*
X+414160Y-1897250D02*
X+337960Y-1973450D01*
X+337960Y-1897250D02*
X+376060Y-1935350D01*
X+515760Y-1973450D02*
X+439560Y-1973450D01*
X+439560Y-1897250D01*
X+515760Y-1897250D01*
X+439560Y-1935350D02*
X+490360Y-1935350D01*
X+541160Y-1960750D02*
X+553860Y-1973450D01*
X+604660Y-1973450D01*
X+617360Y-1960750D01*
X+617360Y-1948050D01*
X+604660Y-1935350D01*
X+553860Y-1935350D01*
X+541160Y-1922650D01*
X+541160Y-1909950D01*
X+553860Y-1897250D01*
X+604660Y-1897250D01*
X+617360Y-1909950D01*
X+1196480Y-1909950D02*
X+1209180Y-1897250D01*
X+1247280Y-1897250D01*
X+1259980Y-1909950D01*
X+1259980Y-1922650D01*
X+1247280Y-1935350D01*
X+1209180Y-1935350D01*
X+1196480Y-1948050D01*
X+1196480Y-1973450D01*
X+1259980Y-1973450D01*
X+1298080Y-1897250D02*
X+1361580Y-1897250D01*
X+1361580Y-1909950D01*
X+1298080Y-1973450D01*
D13*
X-886320Y-2113150D02*
X-886320Y-2240150D01*
X-949820Y-2176650D02*
X-822820Y-2176650D01*
X-931221Y-2131749D02*
X-841419Y-2221551D01*
X-931221Y-2221551D02*
X-841419Y-2131749D01*
D114*
X-589140Y-2202050D02*
X-589140Y-2151250D01*
X-576440Y-2138550D01*
X-525640Y-2138550D01*
X-512940Y-2151250D01*
X-512940Y-2202050D01*
X-525640Y-2214750D01*
X-576440Y-2214750D01*
X-589140Y-2202050D01*
X-589140Y-2214750D02*
X-512940Y-2138550D01*
X-449440Y-2202050D02*
X-436740Y-2202050D01*
X-436740Y-2214750D01*
X-449440Y-2214750D01*
X-449440Y-2202050D01*
X-360540Y-2176650D02*
X-373240Y-2163950D01*
X-373240Y-2151250D01*
X-360540Y-2138550D01*
X-322440Y-2138550D01*
X-309740Y-2151250D01*
X-309740Y-2163950D01*
X-322440Y-2176650D01*
X-360540Y-2176650D01*
X-373240Y-2189350D01*
X-373240Y-2202050D01*
X-360540Y-2214750D01*
X-322440Y-2214750D01*
X-309740Y-2202050D01*
X-309740Y-2189350D01*
X-322440Y-2176650D01*
X-258940Y-2163950D02*
X-233540Y-2138550D01*
X-233540Y-2214750D01*
X-170040Y-2151250D02*
X-157340Y-2138550D01*
X-119240Y-2138550D01*
X-106540Y-2151250D01*
X-106540Y-2163950D01*
X-119240Y-2176650D01*
X-157340Y-2176650D01*
X-170040Y-2189350D01*
X-170040Y-2214750D01*
X-106540Y-2214750D01*
X-55740Y-2176650D02*
X-68440Y-2163950D01*
X-68440Y-2151250D01*
X-55740Y-2138550D01*
X-17640Y-2138550D01*
X-4940Y-2151250D01*
X-4940Y-2163950D01*
X-17640Y-2176650D01*
X-55740Y-2176650D01*
X-68440Y-2189350D01*
X-68440Y-2202050D01*
X-55740Y-2214750D01*
X-17640Y-2214750D01*
X-4940Y-2202050D01*
X-4940Y-2189350D01*
X-17640Y-2176650D01*
X+20460Y-2214750D02*
X+20460Y-2163950D01*
X+20460Y-2176650D02*
X+33160Y-2163950D01*
X+58560Y-2189350D01*
X+83960Y-2163950D01*
X+96660Y-2176650D01*
X+96660Y-2214750D01*
X+122060Y-2214750D02*
X+122060Y-2163950D01*
X+122060Y-2176650D02*
X+134760Y-2163950D01*
X+160160Y-2189350D01*
X+185560Y-2163950D01*
X+198260Y-2176650D01*
X+198260Y-2214750D01*
X+414160Y-2138550D02*
X+337960Y-2214750D01*
X+337960Y-2138550D02*
X+376060Y-2176650D01*
X+515760Y-2214750D02*
X+439560Y-2214750D01*
X+439560Y-2138550D01*
X+515760Y-2138550D01*
X+439560Y-2176650D02*
X+490360Y-2176650D01*
X+541160Y-2202050D02*
X+553860Y-2214750D01*
X+604660Y-2214750D01*
X+617360Y-2202050D01*
X+617360Y-2189350D01*
X+604660Y-2176650D01*
X+553860Y-2176650D01*
X+541160Y-2163950D01*
X+541160Y-2151250D01*
X+553860Y-2138550D01*
X+604660Y-2138550D01*
X+617360Y-2151250D01*
X+1259980Y-2189350D02*
X+1183780Y-2189350D01*
X+1234580Y-2138550D01*
X+1234580Y-2214750D01*
D13*
X-822820Y-2417950D02*
X-823037Y-2412703D01*
X-824802Y-2402208D01*
X-828494Y-2391713D01*
X-834522Y-2381218D01*
X-843744Y-2370838D01*
X-854239Y-2363150D01*
X-864734Y-2358232D01*
X-875229Y-2355426D01*
X-885724Y-2354453D01*
X-886320Y-2354450D01*
X-949820Y-2417950D02*
X-949603Y-2412703D01*
X-947838Y-2402208D01*
X-944146Y-2391713D01*
X-938118Y-2381218D01*
X-928896Y-2370838D01*
X-918401Y-2363150D01*
X-907906Y-2358232D01*
X-897411Y-2355426D01*
X-886916Y-2354453D01*
X-886320Y-2354450D01*
X-949820Y-2417950D02*
X-949603Y-2423197D01*
X-947838Y-2433692D01*
X-944146Y-2444187D01*
X-938118Y-2454682D01*
X-928896Y-2465062D01*
X-918401Y-2472750D01*
X-907906Y-2477668D01*
X-897411Y-2480474D01*
X-886916Y-2481447D01*
X-886320Y-2481450D01*
X-822820Y-2417950D02*
X-823037Y-2423197D01*
X-824802Y-2433692D01*
X-828494Y-2444187D01*
X-834522Y-2454682D01*
X-843744Y-2465062D01*
X-854239Y-2472750D01*
X-864734Y-2477668D01*
X-875229Y-2480474D01*
X-885724Y-2481447D01*
X-886320Y-2481450D01*
X-886320Y-2354450D02*
X-886320Y-2481450D01*
X-949820Y-2417950D02*
X-822820Y-2417950D01*
D114*
X-576440Y-2392550D02*
X-563740Y-2379850D01*
X-525640Y-2379850D01*
X-512940Y-2392550D01*
X-512940Y-2405250D01*
X-525640Y-2417950D01*
X-512940Y-2430650D01*
X-512940Y-2443350D01*
X-525640Y-2456050D01*
X-563740Y-2456050D01*
X-576440Y-2443350D01*
X-551040Y-2417950D02*
X-525640Y-2417950D01*
X-449440Y-2443350D02*
X-436740Y-2443350D01*
X-436740Y-2456050D01*
X-449440Y-2456050D01*
X-449440Y-2443350D01*
X-385940Y-2443350D02*
X-385940Y-2392550D01*
X-373240Y-2379850D01*
X-322440Y-2379850D01*
X-309740Y-2392550D01*
X-309740Y-2443350D01*
X-322440Y-2456050D01*
X-373240Y-2456050D01*
X-385940Y-2443350D01*
X-385940Y-2456050D02*
X-309740Y-2379850D01*
X-208140Y-2379850D02*
X-271640Y-2379850D01*
X-271640Y-2405250D01*
X-220840Y-2405250D01*
X-208140Y-2417950D01*
X-208140Y-2443350D01*
X-220840Y-2456050D01*
X-258940Y-2456050D01*
X-271640Y-2443350D01*
X-182740Y-2456050D02*
X-182740Y-2405250D01*
X-182740Y-2417950D02*
X-170040Y-2405250D01*
X-144640Y-2430650D01*
X-119240Y-2405250D01*
X-106540Y-2417950D01*
X-106540Y-2456050D01*
X-81140Y-2456050D02*
X-81140Y-2405250D01*
X-81140Y-2417950D02*
X-68440Y-2405250D01*
X-43040Y-2430650D01*
X-17640Y-2405250D01*
X-4940Y-2417950D01*
X-4940Y-2456050D01*
X+414160Y-2379850D02*
X+337960Y-2456050D01*
X+337960Y-2379850D02*
X+376060Y-2417950D01*
X+515760Y-2456050D02*
X+439560Y-2456050D01*
X+439560Y-2379850D01*
X+515760Y-2379850D01*
X+439560Y-2417950D02*
X+490360Y-2417950D01*
X+541160Y-2443350D02*
X+553860Y-2456050D01*
X+604660Y-2456050D01*
X+617360Y-2443350D01*
X+617360Y-2430650D01*
X+604660Y-2417950D01*
X+553860Y-2417950D01*
X+541160Y-2405250D01*
X+541160Y-2392550D01*
X+553860Y-2379850D01*
X+604660Y-2379850D01*
X+617360Y-2392550D01*
X+1259980Y-2430650D02*
X+1183780Y-2430650D01*
X+1234580Y-2379850D01*
X+1234580Y-2456050D01*
D13*
X-822820Y-2659250D02*
X-823037Y-2654003D01*
X-824802Y-2643508D01*
X-828494Y-2633013D01*
X-834522Y-2622518D01*
X-843744Y-2612138D01*
X-854239Y-2604450D01*
X-864734Y-2599532D01*
X-875229Y-2596726D01*
X-885724Y-2595753D01*
X-886320Y-2595750D01*
X-949820Y-2659250D02*
X-949603Y-2654003D01*
X-947838Y-2643508D01*
X-944146Y-2633013D01*
X-938118Y-2622518D01*
X-928896Y-2612138D01*
X-918401Y-2604450D01*
X-907906Y-2599532D01*
X-897411Y-2596726D01*
X-886916Y-2595753D01*
X-886320Y-2595750D01*
X-949820Y-2659250D02*
X-949603Y-2664497D01*
X-947838Y-2674992D01*
X-944146Y-2685487D01*
X-938118Y-2695982D01*
X-928896Y-2706362D01*
X-918401Y-2714050D01*
X-907906Y-2718968D01*
X-897411Y-2721774D01*
X-886916Y-2722747D01*
X-886320Y-2722750D01*
X-822820Y-2659250D02*
X-823037Y-2664497D01*
X-824802Y-2674992D01*
X-828494Y-2685487D01*
X-834522Y-2695982D01*
X-843744Y-2706362D01*
X-854239Y-2714050D01*
X-864734Y-2718968D01*
X-875229Y-2721774D01*
X-885724Y-2722747D01*
X-886320Y-2722750D01*
X-931221Y-2614349D02*
X-841419Y-2704151D01*
X-931221Y-2704151D02*
X-841419Y-2614349D01*
D114*
X-589140Y-2684650D02*
X-589140Y-2633850D01*
X-576440Y-2621150D01*
X-525640Y-2621150D01*
X-512940Y-2633850D01*
X-512940Y-2684650D01*
X-525640Y-2697350D01*
X-576440Y-2697350D01*
X-589140Y-2684650D01*
X-589140Y-2697350D02*
X-512940Y-2621150D01*
X-449440Y-2684650D02*
X-436740Y-2684650D01*
X-436740Y-2697350D01*
X-449440Y-2697350D01*
X-449440Y-2684650D01*
X-309740Y-2621150D02*
X-373240Y-2621150D01*
X-373240Y-2646550D01*
X-322440Y-2646550D01*
X-309740Y-2659250D01*
X-309740Y-2684650D01*
X-322440Y-2697350D01*
X-360540Y-2697350D01*
X-373240Y-2684650D01*
X-284340Y-2684650D02*
X-284340Y-2633850D01*
X-271640Y-2621150D01*
X-220840Y-2621150D01*
X-208140Y-2633850D01*
X-208140Y-2684650D01*
X-220840Y-2697350D01*
X-271640Y-2697350D01*
X-284340Y-2684650D01*
X-284340Y-2697350D02*
X-208140Y-2621150D01*
X-157340Y-2659250D02*
X-170040Y-2646550D01*
X-170040Y-2633850D01*
X-157340Y-2621150D01*
X-119240Y-2621150D01*
X-106540Y-2633850D01*
X-106540Y-2646550D01*
X-119240Y-2659250D01*
X-157340Y-2659250D01*
X-170040Y-2671950D01*
X-170040Y-2684650D01*
X-157340Y-2697350D01*
X-119240Y-2697350D01*
X-106540Y-2684650D01*
X-106540Y-2671950D01*
X-119240Y-2659250D01*
X-81140Y-2697350D02*
X-81140Y-2646550D01*
X-81140Y-2659250D02*
X-68440Y-2646550D01*
X-43040Y-2671950D01*
X-17640Y-2646550D01*
X-4940Y-2659250D01*
X-4940Y-2697350D01*
X+20460Y-2697350D02*
X+20460Y-2646550D01*
X+20460Y-2659250D02*
X+33160Y-2646550D01*
X+58560Y-2671950D01*
X+83960Y-2646550D01*
X+96660Y-2659250D01*
X+96660Y-2697350D01*
X+337960Y-2697350D02*
X+337960Y-2621150D01*
X+414160Y-2697350D01*
X+414160Y-2621150D01*
X+439560Y-2646550D02*
X+464960Y-2621150D01*
X+490360Y-2621150D01*
X+515760Y-2646550D01*
X+515760Y-2671950D01*
X+490360Y-2697350D01*
X+464960Y-2697350D01*
X+439560Y-2671950D01*
X+439560Y-2646550D01*
X+1209180Y-2646550D02*
X+1234580Y-2621150D01*
X+1234580Y-2697350D01*
M02*
