G04 PROTEUS RS274X GERBER FILE*
%FSLAX45Y45*%
%MOMM*%
G01*
%ADD10C,0.304800*%
%ADD11C,0.190500*%
%ADD12C,0.254000*%
%ADD13C,0.203200*%
%ADD14C,0.152400*%
%ADD15C,0.508000*%
%ADD16C,0.381000*%
%ADD17C,0.762000*%
%ADD18C,0.600000*%
%ADD19R,1.480000X0.300000*%
%ADD70R,0.300000X1.480000*%
%ADD71R,0.609600X0.609600*%
%ADD20R,0.609600X0.558800*%
%ADD21R,1.000000X0.900000*%
%AMPPAD014*
4,1,19,
-0.100000,-0.380000,
-0.100000,0.280000,
-0.098010,0.300450,
-0.092290,0.319360,
-0.083190,0.336360,
-0.071090,0.351090,
-0.056360,0.363190,
-0.039360,0.372280,
-0.020450,0.378010,
0.000000,0.380000,
0.020450,0.378010,
0.039360,0.372280,
0.056360,0.363190,
0.071090,0.351090,
0.083190,0.336360,
0.092290,0.319360,
0.098010,0.300450,
0.100000,0.280000,
0.100000,-0.380000,
-0.100000,-0.380000,
0*%
%ADD22PPAD014*%
%AMPPAD015*
4,1,19,
0.380000,-0.100000,
-0.280000,-0.100000,
-0.300450,-0.098010,
-0.319360,-0.092280,
-0.336360,-0.083190,
-0.351090,-0.071090,
-0.363190,-0.056360,
-0.372290,-0.039360,
-0.378010,-0.020450,
-0.380000,0.000000,
-0.378010,0.020450,
-0.372290,0.039360,
-0.363190,0.056360,
-0.351090,0.071090,
-0.336360,0.083190,
-0.319360,0.092280,
-0.300450,0.098010,
-0.280000,0.100000,
0.380000,0.100000,
0.380000,-0.100000,
0*%
%ADD23PPAD015*%
%AMPPAD016*
4,1,19,
0.100000,0.380000,
0.100000,-0.280000,
0.098010,-0.300450,
0.092290,-0.319360,
0.083190,-0.336360,
0.071090,-0.351090,
0.056360,-0.363190,
0.039360,-0.372280,
0.020450,-0.378010,
0.000000,-0.380000,
-0.020450,-0.378010,
-0.039360,-0.372280,
-0.056360,-0.363190,
-0.071090,-0.351090,
-0.083190,-0.336360,
-0.092290,-0.319360,
-0.098010,-0.300450,
-0.100000,-0.280000,
-0.100000,0.380000,
0.100000,0.380000,
0*%
%ADD24PPAD016*%
%AMPPAD017*
4,1,19,
-0.380000,0.100000,
0.280000,0.100000,
0.300450,0.098010,
0.319360,0.092280,
0.336360,0.083190,
0.351090,0.071090,
0.363190,0.056360,
0.372290,0.039360,
0.378010,0.020450,
0.380000,0.000000,
0.378010,-0.020450,
0.372290,-0.039360,
0.363190,-0.056360,
0.351090,-0.071090,
0.336360,-0.083190,
0.319360,-0.092280,
0.300450,-0.098010,
0.280000,-0.100000,
-0.380000,-0.100000,
-0.380000,0.100000,
0*%
%ADD25PPAD017*%
%ADD26R,1.750000X1.590000*%
%ADD27R,0.939800X0.990600*%
%ADD28R,0.558800X0.609600*%
%ADD29R,0.990600X0.939800*%
%ADD72R,0.400000X1.500000*%
%ADD73R,1.800000X1.900000*%
%ADD30C,4.000000*%
%ADD31R,0.350000X0.500000*%
%AMPPAD026*
4,1,36,
-0.279400,1.016000,
0.279400,1.016000,
0.326140,1.011450,
0.369360,0.998360,
0.408240,0.977570,
0.441920,0.949920,
0.469570,0.916240,
0.490360,0.877360,
0.503450,0.834140,
0.508000,0.787400,
0.508000,-0.787400,
0.503450,-0.834140,
0.490360,-0.877360,
0.469570,-0.916240,
0.441920,-0.949920,
0.408240,-0.977570,
0.369360,-0.998360,
0.326140,-1.011450,
0.279400,-1.016000,
-0.279400,-1.016000,
-0.326140,-1.011450,
-0.369360,-0.998360,
-0.408240,-0.977570,
-0.441920,-0.949920,
-0.469570,-0.916240,
-0.490360,-0.877360,
-0.503450,-0.834140,
-0.508000,-0.787400,
-0.508000,0.787400,
-0.503450,0.834140,
-0.490360,0.877360,
-0.469570,0.916240,
-0.441920,0.949920,
-0.408240,0.977570,
-0.369360,0.998360,
-0.326140,1.011450,
-0.279400,1.016000,
0*%
%ADD32PPAD026*%
%AMPPAD027*
4,1,36,
1.016000,0.279400,
1.016000,-0.279400,
1.011450,-0.326140,
0.998360,-0.369360,
0.977570,-0.408240,
0.949920,-0.441920,
0.916240,-0.469570,
0.877360,-0.490360,
0.834140,-0.503450,
0.787400,-0.508000,
-0.787400,-0.508000,
-0.834140,-0.503450,
-0.877360,-0.490360,
-0.916240,-0.469570,
-0.949920,-0.441920,
-0.977570,-0.408240,
-0.998360,-0.369360,
-1.011450,-0.326140,
-1.016000,-0.279400,
-1.016000,0.279400,
-1.011450,0.326140,
-0.998360,0.369360,
-0.977570,0.408240,
-0.949920,0.441920,
-0.916240,0.469570,
-0.877360,0.490360,
-0.834140,0.503450,
-0.787400,0.508000,
0.787400,0.508000,
0.834140,0.503450,
0.877360,0.490360,
0.916240,0.469570,
0.949920,0.441920,
0.977570,0.408240,
0.998360,0.369360,
1.011450,0.326140,
1.016000,0.279400,
0*%
%ADD33PPAD027*%
%ADD34R,0.700000X1.520000*%
%ADD35R,0.450000X0.300000*%
%ADD36R,0.300000X0.450000*%
%ADD37C,1.100000*%
%ADD38C,1.397000*%
%ADD39C,0.000000*%
G36*
X+2500823Y-101865D02*
X+2532856Y-76856D01*
X+2500823Y-35825D01*
X+2468790Y-76856D01*
X+2500823Y-101865D01*
G37*
G36*
X+3050000Y+2150000D02*
X+3020457Y+2177906D01*
X+2984712Y+2140066D01*
X+3030095Y+2114569D01*
X+3050000Y+2150000D01*
G37*
G36*
X+3050823Y+2498135D02*
X+3033185Y+2524534D01*
X+2993673Y+2498135D01*
X+3033185Y+2471736D01*
X+3050823Y+2498135D01*
G37*
G36*
X+3050823Y+1148135D02*
X+3033185Y+1174534D01*
X+2993673Y+1148135D01*
X+3033185Y+1121736D01*
X+3050823Y+1148135D01*
G37*
G36*
X+3050823Y+1548135D02*
X+3044054Y+1588851D01*
X+2992399Y+1580262D01*
X+3012815Y+1532043D01*
X+3050823Y+1548135D01*
G37*
G36*
X+3050823Y+1748135D02*
X+3029447Y+1779673D01*
X+2987396Y+1751171D01*
X+3026532Y+1718783D01*
X+3050823Y+1748135D01*
G37*
G36*
X+3050000Y+1960000D02*
X+3023582Y+1990881D01*
X+2984027Y+1957043D01*
X+3026451Y+1926879D01*
X+3050000Y+1960000D01*
G37*
G36*
X+1810000Y+2900000D02*
X+1836399Y+2917638D01*
X+1810000Y+2957150D01*
X+1783601Y+2917638D01*
X+1810000Y+2900000D01*
G37*
G36*
X+1810000Y+2900000D02*
X+1752863Y+2901183D01*
X+1751628Y+2841628D01*
X+1811183Y+2842863D01*
X+1810000Y+2900000D01*
G37*
G36*
X+2010000Y+3100000D02*
X+2010289Y+3160324D01*
X+1949384Y+3160616D01*
X+1949676Y+3099711D01*
X+2010000Y+3100000D01*
G37*
G36*
X+1810000Y+3100000D02*
X+1783601Y+3082362D01*
X+1810000Y+3042850D01*
X+1836399Y+3082362D01*
X+1810000Y+3100000D01*
G37*
G36*
X+1900823Y+1898135D02*
X+1897245Y+1881210D01*
X+1935439Y+1873135D01*
X+1915765Y+1906853D01*
X+1900823Y+1898135D01*
G37*
G36*
X+902641Y+2655444D02*
X+922058Y+2648950D01*
X+935079Y+2687882D01*
X+896147Y+2674861D01*
X+902641Y+2655444D01*
G37*
G36*
X+893163Y+2553261D02*
X+911160Y+2544912D01*
X+928272Y+2581793D01*
X+888671Y+2572585D01*
X+893163Y+2553261D01*
G37*
G36*
X+1806531Y+1819189D02*
X+1814971Y+1804088D01*
X+1849048Y+1823135D01*
X+1812048Y+1835585D01*
X+1806531Y+1819189D01*
G37*
G36*
X+1030239Y+1713743D02*
X+1020867Y+1696257D01*
X+1056701Y+1677050D01*
X+1049790Y+1717115D01*
X+1030239Y+1713743D01*
G37*
G36*
X+1007892Y+2002799D02*
X+1001946Y+1986554D01*
X+1038605Y+1973135D01*
X+1023921Y+2009306D01*
X+1007892Y+2002799D01*
G37*
G36*
X+1050823Y+2098135D02*
X+1044596Y+2081995D01*
X+1081016Y+2067942D01*
X+1066963Y+2104362D01*
X+1050823Y+2098135D01*
G37*
G36*
X+2422271Y+2387202D02*
X+2411895Y+2397698D01*
X+2385333Y+2371441D01*
X+2422668Y+2372448D01*
X+2422271Y+2387202D01*
G37*
G36*
X+2422271Y+2387202D02*
X+2417221Y+2377487D01*
X+2447974Y+2361499D01*
X+2431986Y+2392252D01*
X+2422271Y+2387202D01*
G37*
G36*
X+2543326Y+2057053D02*
X+2553767Y+2060351D01*
X+2543326Y+2093403D01*
X+2532885Y+2060351D01*
X+2543326Y+2057053D01*
G37*
G36*
X+1390441Y+1100919D02*
X+1408573Y+1108972D01*
X+1392070Y+1146129D01*
X+1372936Y+1110256D01*
X+1390441Y+1100919D01*
G37*
G36*
X+2033474Y+609913D02*
X+2040547Y+629127D01*
X+2002024Y+643310D01*
X+2013871Y+604005D01*
X+2033474Y+609913D01*
G37*
G36*
X+721411Y+2452511D02*
X+703581Y+2443811D01*
X+721411Y+2407271D01*
X+739241Y+2443811D01*
X+721411Y+2452511D01*
G37*
G36*
X+1621790Y+450272D02*
X+1630928Y+431950D01*
X+1667665Y+450272D01*
X+1630928Y+468594D01*
X+1621790Y+450272D01*
G37*
G36*
X+2505288Y+1312153D02*
X+2496150Y+1330475D01*
X+2459413Y+1312153D01*
X+2496150Y+1293831D01*
X+2505288Y+1312153D01*
G37*
G36*
X+2280000Y+1420000D02*
X+2297664Y+1430353D01*
X+2276906Y+1465770D01*
X+2261103Y+1427881D01*
X+2280000Y+1420000D01*
G37*
G36*
X+835623Y+2452976D02*
X+844323Y+2435146D01*
X+880863Y+2452976D01*
X+844323Y+2470806D01*
X+835623Y+2452976D01*
G37*
G36*
X+1703926Y+1567791D02*
X+1693942Y+1553663D01*
X+1725823Y+1531133D01*
X+1721098Y+1569884D01*
X+1703926Y+1567791D01*
G37*
G36*
X+750823Y+438135D02*
X+757832Y+422319D01*
X+793523Y+438135D01*
X+757832Y+453951D01*
X+750823Y+438135D01*
G37*
G36*
X+2300000Y+340000D02*
X+2284018Y+346621D01*
X+2269076Y+310556D01*
X+2305830Y+323713D01*
X+2300000Y+340000D01*
G37*
G36*
X+1470000Y+880000D02*
X+1477828Y+861081D01*
X+1515761Y+876777D01*
X+1480403Y+897635D01*
X+1470000Y+880000D01*
G37*
G36*
X+1490823Y+1158135D02*
X+1511297Y+1158079D01*
X+1511412Y+1199130D01*
X+1478551Y+1174524D01*
X+1490823Y+1158135D01*
G37*
G36*
X+1800823Y+2448135D02*
X+1781155Y+2450736D01*
X+1775823Y+2410431D01*
X+1810875Y+2431031D01*
X+1800823Y+2448135D01*
G37*
G36*
X+1700823Y+2648135D02*
X+1709523Y+2630305D01*
X+1746063Y+2648135D01*
X+1709523Y+2665965D01*
X+1700823Y+2648135D01*
G37*
G36*
X+2730000Y+2120000D02*
X+2747830Y+2128700D01*
X+2730000Y+2165240D01*
X+2712170Y+2128700D01*
X+2730000Y+2120000D01*
G37*
G36*
X+2795375Y+822687D02*
X+2776615Y+829142D01*
X+2763386Y+790698D01*
X+2801830Y+803927D01*
X+2795375Y+822687D01*
G37*
G36*
X+1963312Y+1247819D02*
X+1981111Y+1257938D01*
X+1960823Y+1293626D01*
X+1944521Y+1255949D01*
X+1963312Y+1247819D01*
G37*
G36*
X+1560000Y+2480000D02*
X+1547216Y+2468346D01*
X+1573515Y+2439496D01*
X+1577221Y+2478358D01*
X+1560000Y+2480000D01*
G37*
G36*
X+1482934Y+2457686D02*
X+1463452Y+2463984D01*
X+1450823Y+2424924D01*
X+1489622Y+2438335D01*
X+1482934Y+2457686D01*
G37*
G36*
X+1047080Y+2974179D02*
X+1054089Y+2958363D01*
X+1089780Y+2974179D01*
X+1054089Y+2989995D01*
X+1047080Y+2974179D01*
G37*
G36*
X+1047080Y+2974179D02*
X+1057521Y+2977477D01*
X+1047080Y+3010529D01*
X+1036639Y+2977477D01*
X+1047080Y+2974179D01*
G37*
G36*
X+1012219Y+2191131D02*
X+1019228Y+2175315D01*
X+1054919Y+2191131D01*
X+1019228Y+2206947D01*
X+1012219Y+2191131D01*
G37*
G36*
X+821510Y+2237448D02*
X+803628Y+2227476D01*
X+823623Y+2191622D01*
X+840233Y+2229164D01*
X+821510Y+2237448D01*
G37*
G36*
X+684976Y+1573884D02*
X+703736Y+1565682D01*
X+720183Y+1603295D01*
X+680243Y+1593804D01*
X+684976Y+1573884D01*
G37*
G36*
X+1870000Y+1100000D02*
X+1860125Y+1117935D01*
X+1824163Y+1098135D01*
X+1861615Y+1081322D01*
X+1870000Y+1100000D01*
G37*
G36*
X+2304027Y+1175239D02*
X+2285111Y+1167403D01*
X+2300823Y+1129477D01*
X+2321666Y+1164844D01*
X+2304027Y+1175239D01*
G37*
G36*
X+1454903Y+1869124D02*
X+1435158Y+1863708D01*
X+1446017Y+1824118D01*
X+1471108Y+1856610D01*
X+1454903Y+1869124D01*
G37*
G36*
X+1699805Y+1227114D02*
X+1717635Y+1235814D01*
X+1699805Y+1272354D01*
X+1681975Y+1235814D01*
X+1699805Y+1227114D01*
G37*
G36*
X+1825798Y+2071445D02*
X+1843628Y+2080145D01*
X+1825798Y+2116685D01*
X+1807968Y+2080145D01*
X+1825798Y+2071445D01*
G37*
G36*
X+1030000Y+920000D02*
X+1048956Y+914147D01*
X+1060952Y+952994D01*
X+1022949Y+938544D01*
X+1030000Y+920000D01*
G37*
G36*
X+1117727Y+855682D02*
X+1111500Y+839542D01*
X+1147920Y+825489D01*
X+1133867Y+861909D01*
X+1117727Y+855682D01*
G37*
G36*
X+1050000Y+1390000D02*
X+1056124Y+1406179D01*
X+1019615Y+1420000D01*
X+1033900Y+1383670D01*
X+1050000Y+1390000D01*
G37*
G36*
X+1036410Y+1504020D02*
X+1054776Y+1496518D01*
X+1070152Y+1534155D01*
X+1031023Y+1523114D01*
X+1036410Y+1504020D01*
G37*
G36*
X+1002548Y+1587452D02*
X+1021308Y+1580997D01*
X+1034537Y+1619441D01*
X+996093Y+1606212D01*
X+1002548Y+1587452D01*
G37*
G36*
X+1582900Y+1583307D02*
X+1599040Y+1577080D01*
X+1613093Y+1613500D01*
X+1576673Y+1599447D01*
X+1582900Y+1583307D01*
G37*
G36*
X+1220000Y+1300000D02*
X+1203726Y+1305867D01*
X+1190485Y+1269144D01*
X+1226584Y+1284003D01*
X+1220000Y+1300000D01*
G37*
G36*
X+620000Y+1040000D02*
X+626946Y+1024157D01*
X+662699Y+1039832D01*
X+627071Y+1055788D01*
X+620000Y+1040000D01*
G37*
G36*
X+1453641Y+1681342D02*
X+1461786Y+1666080D01*
X+1496227Y+1684459D01*
X+1459476Y+1697627D01*
X+1453641Y+1681342D01*
G37*
G36*
X+1140000Y+1330000D02*
X+1123258Y+1334355D01*
X+1113430Y+1296574D01*
X+1148019Y+1314672D01*
X+1140000Y+1330000D01*
G37*
G36*
X+680000Y+1110000D02*
X+686924Y+1094147D01*
X+722699Y+1109772D01*
X+687093Y+1125778D01*
X+680000Y+1110000D01*
G37*
G36*
X+1480000Y+1020000D02*
X+1498348Y+1012454D01*
X+1513813Y+1050056D01*
X+1474658Y+1039107D01*
X+1480000Y+1020000D01*
G37*
G36*
X+1960000Y+1730000D02*
X+1953581Y+1713936D01*
X+1989832Y+1699449D01*
X+1976213Y+1736035D01*
X+1960000Y+1730000D01*
G37*
G36*
X+2660000Y+2060000D02*
X+2677830Y+2068700D01*
X+2660000Y+2105240D01*
X+2642170Y+2068700D01*
X+2660000Y+2060000D01*
G37*
G36*
X+2590000Y+1730000D02*
X+2599138Y+1711678D01*
X+2635875Y+1730000D01*
X+2599138Y+1748322D01*
X+2590000Y+1730000D01*
G37*
G36*
X+2710000Y+1760000D02*
X+2714313Y+1743247D01*
X+2752119Y+1752981D01*
X+2719513Y+1774449D01*
X+2710000Y+1760000D01*
G37*
G36*
X+2100823Y+2398135D02*
X+2118653Y+2406835D01*
X+2100823Y+2443375D01*
X+2082993Y+2406835D01*
X+2100823Y+2398135D01*
G37*
G36*
X+2271346Y+436956D02*
X+2254375Y+440313D01*
X+2246799Y+402017D01*
X+2280258Y+422129D01*
X+2271346Y+436956D01*
G37*
G36*
X+2748165Y+1236247D02*
X+2740478Y+1255224D01*
X+2702428Y+1239810D01*
X+2737631Y+1218690D01*
X+2748165Y+1236247D01*
G37*
G36*
X+2540047Y+1225819D02*
X+2520515Y+1219680D01*
X+2532823Y+1180517D01*
X+2556701Y+1213910D01*
X+2540047Y+1225819D01*
G37*
G36*
X+2150823Y+400000D02*
X+2134353Y+405294D01*
X+2122407Y+368129D01*
X+2157963Y+384243D01*
X+2150823Y+400000D01*
G37*
G36*
X+2730000Y+1350000D02*
X+2743120Y+1365718D01*
X+2711605Y+1392025D01*
X+2709551Y+1351024D01*
X+2730000Y+1350000D01*
G37*
G36*
X+2744740Y+1667174D02*
X+2753878Y+1648852D01*
X+2790615Y+1667174D01*
X+2753878Y+1685496D01*
X+2744740Y+1667174D01*
G37*
G36*
X+674332Y+1429095D02*
X+655910Y+1420161D01*
X+673823Y+1383223D01*
X+692551Y+1419754D01*
X+674332Y+1429095D01*
G37*
G36*
X+2070823Y+2338135D02*
X+2200823Y+2338135D01*
X+2200823Y+2246554D01*
X+2192403Y+2246554D01*
X+2192403Y+2228774D01*
X+2189367Y+2228774D01*
X+2188728Y+2228135D01*
X+2160823Y+2228135D01*
X+2160823Y+2200230D01*
X+2158728Y+2198135D01*
X+2030823Y+2198135D01*
X+2030823Y+2368135D01*
X+2070823Y+2338135D01*
G37*
G36*
X+2420823Y+2448135D02*
X+2370823Y+2448135D01*
X+2370823Y+2417811D01*
X+2367595Y+2414620D01*
X+2265694Y+2414620D01*
X+2200823Y+2479491D01*
X+2200823Y+2588135D01*
X+2310823Y+2588135D01*
X+2400823Y+2678135D01*
X+2420823Y+2678135D01*
X+2420823Y+2448135D01*
G37*
G36*
X+1280000Y+1480000D02*
X+1240000Y+1480000D01*
X+1240000Y+1460000D01*
X+1090000Y+1460000D01*
X+1090000Y+1475672D01*
X+1094349Y+1480021D01*
X+1094349Y+1492645D01*
X+1095526Y+1495526D01*
X+1120000Y+1520000D01*
X+1280000Y+1520000D01*
X+1280000Y+1480000D01*
G37*
G36*
X+1370000Y+1340000D02*
X+1007939Y+977939D01*
X+1006001Y+977939D01*
X+972061Y+943999D01*
X+972061Y+942061D01*
X+970000Y+940000D01*
X+950000Y+950000D01*
X+1220000Y+1220000D01*
X+1220000Y+1237347D01*
X+1231452Y+1242061D01*
X+1243999Y+1242061D01*
X+1277939Y+1276001D01*
X+1277939Y+1323999D01*
X+1243999Y+1357939D01*
X+1196001Y+1357939D01*
X+1195000Y+1356938D01*
X+1191938Y+1360000D01*
X+1370000Y+1360000D01*
X+1370000Y+1340000D01*
G37*
G36*
X+3094445Y+3276165D02*
X+3138781Y+3265957D01*
X+3174106Y+3250107D01*
X+3201623Y+3229209D01*
X+3222902Y+3202790D01*
X+3238750Y+3169490D01*
X+3248879Y+3128031D01*
X+3252563Y+3076422D01*
X+3252563Y-50164D01*
X+3248893Y-101831D01*
X+3238839Y-143440D01*
X+3223188Y-176935D01*
X+3202390Y-203430D01*
X+3175892Y-224231D01*
X+3142398Y-239881D01*
X+3100789Y-249935D01*
X+3049122Y-253605D01*
X+1015122Y-253605D01*
X+1015122Y-241564D01*
X+1189722Y-241564D01*
X+1189722Y+37834D01*
X+1015122Y+37834D01*
X+1015122Y+63234D01*
X+786524Y+63234D01*
X+786524Y-253605D01*
X-47476Y-253605D01*
X-99143Y-249935D01*
X-140752Y-239881D01*
X-174246Y-224231D01*
X-200744Y-203430D01*
X-221542Y-176935D01*
X-237193Y-143440D01*
X-247247Y-101831D01*
X-250917Y-50164D01*
X-250917Y+3076434D01*
X-247247Y+3128101D01*
X-237193Y+3169710D01*
X-221542Y+3203205D01*
X-200744Y+3229700D01*
X-174246Y+3250501D01*
X-140752Y+3266151D01*
X-99143Y+3276205D01*
X-47476Y+3279875D01*
X+1201743Y+3279875D01*
X+989931Y+3068063D01*
X+989931Y+3019338D01*
X+987160Y+3010566D01*
X+978981Y+3002387D01*
X+978981Y+2945971D01*
X+1018872Y+2906080D01*
X+1075288Y+2906080D01*
X+1086268Y+2917060D01*
X+1100530Y+2923380D01*
X+1178617Y+2923380D01*
X+1181768Y+2920229D01*
X+1181768Y+2901234D01*
X+912724Y+2901234D01*
X+912724Y+2683144D01*
X+891167Y+2683144D01*
X+874941Y+2666918D01*
X+874941Y+2643970D01*
X+891167Y+2627744D01*
X+905975Y+2627744D01*
X+903904Y+2625673D01*
X+885354Y+2621360D01*
X+864955Y+2621360D01*
X+825064Y+2581469D01*
X+825064Y+2525053D01*
X+829042Y+2521075D01*
X+807415Y+2521075D01*
X+778284Y+2491944D01*
X+749619Y+2520610D01*
X+693203Y+2520610D01*
X+653312Y+2480719D01*
X+653312Y+2424303D01*
X+660901Y+2416714D01*
X+657676Y+2416714D01*
X+622916Y+2451474D01*
X+585912Y+2451474D01*
X+585912Y+2485764D01*
X+255734Y+2485764D01*
X+255734Y+2310506D01*
X+584784Y+2310506D01*
X+584784Y+2279556D01*
X+693349Y+2279556D01*
X+693349Y+2227575D01*
X+617582Y+2151808D01*
X+617582Y+2115728D01*
X+596829Y+2094975D01*
X+560749Y+2094975D01*
X+455224Y+1989450D01*
X+455224Y+1714855D01*
X+541815Y+1628264D01*
X+541815Y+1535259D01*
X+614868Y+1462206D01*
X+865954Y+1462206D01*
X+923926Y+1404234D01*
X+688645Y+1404234D01*
X+702032Y+1417621D01*
X+702032Y+1440569D01*
X+685806Y+1456795D01*
X+662858Y+1456795D01*
X+646632Y+1440569D01*
X+646632Y+1417621D01*
X+660019Y+1404234D01*
X+473724Y+1404234D01*
X+473724Y+1176036D01*
X+649729Y+1176036D01*
X+611901Y+1138208D01*
X+611901Y+1108099D01*
X+591792Y+1108099D01*
X+551901Y+1068208D01*
X+551901Y+1011792D01*
X+591792Y+971901D01*
X+648208Y+971901D01*
X+659090Y+982783D01*
X+673099Y+988925D01*
X+916179Y+988021D01*
X+895691Y+967533D01*
X+904021Y+916194D01*
X+961950Y+887230D01*
X+965833Y+887860D01*
X+991459Y+862234D01*
X+473724Y+862234D01*
X+473724Y+634036D01*
X+512441Y+634036D01*
X+682724Y+463753D01*
X+682724Y+409927D01*
X+722615Y+370036D01*
X+779031Y+370036D01*
X+790011Y+381016D01*
X+804273Y+387336D01*
X+1039782Y+387336D01*
X+1247917Y+179201D01*
X+2204788Y+179201D01*
X+2297247Y+266686D01*
X+2311815Y+271901D01*
X+2328208Y+271901D01*
X+2368099Y+311792D01*
X+2368099Y+368208D01*
X+2333502Y+402805D01*
X+2339445Y+408748D01*
X+2339445Y+465164D01*
X+2299554Y+505055D01*
X+2243138Y+505055D01*
X+2203247Y+465164D01*
X+2203247Y+443883D01*
X+2179031Y+468099D01*
X+2122615Y+468099D01*
X+2082724Y+428208D01*
X+2082724Y+410675D01*
X+2079550Y+400799D01*
X+1948437Y+400799D01*
X+1948437Y+461707D01*
X+1963006Y+476276D01*
X+2075099Y+476276D01*
X+2300564Y+701741D01*
X+2606181Y+701741D01*
X+2452564Y+548124D01*
X+2452564Y+37834D01*
X+2411924Y+37834D01*
X+2411924Y-241564D01*
X+2589722Y-241564D01*
X+2589722Y+37834D01*
X+2549082Y+37834D01*
X+2549082Y+508146D01*
X+2789629Y+748693D01*
X+2806759Y+754588D01*
X+2823583Y+754588D01*
X+2863474Y+794479D01*
X+2863474Y+850895D01*
X+2823583Y+890786D01*
X+2767167Y+890786D01*
X+2749082Y+872701D01*
X+2749082Y+932096D01*
X+2769402Y+932096D01*
X+2769402Y+947336D01*
X+2771864Y+947336D01*
X+2898504Y+1073976D01*
X+2898504Y+1090986D01*
X+2911124Y+1090986D01*
X+2911124Y+1059236D01*
X+3190522Y+1059236D01*
X+3190522Y+1233836D01*
X+3215922Y+1233836D01*
X+3215922Y+1462434D01*
X+3190522Y+1462434D01*
X+3190522Y+1637034D01*
X+2988600Y+1637034D01*
X+2986776Y+1637953D01*
X+2965493Y+1659236D01*
X+3190522Y+1659236D01*
X+3190522Y+1837034D01*
X+2911124Y+1837034D01*
X+2911124Y+1801560D01*
X+2844534Y+1801201D01*
X+2914434Y+1871101D01*
X+3189699Y+1871101D01*
X+3189699Y+2048899D01*
X+2962263Y+2048899D01*
X+2962263Y+2061101D01*
X+3189699Y+2061101D01*
X+3189699Y+2238899D01*
X+2910301Y+2238899D01*
X+2910301Y+2150931D01*
X+2865745Y+2106375D01*
X+2865745Y+2044083D01*
X+2743056Y+1921394D01*
X+2491665Y+1921394D01*
X+2519322Y+1949051D01*
X+2519322Y+1988954D01*
X+2571534Y+1988954D01*
X+2603136Y+2020556D01*
X+2631792Y+1991901D01*
X+2688208Y+1991901D01*
X+2728099Y+2031792D01*
X+2728099Y+2051901D01*
X+2758208Y+2051901D01*
X+2798099Y+2091792D01*
X+2798099Y+2148208D01*
X+2786205Y+2160102D01*
X+2778259Y+2176386D01*
X+2778259Y+2318329D01*
X+2569082Y+2553969D01*
X+2569082Y+2629056D01*
X+2757151Y+2440987D01*
X+2885724Y+2440987D01*
X+2885724Y+2383836D01*
X+2910301Y+2383836D01*
X+2910301Y+2241101D01*
X+3189699Y+2241101D01*
X+3189699Y+2383836D01*
X+3215922Y+2383836D01*
X+3215922Y+2612434D01*
X+2885724Y+2612434D01*
X+2885724Y+2555283D01*
X+2804495Y+2555283D01*
X+2657149Y+2702629D01*
X+2657149Y+2923672D01*
X+2300946Y+3279875D01*
X+3039212Y+3279875D01*
X+3094445Y+3276165D01*
G37*
%LPC*%
G36*
X+828922Y+2915036D02*
X+572724Y+2915036D01*
X+572724Y+3181234D01*
X+828922Y+3181234D01*
X+828922Y+2915036D01*
G37*
G36*
X-237276Y-100489D02*
X-237276Y+96759D01*
X-97801Y+236234D01*
X+99447Y+236234D01*
X+238922Y+96759D01*
X+238922Y-100489D01*
X+99447Y-239964D01*
X-97801Y-239964D01*
X-237276Y-100489D01*
G37*
G36*
X-237276Y+2899511D02*
X-237276Y+3096759D01*
X-97801Y+3236234D01*
X+99447Y+3236234D01*
X+238922Y+3096759D01*
X+238922Y+2899511D01*
X+99447Y+2760036D01*
X-97801Y+2760036D01*
X-237276Y+2899511D01*
G37*
G36*
X+2762724Y+2899511D02*
X+2762724Y+3096759D01*
X+2902199Y+3236234D01*
X+3099447Y+3236234D01*
X+3238922Y+3096759D01*
X+3238922Y+2899511D01*
X+3099447Y+2760036D01*
X+2902199Y+2760036D01*
X+2762724Y+2899511D01*
G37*
G36*
X+2762724Y-100489D02*
X+2762724Y+96759D01*
X+2902199Y+236234D01*
X+3099447Y+236234D01*
X+3238922Y+96759D01*
X+3238922Y-100489D01*
X+3099447Y-239964D01*
X+2902199Y-239964D01*
X+2762724Y-100489D01*
G37*
G36*
X+1411924Y+37834D02*
X+1589722Y+37834D01*
X+1589722Y-241564D01*
X+1411924Y-241564D01*
X+1411924Y+37834D01*
G37*
G36*
X+1611924Y+37834D02*
X+1789722Y+37834D01*
X+1789722Y-241564D01*
X+1611924Y-241564D01*
X+1611924Y+37834D01*
G37*
G36*
X+1811924Y+37834D02*
X+1989722Y+37834D01*
X+1989722Y-241564D01*
X+1811924Y-241564D01*
X+1811924Y+37834D01*
G37*
G36*
X+2011924Y+37834D02*
X+2189722Y+37834D01*
X+2189722Y-241564D01*
X+2011924Y-241564D01*
X+2011924Y+37834D01*
G37*
G36*
X+2211924Y+37834D02*
X+2389722Y+37834D01*
X+2389722Y-241564D01*
X+2211924Y-241564D01*
X+2211924Y+37834D01*
G37*
G36*
X+165922Y+1683836D02*
X+165922Y+483836D01*
X+140522Y+483836D01*
X+140522Y+309236D01*
X-138876Y+309236D01*
X-138876Y+483836D01*
X-164276Y+483836D01*
X-164276Y+1912434D01*
X+165922Y+1912434D01*
X+165922Y+1683836D01*
G37*
G36*
X+2911124Y+359236D02*
X+2911124Y+537034D01*
X+3190522Y+537034D01*
X+3190522Y+359236D01*
X+2911124Y+359236D01*
G37*
G36*
X+2911124Y+559236D02*
X+2911124Y+737034D01*
X+3190522Y+737034D01*
X+3190522Y+559236D01*
X+2911124Y+559236D01*
G37*
G36*
X+518099Y+2878208D02*
X+518099Y+2821792D01*
X+513021Y+2816714D01*
X+516862Y+2816714D01*
X+516862Y+2786609D01*
X+546184Y+2757287D01*
X+546184Y+2685764D01*
X+585912Y+2685764D01*
X+585912Y+2510506D01*
X+255734Y+2510506D01*
X+255734Y+2685764D01*
X+284784Y+2685764D01*
X+284784Y+2816714D01*
X+300025Y+2816714D01*
X+300025Y+2830734D01*
X+368650Y+2900799D01*
X+396550Y+2900799D01*
X+410812Y+2907119D01*
X+421792Y+2918099D01*
X+478208Y+2918099D01*
X+518099Y+2878208D01*
G37*
G36*
X+1389722Y-241564D02*
X+1211924Y-241564D01*
X+1211924Y+37834D01*
X+1389722Y+37834D01*
X+1389722Y-241564D01*
G37*
G36*
X+2911124Y+849236D02*
X+2911124Y+1027034D01*
X+3190522Y+1027034D01*
X+3190522Y+849236D01*
X+2911124Y+849236D01*
G37*
G36*
X+535309Y+2795410D02*
X+535309Y+2818358D01*
X+551535Y+2834584D01*
X+574483Y+2834584D01*
X+590709Y+2818358D01*
X+590709Y+2795410D01*
X+574483Y+2779184D01*
X+551535Y+2779184D01*
X+535309Y+2795410D01*
G37*
%LPD*%
G36*
X+563009Y+2806884D02*
X+579149Y+2800657D01*
X+593202Y+2837077D01*
X+556782Y+2823024D01*
X+563009Y+2806884D01*
G37*
G36*
X+450000Y+2850000D02*
X+442991Y+2865816D01*
X+407300Y+2850000D01*
X+442991Y+2834184D01*
X+450000Y+2850000D01*
G37*
G36*
X+2452787Y+2966394D02*
X+2240338Y+2966394D01*
X+2220407Y+2956739D01*
X+2117445Y+2826394D01*
X+2089057Y+2826394D01*
X+2117949Y+2855286D01*
X+2117949Y+2944714D01*
X+2062663Y+3000000D01*
X+2117949Y+3055286D01*
X+2117949Y+3144714D01*
X+2054714Y+3207949D01*
X+2010100Y+3207949D01*
X+1969205Y+3208145D01*
X+1964499Y+3212851D01*
X+2206330Y+3212851D01*
X+2452787Y+2966394D01*
G37*
G36*
X+930341Y+2652110D02*
X+930341Y+2666918D01*
X+922223Y+2675036D01*
X+953267Y+2675036D01*
X+930341Y+2652110D01*
G37*
G36*
X+1549067Y+2626900D02*
X+1549067Y+2605859D01*
X+1575024Y+2579902D01*
X+1575024Y+2548099D01*
X+1531792Y+2548099D01*
X+1491901Y+2508208D01*
X+1491901Y+2485386D01*
X+1471460Y+2485386D01*
X+1455234Y+2469160D01*
X+1455234Y+2466714D01*
X+1441883Y+2466714D01*
X+1441883Y+2629556D01*
X+1549067Y+2629556D01*
X+1549067Y+2626900D01*
G37*
G36*
X+1525024Y+2417286D02*
X+1525024Y+2384234D01*
X+1519402Y+2384234D01*
X+1519402Y+2423453D01*
X+1525024Y+2417286D01*
G37*
G36*
X+1346635Y+2503097D02*
X+1313199Y+2469661D01*
X+1313199Y+2466714D01*
X+1292244Y+2466714D01*
X+1292244Y+2329556D01*
X+1310024Y+2329556D01*
X+1310024Y+2328601D01*
X+1368324Y+2270301D01*
X+1372724Y+2257687D01*
X+1372724Y+2176234D01*
X+1164724Y+2176234D01*
X+1164724Y+2176099D01*
X+1098893Y+2241930D01*
X+1065669Y+2241930D01*
X+1051407Y+2248250D01*
X+1040427Y+2259230D01*
X+984011Y+2259230D01*
X+944120Y+2219339D01*
X+944120Y+2162923D01*
X+982724Y+2124319D01*
X+982724Y+2070898D01*
X+979684Y+2070898D01*
X+939793Y+2031007D01*
X+939793Y+2029034D01*
X+892202Y+2029034D01*
X+892202Y+2129814D01*
X+739268Y+2129814D01*
X+794947Y+2185493D01*
X+794947Y+2224837D01*
X+810036Y+2209748D01*
X+832984Y+2209748D01*
X+849210Y+2225974D01*
X+849210Y+2248922D01*
X+832984Y+2265148D01*
X+810036Y+2265148D01*
X+794947Y+2250059D01*
X+794947Y+2279556D01*
X+816862Y+2279556D01*
X+816862Y+2308703D01*
X+822133Y+2308703D01*
X+855038Y+2341608D01*
X+928440Y+2341608D01*
X+1073982Y+2487150D01*
X+1204501Y+2487151D01*
X+1346635Y+2629285D01*
X+1346635Y+2503097D01*
G37*
G36*
X+2413794Y+2314859D02*
X+2486177Y+2242476D01*
X+2486177Y+2102212D01*
X+2483406Y+2093440D01*
X+2478254Y+2088288D01*
X+2449907Y+2116634D01*
X+2351739Y+2116634D01*
X+2319402Y+2084297D01*
X+2319402Y+2166714D01*
X+2319401Y+2166714D01*
X+2319401Y+2256714D01*
X+2304740Y+2256714D01*
X+2304740Y+2307390D01*
X+2315452Y+2318102D01*
X+2407556Y+2318102D01*
X+2413794Y+2314859D01*
G37*
%LPC*%
G36*
X+2386647Y+2188557D02*
X+2386647Y+2211505D01*
X+2402873Y+2227731D01*
X+2425821Y+2227731D01*
X+2442047Y+2211505D01*
X+2442047Y+2188557D01*
X+2425821Y+2172331D01*
X+2402873Y+2172331D01*
X+2386647Y+2188557D01*
G37*
%LPD*%
G36*
X+2414347Y+2200031D02*
X+2400805Y+2205901D01*
X+2385950Y+2171634D01*
X+2420217Y+2186489D01*
X+2414347Y+2200031D01*
G37*
G36*
X+1777539Y+2127831D02*
X+1769593Y+2111547D01*
X+1757699Y+2099653D01*
X+1757699Y+2043237D01*
X+1769799Y+2031137D01*
X+1597462Y+2031137D01*
X+1474082Y+2154517D01*
X+1474082Y+2160036D01*
X+1777539Y+2160036D01*
X+1777539Y+2127831D01*
G37*
G36*
X+2012724Y+1970036D02*
X+2012724Y+1923934D01*
X+1968922Y+1923934D01*
X+1968922Y+1926343D01*
X+1929031Y+1966234D01*
X+1903062Y+1966234D01*
X+2011662Y+2074834D01*
X+2012724Y+2074834D01*
X+2012724Y+1970036D01*
G37*
G36*
X+976782Y+1937602D02*
X+955718Y+1916537D01*
X+948522Y+1916537D01*
X+948522Y+1965862D01*
X+976782Y+1937602D01*
G37*
G36*
X+1391699Y+2100404D02*
X+1529214Y+1962888D01*
X+1529214Y+1907462D01*
X+1482603Y+1860851D01*
X+1482603Y+1880598D01*
X+1466377Y+1896824D01*
X+1443429Y+1896824D01*
X+1427203Y+1880598D01*
X+1427203Y+1857650D01*
X+1443429Y+1841424D01*
X+1463176Y+1841424D01*
X+1393146Y+1771394D01*
X+1388922Y+1771394D01*
X+1388922Y+2103181D01*
X+1391699Y+2100404D01*
G37*
G36*
X+1164724Y+1820036D02*
X+1164724Y+1723634D01*
X+1098338Y+1723634D01*
X+1098338Y+1741951D01*
X+1058447Y+1781842D01*
X+1028596Y+1781842D01*
X+1071630Y+1824876D01*
X+1164724Y+1824876D01*
X+1164724Y+1820036D01*
G37*
G36*
X+616324Y+1697435D02*
X+559863Y+1753896D01*
X+616324Y+1753896D01*
X+616324Y+1697435D01*
G37*
G36*
X+2521901Y+1758208D02*
X+2521901Y+1716599D01*
X+2416901Y+1716599D01*
X+2416901Y+1702489D01*
X+2325138Y+1702489D01*
X+2291228Y+1668579D01*
X+2236922Y+1668579D01*
X+2236922Y+1774876D01*
X+2538569Y+1774876D01*
X+2521901Y+1758208D01*
G37*
%LPC*%
G36*
X+2272300Y+1708526D02*
X+2272300Y+1731474D01*
X+2288526Y+1747700D01*
X+2311474Y+1747700D01*
X+2327700Y+1731474D01*
X+2327700Y+1708526D01*
X+2311474Y+1692300D01*
X+2288526Y+1692300D01*
X+2272300Y+1708526D01*
G37*
%LPD*%
G36*
X+665044Y+1593126D02*
X+657276Y+1585358D01*
X+657276Y+1563804D01*
X+656950Y+1563804D01*
X+643413Y+1577341D01*
X+643413Y+1646836D01*
X+665044Y+1646836D01*
X+665044Y+1593126D01*
G37*
G36*
X+2562376Y+1522588D02*
X+2549591Y+1509163D01*
X+2477599Y+1509163D01*
X+2477599Y+1538796D01*
X+2487302Y+1529093D01*
X+2510250Y+1529093D01*
X+2526476Y+1545319D01*
X+2526476Y+1568267D01*
X+2510250Y+1584493D01*
X+2487302Y+1584493D01*
X+2477599Y+1574790D01*
X+2477599Y+1595401D01*
X+2562376Y+1595401D01*
X+2562376Y+1522588D01*
G37*
G36*
X+1021792Y+1321901D02*
X+1067530Y+1321901D01*
X+1067528Y+1321895D01*
X+1052406Y+1301558D01*
X+1000922Y+1250074D01*
X+1000922Y+1342771D01*
X+1021792Y+1321901D01*
G37*
G36*
X+2420887Y+1273077D02*
X+2439681Y+1264529D01*
X+2448198Y+1264529D01*
X+2464969Y+1256165D01*
X+2471948Y+1249186D01*
X+2471948Y+1197611D01*
X+2478325Y+1191234D01*
X+2414939Y+1191234D01*
X+2414939Y+1279899D01*
X+2420887Y+1273077D01*
G37*
G36*
X+2347224Y+1166714D02*
X+2331727Y+1166714D01*
X+2331727Y+1185093D01*
X+2347224Y+1185093D01*
X+2347224Y+1166714D01*
G37*
G36*
X+2211421Y+1441421D02*
X+2211901Y+1441421D01*
X+2211901Y+1391792D01*
X+2251792Y+1351901D01*
X+2277781Y+1351901D01*
X+2277781Y+1188167D01*
X+2276327Y+1186713D01*
X+2276327Y+1166714D01*
X+2273653Y+1166714D01*
X+2273653Y+1218131D01*
X+2228359Y+1268991D01*
X+2159472Y+1337878D01*
X+2119402Y+1337878D01*
X+2119402Y+1366714D01*
X+2104162Y+1366714D01*
X+2104162Y+1371228D01*
X+2028922Y+1446468D01*
X+2028922Y+1520036D01*
X+2211421Y+1520036D01*
X+2211421Y+1441421D01*
G37*
G36*
X+910426Y+1159578D02*
X+733504Y+1160610D01*
X+719322Y+1166985D01*
X+710271Y+1176036D01*
X+926884Y+1176036D01*
X+910426Y+1159578D01*
G37*
G36*
X+1892244Y+1229556D02*
X+1942401Y+1229556D01*
X+1951838Y+1220119D01*
X+1952768Y+1220119D01*
X+1892376Y+1159727D01*
X+1892376Y+1116798D01*
X+1881474Y+1127700D01*
X+1869402Y+1127700D01*
X+1869402Y+1264174D01*
X+1852072Y+1264174D01*
X+1852072Y+1274125D01*
X+1823447Y+1302750D01*
X+1823447Y+1312036D01*
X+1892244Y+1312036D01*
X+1892244Y+1229556D01*
G37*
G36*
X+1671597Y+1159015D02*
X+1728013Y+1159015D01*
X+1732244Y+1163246D01*
X+1732244Y+1042876D01*
X+1578838Y+1042876D01*
X+1609788Y+1070799D01*
X+1618259Y+1089664D01*
X+1618259Y+1148243D01*
X+1649195Y+1181417D01*
X+1671597Y+1159015D01*
G37*
%LPC*%
G36*
X+1657928Y+1084350D02*
X+1657928Y+1107298D01*
X+1674154Y+1123524D01*
X+1697102Y+1123524D01*
X+1713328Y+1107298D01*
X+1713328Y+1084350D01*
X+1697102Y+1068124D01*
X+1674154Y+1068124D01*
X+1657928Y+1084350D01*
G37*
%LPD*%
G36*
X+1685628Y+1095824D02*
X+1694766Y+1077502D01*
X+1731503Y+1095824D01*
X+1694766Y+1114146D01*
X+1685628Y+1095824D01*
G37*
G36*
X+1685628Y+1095824D02*
X+1669072Y+1107869D01*
X+1644919Y+1074674D01*
X+1685965Y+1075352D01*
X+1685628Y+1095824D01*
G37*
G36*
X+2435148Y+1058995D02*
X+2462909Y+1031234D01*
X+2369402Y+1031234D01*
X+2369402Y+1065036D01*
X+2429107Y+1065036D01*
X+2435148Y+1058995D01*
G37*
G36*
X+1411901Y+991792D02*
X+1451792Y+951901D01*
X+1496470Y+951901D01*
X+1496470Y+892704D01*
X+1481474Y+907700D01*
X+1458526Y+907700D01*
X+1442300Y+891474D01*
X+1442300Y+868526D01*
X+1458526Y+852300D01*
X+1481474Y+852300D01*
X+1496470Y+867296D01*
X+1496470Y+844401D01*
X+1452005Y+844401D01*
X+1435288Y+861118D01*
X+1435288Y+921408D01*
X+1388608Y+968088D01*
X+1388608Y+1032820D01*
X+1411901Y+1032820D01*
X+1411901Y+991792D01*
G37*
G36*
X+2159069Y+1203581D02*
X+2178405Y+1181869D01*
X+2178405Y+1011427D01*
X+2229320Y+960512D01*
X+2232244Y+960512D01*
X+2232244Y+939556D01*
X+2302052Y+939556D01*
X+2325471Y+916137D01*
X+2347224Y+916137D01*
X+2347224Y+905036D01*
X+2355199Y+905036D01*
X+2355199Y+798259D01*
X+2260586Y+798259D01*
X+2180152Y+717825D01*
X+2180152Y+990624D01*
X+2004894Y+990624D01*
X+2004894Y+872325D01*
X+1990949Y+886270D01*
X+1951497Y+886270D01*
X+1949628Y+884401D01*
X+1948668Y+884401D01*
X+1948668Y+964876D01*
X+1888018Y+964876D01*
X+1987624Y+1064482D01*
X+1987624Y+1120275D01*
X+1997976Y+1130627D01*
X+2017977Y+1130627D01*
X+2097624Y+1210274D01*
X+2097624Y+1229556D01*
X+2119402Y+1229556D01*
X+2119402Y+1242630D01*
X+2120020Y+1242630D01*
X+2159069Y+1203581D01*
G37*
G36*
X+1156530Y+598934D02*
X+795976Y+598934D01*
X+760874Y+634036D01*
X+1000922Y+634036D01*
X+1000922Y+684636D01*
X+1124427Y+684636D01*
X+1156530Y+716738D01*
X+1156530Y+598934D01*
G37*
G36*
X+1287131Y+524033D02*
X+1287131Y+524034D01*
X+1301026Y+511108D01*
X+1618259Y+511108D01*
X+1618259Y+477972D01*
X+1610316Y+477972D01*
X+1594090Y+461746D01*
X+1594090Y+438798D01*
X+1610316Y+422572D01*
X+1618259Y+422572D01*
X+1618259Y+400799D01*
X+1369999Y+400799D01*
X+1172600Y+598198D01*
X+1207403Y+598198D01*
X+1287131Y+524033D01*
G37*
D10*
X+1222569Y+816777D02*
X+1222569Y+966777D01*
D11*
X+1572569Y+796777D02*
X+1432279Y+796777D01*
X+1431182Y+797874D01*
X+1387664Y+841392D01*
X+1387664Y+871128D01*
X+1387664Y+901682D01*
X+1322569Y+966777D01*
D10*
X+733623Y+1616735D02*
X+733623Y+1720478D01*
X+729024Y+1725077D01*
X+704423Y+1729935D01*
X+733623Y+2061235D02*
X+733623Y+1976569D01*
X+734251Y+1975941D01*
X+704423Y+1945935D01*
D12*
X+581223Y+1919935D02*
X+589146Y+1927858D01*
X+654423Y+1927858D01*
X+704423Y+1945935D01*
D13*
X+704423Y+1928418D01*
X+764563Y+1868278D01*
X+975707Y+1868278D01*
X+1031106Y+1923677D01*
X+1252181Y+1923677D01*
X+1254323Y+1921535D01*
X+1276823Y+1923135D01*
X+1276823Y+1873135D02*
X+1051641Y+1873135D01*
X+994521Y+1816015D01*
X+923442Y+1816015D01*
X+882362Y+1774935D01*
X+860423Y+1729935D01*
X+581223Y+1819935D02*
X+784423Y+1819935D01*
X+827278Y+1777080D01*
X+827278Y+1760616D01*
X+860423Y+1729935D01*
D14*
X+1624902Y+994637D02*
X+1626731Y+992808D01*
X+1624902Y+981371D01*
D11*
X+1872569Y+836777D02*
X+1969354Y+836777D01*
X+1971223Y+838646D01*
X+2067123Y+742746D01*
X+2067123Y+740435D01*
X+2092523Y+745535D01*
X+1572569Y+756777D02*
X+1376596Y+756777D01*
X+1347076Y+786297D01*
X+1322569Y+816777D01*
D12*
X+1047080Y+2974179D02*
X+1196666Y+2974179D01*
X+1198162Y+2975675D01*
X+1232567Y+2941270D01*
X+1232567Y+2936782D01*
X+1232567Y+2789879D01*
X+1230823Y+2788135D01*
D10*
X+2050823Y+1298135D02*
X+2050823Y+1349135D01*
X+1975823Y+1424135D01*
D12*
X+2124823Y+2073135D02*
X+2225823Y+2073135D01*
X+2250823Y+2098135D01*
X+2250822Y+2188135D02*
X+2206200Y+2188135D01*
X+2156200Y+2138135D01*
X+2124823Y+2123135D01*
X+2124823Y+1873135D02*
X+1925823Y+1873135D01*
X+1900823Y+1898135D01*
D10*
X+1222569Y+680021D02*
X+1222569Y+816777D01*
D15*
X+927823Y+1290135D02*
X+800823Y+1290135D01*
X+673823Y+1290135D01*
X+546823Y+1290135D01*
D13*
X+2402823Y+1081141D02*
X+2402823Y+1128135D01*
D12*
X+1925823Y+1424135D02*
X+1925823Y+1333135D01*
X+1960823Y+1298135D01*
D11*
X+2300823Y+1008135D02*
X+2345197Y+963761D01*
X+2385323Y+963761D01*
X+2402823Y+968135D01*
D13*
X+2468823Y+968135D02*
X+2468823Y+1015141D01*
X+2443326Y+1040638D01*
X+2402823Y+1081141D01*
D11*
X+1775823Y+1424135D02*
X+1775823Y+1283024D01*
X+1804449Y+1254398D01*
X+1804449Y+1201761D01*
X+1800823Y+1198135D01*
X+1624902Y+994637D02*
X+1624902Y+981371D01*
X+1622569Y+966777D01*
X+3050000Y+2330000D02*
X+3047915Y+2330000D01*
D13*
X+1908769Y+2040189D02*
X+1991673Y+2123093D01*
X+2094820Y+2123093D01*
X+2099655Y+2118258D01*
X+2124823Y+2123135D01*
D11*
X+902641Y+2655444D02*
X+976170Y+2728973D01*
X+976170Y+2744112D01*
X+970823Y+2788135D01*
D13*
X+893163Y+2553261D02*
X+899740Y+2553261D01*
X+990160Y+2643681D01*
X+1065784Y+2643681D01*
X+1100309Y+2678206D01*
X+1100309Y+2747621D01*
X+1100823Y+2748135D01*
X+1100823Y+2788135D01*
D11*
X+2402823Y+1128135D02*
X+2400823Y+1130135D01*
D13*
X+1425823Y+2272135D02*
X+1425823Y+2134528D01*
X+1463044Y+2097307D01*
X+1577473Y+1982878D01*
X+1608095Y+1982878D01*
X+1851458Y+1982878D01*
X+1908769Y+2040189D01*
D11*
X+2400823Y+1130135D02*
X+2346360Y+1130135D01*
X+2346360Y+1132906D01*
X+2346360Y+1253672D02*
X+2346360Y+1132906D01*
X+2400823Y+1130135D02*
X+2398052Y+1132906D01*
X+2346360Y+1132906D01*
D12*
X+1625823Y+2272135D02*
X+1625823Y+2600943D01*
X+1599866Y+2626900D01*
X+1599866Y+2697178D01*
X+1600823Y+2698135D01*
X+1475823Y+2272135D02*
X+1475823Y+2373135D01*
X+1450823Y+2398135D01*
D11*
X+2468823Y+1128135D02*
X+2468823Y+1092670D01*
X+2491795Y+1069698D01*
X+2650650Y+1069698D01*
X+2670343Y+1089391D01*
X+2700823Y+1098135D01*
X+1622569Y+966777D02*
X+1622569Y+1003599D01*
X+1624902Y+1001266D01*
X+1624902Y+994637D01*
X+1622569Y+1003599D02*
X+1622569Y+1052324D01*
X+1623041Y+1052796D01*
X+1666069Y+1095824D01*
X+1685628Y+1095824D01*
X+1798512Y+1095824D01*
X+1800823Y+1098135D01*
D12*
X+970823Y+2788135D02*
X+910823Y+2848135D01*
X+604260Y+2848135D01*
X+563009Y+2806884D01*
X+2124823Y+1823135D02*
X+1810477Y+1823135D01*
X+1806531Y+1819189D01*
D13*
X+1276823Y+1673135D02*
X+1242206Y+1669910D01*
X+1236741Y+1675375D01*
X+1058376Y+1675375D01*
X+1030239Y+1703512D01*
X+1030239Y+1713743D01*
D10*
X+1222569Y+680021D02*
X+1222569Y+677884D01*
X+1222569Y+666777D01*
D12*
X+2124823Y+2023135D02*
X+2286878Y+2023135D01*
X+2313126Y+1996887D01*
X+2399575Y+1996887D01*
X+2400823Y+1998135D01*
X+2150823Y+2648135D02*
X+2150823Y+2548135D01*
X+1276823Y+1973135D02*
X+1037556Y+1973135D01*
X+1007892Y+2002799D01*
X+1276823Y+2023135D02*
X+1125823Y+2023135D01*
X+1050823Y+2098135D01*
D15*
X+340823Y+2398135D02*
X+340823Y+2543370D01*
X+335588Y+2548605D01*
X+340823Y+2598135D01*
D12*
X+450823Y+2748135D02*
X+483496Y+2748135D01*
X+495385Y+2736246D01*
X+495385Y+2638345D01*
X+489946Y+2632906D01*
X+500823Y+2598135D01*
D10*
X+500823Y+2398135D02*
X+600823Y+2398135D01*
X+650823Y+2348135D01*
D14*
X+1604774Y+447008D02*
X+1612569Y+448009D01*
D12*
X+1360823Y+2388135D02*
X+1360823Y+2349642D01*
X+1376864Y+2333601D01*
X+1409304Y+2301161D01*
X+1410823Y+2301161D01*
X+1425823Y+2272135D01*
D13*
X+1475823Y+1424135D02*
X+1475823Y+1303134D01*
X+1322569Y+1149880D01*
X+1322569Y+966777D01*
D12*
X+2150823Y+2548135D02*
X+2150823Y+2472019D01*
X+2251401Y+2371441D01*
D10*
X+2251401Y+2188714D01*
X+2250822Y+2188135D01*
D16*
X+2543326Y+2057053D02*
X+2543326Y+2266147D01*
X+2422271Y+2387202D01*
D12*
X+2350823Y+2778135D02*
X+2350823Y+2719544D01*
X+2279003Y+2647724D01*
X+2151234Y+2647724D01*
X+2150823Y+2648135D01*
D10*
X+2250823Y+2098135D02*
X+2312451Y+2098135D01*
X+2414347Y+2200031D01*
D12*
X+1725823Y+2272135D02*
X+1725823Y+2479421D01*
X+1792876Y+2546474D01*
X+1871087Y+2546474D01*
X+1979093Y+2654480D01*
X+2041165Y+2654480D01*
X+2042407Y+2653238D01*
X+2050823Y+2648135D01*
X+1675823Y+2272135D02*
X+1675823Y+2497700D01*
X+1774255Y+2596132D01*
X+1851225Y+2596132D01*
X+1881019Y+2625926D01*
X+1977851Y+2722758D01*
X+2057304Y+2722758D01*
X+2195446Y+2722758D01*
X+2250823Y+2778135D01*
D13*
X+1525823Y+1424135D02*
X+1525823Y+1283518D01*
X+1392070Y+1149765D01*
X+1392070Y+1102548D01*
X+1390441Y+1100919D01*
X+1322057Y+819241D02*
X+1322569Y+816777D01*
D11*
X+1572569Y+716777D02*
X+1357665Y+716777D01*
X+1320823Y+688135D01*
X+1322569Y+666777D01*
X+1872569Y+796777D02*
X+1946848Y+796777D01*
X+1978977Y+764648D01*
X+2001360Y+742265D01*
X+2001360Y+643974D01*
X+2033474Y+611860D01*
X+2033474Y+609913D01*
X+2280000Y+1600000D02*
X+2289997Y+1599998D01*
X+2344864Y+1654865D01*
X+2468498Y+1654865D01*
X+2469627Y+1653736D01*
X+2470000Y+1647865D01*
X+2470000Y+1656000D01*
X+2417000Y+1553000D02*
X+2376984Y+1553000D01*
X+2350000Y+1526016D01*
X+2350000Y+1347312D01*
X+2346360Y+1343672D01*
X+2417000Y+1603000D02*
X+2460362Y+1603000D01*
X+2481600Y+1581762D01*
X+2481600Y+1560000D01*
X+2260000Y+2330000D02*
X+2295903Y+2365903D01*
X+2295903Y+2371441D01*
D10*
X+2422271Y+2387202D02*
X+2406510Y+2371441D01*
X+2295903Y+2371441D01*
X+2251401Y+2371441D01*
D11*
X+2255591Y+2344190D02*
X+2275758Y+2364357D01*
X+2281256Y+2364357D01*
D13*
X+1222569Y+666777D02*
X+1222569Y+650000D01*
X+1320000Y+559367D01*
X+1753115Y+559367D01*
X+1797843Y+514639D01*
X+1863348Y+452409D01*
D11*
X+1612569Y+450272D02*
X+1603348Y+452409D01*
X+1621790Y+441051D02*
X+1621803Y+449194D01*
X+1614575Y+448266D01*
X+1621790Y+441051D01*
X+1621790Y+450272D01*
X+1614053Y+448788D01*
X+1612569Y+450272D01*
D14*
X+1612569Y+448009D01*
D11*
X+1614575Y+448266D01*
X+1614053Y+448788D01*
X+1604774Y+447008D01*
X+1603348Y+452409D01*
X+2417000Y+1453000D02*
X+2417000Y+1350000D01*
X+2450000Y+1312153D01*
X+2505288Y+1312153D01*
X+2280000Y+1420000D02*
X+2276906Y+1426386D01*
X+2276906Y+1499632D01*
X+2282132Y+1504858D01*
X+2280000Y+1510000D01*
D13*
X+1276823Y+1723135D02*
X+1413135Y+1723135D01*
X+1577473Y+1887473D01*
X+1577473Y+1982878D01*
X+835623Y+2452976D02*
X+884943Y+2452976D01*
X+1018108Y+2586141D01*
X+1088800Y+2586141D01*
X+1167713Y+2665054D01*
X+1167713Y+2743966D01*
X+1166069Y+2745610D01*
X+1165823Y+2788135D01*
D16*
X+3050823Y+1148135D02*
X+2849570Y+1148135D01*
X+2847705Y+1150000D01*
D12*
X+2700823Y+998135D02*
X+2750823Y+998135D01*
X+2847705Y+1095017D01*
X+2847705Y+1150000D01*
D11*
X+1975823Y+2272135D02*
X+1975823Y+2447735D01*
X+1992160Y+2464072D01*
X+1980000Y+2480000D01*
D12*
X+1725823Y+1424135D02*
X+1725823Y+1545894D01*
X+1703926Y+1567791D01*
X+750823Y+438135D02*
X+1060823Y+438135D01*
X+1268958Y+230000D01*
X+2184472Y+230000D01*
X+2300000Y+340000D01*
D13*
X+1603348Y+452409D02*
X+1337590Y+452409D01*
X+1179999Y+610000D01*
X+838958Y+610000D01*
X+800823Y+648135D01*
X+800823Y+748135D01*
D11*
X+1703348Y+452409D02*
X+1701211Y+450272D01*
X+1621790Y+450272D01*
D13*
X+2124823Y+1823135D02*
X+2798220Y+1823135D01*
X+2851711Y+1876626D01*
X+2930530Y+1955445D01*
X+2948400Y+1955445D01*
X+3050000Y+1960000D01*
X+2124823Y+1873135D02*
X+2763045Y+1873135D01*
X+2827557Y+1937647D01*
X+2914004Y+2024094D01*
X+2914004Y+2086386D01*
X+2964855Y+2137237D01*
X+2966126Y+2137237D01*
X+3050000Y+2150000D01*
D11*
X+2532823Y+968135D02*
X+2532823Y+1019470D01*
X+2543353Y+1030000D01*
X+2651960Y+1030000D01*
X+2670343Y+1011617D01*
X+2700823Y+998135D01*
X+2598823Y+968135D02*
X+2598823Y+866441D01*
X+2578067Y+845685D01*
X+2580000Y+840000D01*
X+2468823Y+968135D02*
X+2468823Y+866033D01*
X+2486582Y+848274D01*
X+2480000Y+840000D01*
X+1863348Y+452409D02*
X+1910338Y+490958D01*
X+1943915Y+524535D01*
X+1976502Y+524535D01*
X+1872569Y+756777D02*
X+1922181Y+756777D01*
X+1960823Y+718135D01*
X+1960823Y+540214D01*
X+1976502Y+524535D01*
X+2402823Y+968135D02*
X+2402823Y+751078D01*
X+2403901Y+750000D01*
D13*
X+1976502Y+524535D02*
X+2055110Y+524535D01*
X+2280575Y+750000D01*
X+2403901Y+750000D01*
X+2650000Y+750000D01*
X+2700823Y+800823D01*
X+2700823Y+998135D01*
D11*
X+2673000Y+1503000D02*
X+2610139Y+1503000D01*
X+2610000Y+1502861D01*
X+2673000Y+1603000D02*
X+2623000Y+1603000D01*
X+2610000Y+1590000D01*
X+2610000Y+1502861D01*
X+2570000Y+1461539D01*
X+2486922Y+1461539D01*
X+2470000Y+1444617D01*
X+2470000Y+1400000D01*
D12*
X+2847705Y+1150000D02*
X+2847705Y+1412294D01*
X+2760000Y+1500000D01*
X+2751469Y+1504066D01*
X+2750403Y+1503000D01*
X+2673000Y+1503000D01*
D11*
X+1572569Y+876777D02*
X+1473223Y+876777D01*
X+1470000Y+880000D01*
X+1575823Y+1424135D02*
X+1575823Y+1264809D01*
X+1490823Y+1178135D01*
X+1490823Y+1158135D01*
D17*
X+1810000Y+2900000D02*
X+1810000Y+3102191D01*
X+1814352Y+3106543D01*
X+1810000Y+3100000D01*
D12*
X+1500823Y+2698135D02*
X+1500823Y+2769496D01*
X+1556955Y+2825628D01*
X+1567408Y+2836081D01*
X+1712439Y+2836081D01*
X+1746081Y+2836081D01*
X+1800000Y+2890000D01*
X+1810000Y+2900000D01*
D13*
X+1775823Y+2272135D02*
X+1775823Y+2423135D01*
X+1800823Y+2448135D01*
X+1700823Y+2648135D02*
X+1830823Y+2648135D01*
X+1960823Y+2778135D01*
X+2140822Y+2778135D01*
X+2251411Y+2918135D01*
X+2440823Y+2918135D01*
X+2520823Y+2838135D01*
X+2520823Y+2563197D01*
X+2520136Y+2562510D01*
X+2520136Y+2536414D01*
X+2730000Y+2300000D01*
X+2730000Y+2120000D01*
X+2795375Y+822687D02*
X+2500823Y+528135D01*
X+2500823Y-101865D01*
D11*
X+1960823Y+1298135D02*
X+1960823Y+1248046D01*
X+1962181Y+1246688D01*
X+1963312Y+1247819D01*
X+2300823Y+1098135D02*
X+2335594Y+1132906D01*
X+2346360Y+1132906D01*
D12*
X+1575823Y+2272135D02*
X+1575823Y+2432579D01*
X+1560000Y+2480000D01*
X+450000Y+2850000D02*
X+390000Y+2850000D01*
X+350823Y+2810000D01*
X+350823Y+2748135D01*
D11*
X+1450823Y+2398135D02*
X+1450823Y+2425575D01*
X+1482934Y+2457686D01*
X+2300823Y+1008135D02*
X+2249047Y+1008135D01*
X+2226029Y+1031153D01*
X+2226029Y+1200000D01*
X+2193714Y+1236286D01*
X+2139746Y+1290254D01*
X+2081303Y+1290254D01*
X+2050823Y+1298135D01*
X+2481600Y+1550000D02*
X+2481600Y+1560000D01*
X+1360823Y+2388135D02*
X+1360823Y+2398135D01*
X+1360823Y+2449935D01*
X+1394259Y+2483371D01*
X+1394259Y+2715741D01*
X+1390000Y+2720000D01*
D16*
X+1047080Y+2974179D02*
X+1047080Y+3044392D01*
X+1272688Y+3270000D01*
X+2230001Y+3270000D01*
X+2600000Y+2900001D01*
X+2600000Y+2678958D01*
X+2780823Y+2498135D01*
X+3050823Y+2498135D01*
D11*
X+2010000Y+3100000D02*
X+1900000Y+3210000D01*
X+1749031Y+3210000D01*
X+1680000Y+3140969D01*
X+1680000Y+2958248D01*
X+1624230Y+2902478D01*
X+1472477Y+2902478D01*
X+1412564Y+2842565D01*
X+1412564Y+2742564D01*
X+1390000Y+2720000D01*
D10*
X+823623Y+1616735D02*
X+830000Y+1624965D01*
X+830000Y+1720580D01*
X+829727Y+1720932D01*
X+860423Y+1729935D01*
D11*
X+823623Y+2030000D02*
X+823623Y+2061235D01*
D10*
X+823623Y+2030000D02*
X+823623Y+1932559D01*
X+826233Y+1929949D01*
X+860423Y+1945935D01*
D12*
X+1276823Y+2073135D02*
X+1161390Y+2073135D01*
X+1140203Y+2094322D01*
X+1136921Y+2094322D01*
X+1136921Y+2132062D01*
X+1077852Y+2191131D01*
X+1012219Y+2191131D01*
D11*
X+823623Y+2061235D02*
X+823623Y+2235335D01*
X+821510Y+2237448D01*
X+1390000Y+2720000D02*
X+1356725Y+2720000D01*
X+1305827Y+2669102D01*
X+1305827Y+2655827D01*
X+1184774Y+2534774D01*
X+1054255Y+2534773D01*
X+908714Y+2389232D01*
X+835312Y+2389232D01*
X+802407Y+2356327D01*
X+756846Y+2356327D01*
X+754315Y+2353796D01*
X+750823Y+2348135D01*
X+733623Y+1616735D02*
X+690772Y+1573884D01*
X+684976Y+1573884D01*
X+2417000Y+1503000D02*
X+2473000Y+1503000D01*
X+2490000Y+1520000D01*
X+2491983Y+1521983D01*
X+2491983Y+1550000D01*
X+2481600Y+1550000D02*
X+2491983Y+1550000D01*
X+2498776Y+1556793D01*
X+1822569Y+966777D02*
X+1940000Y+1084208D01*
X+1940000Y+1140001D01*
X+1978250Y+1178251D01*
X+1998251Y+1178251D01*
X+2050000Y+1230000D01*
X+2050000Y+1267655D01*
X+2050823Y+1298135D01*
X+1800823Y+1098135D02*
X+1868135Y+1098135D01*
X+1870000Y+1100000D01*
X+2300823Y+1098135D02*
X+2300823Y+1172035D01*
X+2304027Y+1175239D01*
X+1276823Y+1773135D02*
X+1395034Y+1773135D01*
X+1415893Y+1793994D01*
X+1454903Y+1833004D01*
X+1454903Y+1869124D01*
D13*
X+1699805Y+1227114D02*
X+1699805Y+1278071D01*
X+1680206Y+1297670D01*
X+1680206Y+1338170D01*
X+1675823Y+1342553D01*
X+1675823Y+1424135D01*
X+1825798Y+2071445D02*
X+1825798Y+2229623D01*
X+1827463Y+2231288D01*
X+1825823Y+2272135D01*
D15*
X+927823Y+748135D02*
X+1098126Y+748135D01*
X+1149996Y+800004D01*
X+1163163Y+813172D01*
X+1218964Y+813172D01*
X+1222569Y+816777D01*
D12*
X+546823Y+1290135D02*
X+546823Y+973177D01*
X+590000Y+930000D01*
X+757538Y+930000D01*
X+792755Y+894783D01*
X+792755Y+792738D01*
X+803917Y+781576D01*
X+800823Y+748135D01*
D13*
X+1030000Y+920000D02*
X+1140823Y+1038135D01*
X+1424159Y+1317285D01*
X+1424159Y+1422471D01*
X+1425823Y+1424135D01*
D12*
X+1149996Y+800004D02*
X+1149996Y+823413D01*
X+1117727Y+855682D01*
X+1050000Y+1390000D02*
X+1020000Y+1420000D01*
X+980000Y+1420000D01*
X+886995Y+1513005D01*
X+881250Y+1513005D01*
X+635909Y+1513005D01*
X+592614Y+1556300D01*
X+592614Y+1649305D01*
X+506023Y+1735896D01*
X+506023Y+1968409D01*
X+513239Y+1975625D01*
X+581790Y+2044176D01*
X+617870Y+2044176D01*
X+668381Y+2094687D01*
X+668381Y+2130767D01*
X+744148Y+2206534D01*
X+744148Y+2347426D01*
X+744191Y+2347469D01*
D11*
X+750823Y+2348135D01*
D13*
X+721411Y+2452511D02*
X+721411Y+2403153D01*
X+745456Y+2379108D01*
X+745456Y+2348734D01*
X+744191Y+2347469D01*
X+1036410Y+1504020D02*
X+1108198Y+1568135D01*
X+1221387Y+1568135D01*
X+1226693Y+1573441D01*
X+1276823Y+1573135D01*
X+1002548Y+1587452D02*
X+1035476Y+1620380D01*
X+1274068Y+1620380D01*
X+1276823Y+1623135D01*
D12*
X+1825823Y+1424135D02*
X+1825823Y+1557610D01*
X+1750474Y+1632959D01*
X+1750474Y+1634511D01*
X+1634104Y+1634511D01*
X+1582900Y+1583307D01*
X+1220000Y+1300000D02*
X+1160823Y+1238135D01*
X+961344Y+1038656D01*
X+620000Y+1040000D01*
X+1875823Y+1424135D02*
X+1875823Y+1578608D01*
X+1769972Y+1684459D01*
X+1456758Y+1684459D01*
X+1453641Y+1681342D01*
X+1140000Y+1330000D02*
X+1090823Y+1268135D01*
X+931344Y+1108656D01*
X+680000Y+1110000D01*
D13*
X+1625823Y+1424135D02*
X+1625823Y+1227114D01*
X+1570000Y+1167252D01*
X+1570000Y+1100000D01*
X+1480000Y+1020000D01*
X+1317823Y+664235D02*
X+1322569Y+666777D01*
D12*
X+2124823Y+1623135D02*
X+2010504Y+1623135D01*
X+2003237Y+1630402D01*
X+2003237Y+1685721D01*
X+1960000Y+1730000D01*
D13*
X+2250823Y+2778135D02*
X+2250823Y+2838135D01*
X+2290823Y+2878135D01*
X+2410823Y+2878135D01*
X+2460823Y+2828135D01*
X+2460823Y+2488135D01*
X+2660000Y+2280000D01*
X+2660000Y+2060000D01*
D11*
X+2673000Y+1603000D02*
X+2673000Y+1702835D01*
X+2662271Y+1713564D01*
X+2645835Y+1730000D01*
X+2590000Y+1730000D01*
D12*
X+2710000Y+1760000D02*
X+2770000Y+1750000D01*
X+3047463Y+1751495D01*
X+3050823Y+1748135D01*
D13*
X+2100823Y+2398135D02*
X+2100823Y+2583413D01*
X+2050823Y+2633413D01*
X+2050823Y+2648135D01*
D11*
X+2620000Y+1310000D02*
X+2620000Y+1303466D01*
X+2621140Y+1230000D01*
X+2621140Y+1223871D01*
X+2598823Y+1201554D01*
X+2598823Y+1128135D01*
D12*
X+546823Y+748135D02*
X+546823Y+671494D01*
X+720182Y+498135D01*
X+1100823Y+498135D01*
X+1308958Y+290000D01*
X+2145775Y+290000D01*
X+2210170Y+349881D01*
X+2271346Y+436956D01*
D11*
X+2748165Y+1236247D02*
X+2700000Y+1240000D01*
X+2621140Y+1240000D01*
X+2621140Y+1230000D01*
X+2620000Y+1310000D01*
X+2620000Y+1400000D01*
X+2532823Y+1128135D02*
X+2532823Y+1184057D01*
X+2540047Y+1225819D01*
X+2847174Y+1667174D02*
X+2890205Y+1667174D01*
X+2958444Y+1598935D01*
X+3050823Y+1548135D01*
D12*
X+673823Y+748135D02*
X+673823Y+649247D01*
X+774935Y+548135D01*
X+1150823Y+548135D01*
X+1348958Y+350000D01*
X+2106243Y+350000D01*
X+2150823Y+400000D01*
D11*
X+2673000Y+1453000D02*
X+2694190Y+1431810D01*
X+2730000Y+1350000D01*
X+2744740Y+1667174D02*
X+2847174Y+1667174D01*
X+2850000Y+1670000D01*
X+673823Y+1290135D02*
X+673823Y+1428586D01*
X+674332Y+1429095D01*
D13*
X+2500823Y-101865D02*
X+2532856Y-76856D01*
X+2500823Y-35825D01*
X+2468790Y-76856D01*
X+2500823Y-101865D01*
X+3050000Y+2150000D02*
X+3020457Y+2177906D01*
X+2984712Y+2140066D01*
X+3030095Y+2114569D01*
X+3050000Y+2150000D01*
D16*
X+3050823Y+2498135D02*
X+3033185Y+2524534D01*
X+2993673Y+2498135D01*
X+3033185Y+2471736D01*
X+3050823Y+2498135D01*
X+3050823Y+1148135D02*
X+3033185Y+1174534D01*
X+2993673Y+1148135D01*
X+3033185Y+1121736D01*
X+3050823Y+1148135D01*
D11*
X+3050823Y+1548135D02*
X+3044054Y+1588851D01*
X+2992399Y+1580262D01*
X+3012815Y+1532043D01*
X+3050823Y+1548135D01*
D12*
X+3050823Y+1748135D02*
X+3029447Y+1779673D01*
X+2987396Y+1751171D01*
X+3026532Y+1718783D01*
X+3050823Y+1748135D01*
D13*
X+3050000Y+1960000D02*
X+3023582Y+1990881D01*
X+2984027Y+1957043D01*
X+3026451Y+1926879D01*
X+3050000Y+1960000D01*
D17*
X+1810000Y+2900000D02*
X+1836399Y+2917638D01*
X+1810000Y+2957150D01*
X+1783601Y+2917638D01*
X+1810000Y+2900000D01*
D12*
X+1752863Y+2901183D01*
X+1751628Y+2841628D01*
X+1811183Y+2842863D01*
X+1810000Y+2900000D01*
D11*
X+2010000Y+3100000D02*
X+2010289Y+3160324D01*
X+1949384Y+3160616D01*
X+1949676Y+3099711D01*
X+2010000Y+3100000D01*
D17*
X+1810000Y+3100000D02*
X+1783601Y+3082362D01*
X+1810000Y+3042850D01*
X+1836399Y+3082362D01*
X+1810000Y+3100000D01*
D12*
X+1900823Y+1898135D02*
X+1897245Y+1881210D01*
X+1935439Y+1873135D01*
X+1915765Y+1906853D01*
X+1900823Y+1898135D01*
D11*
X+902641Y+2655444D02*
X+922058Y+2648950D01*
X+935079Y+2687882D01*
X+896147Y+2674861D01*
X+902641Y+2655444D01*
D13*
X+893163Y+2553261D02*
X+911160Y+2544912D01*
X+928272Y+2581793D01*
X+888671Y+2572585D01*
X+893163Y+2553261D01*
D11*
X+1685628Y+1095824D02*
X+1694766Y+1077502D01*
X+1731503Y+1095824D01*
X+1694766Y+1114146D01*
X+1685628Y+1095824D01*
X+1669072Y+1107869D01*
X+1644919Y+1074674D01*
X+1685965Y+1075352D01*
X+1685628Y+1095824D01*
D12*
X+563009Y+2806884D02*
X+579149Y+2800657D01*
X+593202Y+2837077D01*
X+556782Y+2823024D01*
X+563009Y+2806884D01*
X+1806531Y+1819189D02*
X+1814971Y+1804088D01*
X+1849048Y+1823135D01*
X+1812048Y+1835585D01*
X+1806531Y+1819189D01*
D13*
X+1030239Y+1713743D02*
X+1020867Y+1696257D01*
X+1056701Y+1677050D01*
X+1049790Y+1717115D01*
X+1030239Y+1713743D01*
D12*
X+1007892Y+2002799D02*
X+1001946Y+1986554D01*
X+1038605Y+1973135D01*
X+1023921Y+2009306D01*
X+1007892Y+2002799D01*
X+1050823Y+2098135D02*
X+1044596Y+2081995D01*
X+1081016Y+2067942D01*
X+1066963Y+2104362D01*
X+1050823Y+2098135D01*
D10*
X+2422271Y+2387202D02*
X+2411895Y+2397698D01*
X+2385333Y+2371441D01*
X+2422668Y+2372448D01*
X+2422271Y+2387202D01*
D16*
X+2417221Y+2377487D01*
X+2447974Y+2361499D01*
X+2431986Y+2392252D01*
X+2422271Y+2387202D01*
X+2543326Y+2057053D02*
X+2553767Y+2060351D01*
X+2543326Y+2093403D01*
X+2532885Y+2060351D01*
X+2543326Y+2057053D01*
D10*
X+2414347Y+2200031D02*
X+2400805Y+2205901D01*
X+2385950Y+2171634D01*
X+2420217Y+2186489D01*
X+2414347Y+2200031D01*
D13*
X+1390441Y+1100919D02*
X+1408573Y+1108972D01*
X+1392070Y+1146129D01*
X+1372936Y+1110256D01*
X+1390441Y+1100919D01*
D11*
X+2033474Y+609913D02*
X+2040547Y+629127D01*
X+2002024Y+643310D01*
X+2013871Y+604005D01*
X+2033474Y+609913D01*
D13*
X+721411Y+2452511D02*
X+703581Y+2443811D01*
X+721411Y+2407271D01*
X+739241Y+2443811D01*
X+721411Y+2452511D01*
D11*
X+1621790Y+450272D02*
X+1630928Y+431950D01*
X+1667665Y+450272D01*
X+1630928Y+468594D01*
X+1621790Y+450272D01*
X+2505288Y+1312153D02*
X+2496150Y+1330475D01*
X+2459413Y+1312153D01*
X+2496150Y+1293831D01*
X+2505288Y+1312153D01*
X+2280000Y+1420000D02*
X+2297664Y+1430353D01*
X+2276906Y+1465770D01*
X+2261103Y+1427881D01*
X+2280000Y+1420000D01*
D13*
X+835623Y+2452976D02*
X+844323Y+2435146D01*
X+880863Y+2452976D01*
X+844323Y+2470806D01*
X+835623Y+2452976D01*
D12*
X+1703926Y+1567791D02*
X+1693942Y+1553663D01*
X+1725823Y+1531133D01*
X+1721098Y+1569884D01*
X+1703926Y+1567791D01*
X+750823Y+438135D02*
X+757832Y+422319D01*
X+793523Y+438135D01*
X+757832Y+453951D01*
X+750823Y+438135D01*
X+2300000Y+340000D02*
X+2284018Y+346621D01*
X+2269076Y+310556D01*
X+2305830Y+323713D01*
X+2300000Y+340000D01*
D11*
X+1470000Y+880000D02*
X+1477828Y+861081D01*
X+1515761Y+876777D01*
X+1480403Y+897635D01*
X+1470000Y+880000D01*
X+1490823Y+1158135D02*
X+1511297Y+1158079D01*
X+1511412Y+1199130D01*
X+1478551Y+1174524D01*
X+1490823Y+1158135D01*
D13*
X+1800823Y+2448135D02*
X+1781155Y+2450736D01*
X+1775823Y+2410431D01*
X+1810875Y+2431031D01*
X+1800823Y+2448135D01*
X+1700823Y+2648135D02*
X+1709523Y+2630305D01*
X+1746063Y+2648135D01*
X+1709523Y+2665965D01*
X+1700823Y+2648135D01*
X+2730000Y+2120000D02*
X+2747830Y+2128700D01*
X+2730000Y+2165240D01*
X+2712170Y+2128700D01*
X+2730000Y+2120000D01*
X+2795375Y+822687D02*
X+2776615Y+829142D01*
X+2763386Y+790698D01*
X+2801830Y+803927D01*
X+2795375Y+822687D01*
D11*
X+1963312Y+1247819D02*
X+1981111Y+1257938D01*
X+1960823Y+1293626D01*
X+1944521Y+1255949D01*
X+1963312Y+1247819D01*
D12*
X+1560000Y+2480000D02*
X+1547216Y+2468346D01*
X+1573515Y+2439496D01*
X+1577221Y+2478358D01*
X+1560000Y+2480000D01*
X+450000Y+2850000D02*
X+442991Y+2865816D01*
X+407300Y+2850000D01*
X+442991Y+2834184D01*
X+450000Y+2850000D01*
D11*
X+1482934Y+2457686D02*
X+1463452Y+2463984D01*
X+1450823Y+2424924D01*
X+1489622Y+2438335D01*
X+1482934Y+2457686D01*
D12*
X+1047080Y+2974179D02*
X+1054089Y+2958363D01*
X+1089780Y+2974179D01*
X+1054089Y+2989995D01*
X+1047080Y+2974179D01*
D16*
X+1057521Y+2977477D01*
X+1047080Y+3010529D01*
X+1036639Y+2977477D01*
X+1047080Y+2974179D01*
D12*
X+1012219Y+2191131D02*
X+1019228Y+2175315D01*
X+1054919Y+2191131D01*
X+1019228Y+2206947D01*
X+1012219Y+2191131D01*
D11*
X+821510Y+2237448D02*
X+803628Y+2227476D01*
X+823623Y+2191622D01*
X+840233Y+2229164D01*
X+821510Y+2237448D01*
X+684976Y+1573884D02*
X+703736Y+1565682D01*
X+720183Y+1603295D01*
X+680243Y+1593804D01*
X+684976Y+1573884D01*
X+1870000Y+1100000D02*
X+1860125Y+1117935D01*
X+1824163Y+1098135D01*
X+1861615Y+1081322D01*
X+1870000Y+1100000D01*
X+2304027Y+1175239D02*
X+2285111Y+1167403D01*
X+2300823Y+1129477D01*
X+2321666Y+1164844D01*
X+2304027Y+1175239D01*
X+1454903Y+1869124D02*
X+1435158Y+1863708D01*
X+1446017Y+1824118D01*
X+1471108Y+1856610D01*
X+1454903Y+1869124D01*
D13*
X+1699805Y+1227114D02*
X+1717635Y+1235814D01*
X+1699805Y+1272354D01*
X+1681975Y+1235814D01*
X+1699805Y+1227114D01*
X+1825798Y+2071445D02*
X+1843628Y+2080145D01*
X+1825798Y+2116685D01*
X+1807968Y+2080145D01*
X+1825798Y+2071445D01*
X+1030000Y+920000D02*
X+1048956Y+914147D01*
X+1060952Y+952994D01*
X+1022949Y+938544D01*
X+1030000Y+920000D01*
D12*
X+1117727Y+855682D02*
X+1111500Y+839542D01*
X+1147920Y+825489D01*
X+1133867Y+861909D01*
X+1117727Y+855682D01*
X+1050000Y+1390000D02*
X+1056124Y+1406179D01*
X+1019615Y+1420000D01*
X+1033900Y+1383670D01*
X+1050000Y+1390000D01*
D13*
X+1036410Y+1504020D02*
X+1054776Y+1496518D01*
X+1070152Y+1534155D01*
X+1031023Y+1523114D01*
X+1036410Y+1504020D01*
X+1002548Y+1587452D02*
X+1021308Y+1580997D01*
X+1034537Y+1619441D01*
X+996093Y+1606212D01*
X+1002548Y+1587452D01*
D12*
X+1582900Y+1583307D02*
X+1599040Y+1577080D01*
X+1613093Y+1613500D01*
X+1576673Y+1599447D01*
X+1582900Y+1583307D01*
X+1220000Y+1300000D02*
X+1203726Y+1305867D01*
X+1190485Y+1269144D01*
X+1226584Y+1284003D01*
X+1220000Y+1300000D01*
X+620000Y+1040000D02*
X+626946Y+1024157D01*
X+662699Y+1039832D01*
X+627071Y+1055788D01*
X+620000Y+1040000D01*
X+1453641Y+1681342D02*
X+1461786Y+1666080D01*
X+1496227Y+1684459D01*
X+1459476Y+1697627D01*
X+1453641Y+1681342D01*
X+1140000Y+1330000D02*
X+1123258Y+1334355D01*
X+1113430Y+1296574D01*
X+1148019Y+1314672D01*
X+1140000Y+1330000D01*
X+680000Y+1110000D02*
X+686924Y+1094147D01*
X+722699Y+1109772D01*
X+687093Y+1125778D01*
X+680000Y+1110000D01*
D13*
X+1480000Y+1020000D02*
X+1498348Y+1012454D01*
X+1513813Y+1050056D01*
X+1474658Y+1039107D01*
X+1480000Y+1020000D01*
D12*
X+1960000Y+1730000D02*
X+1953581Y+1713936D01*
X+1989832Y+1699449D01*
X+1976213Y+1736035D01*
X+1960000Y+1730000D01*
D13*
X+2660000Y+2060000D02*
X+2677830Y+2068700D01*
X+2660000Y+2105240D01*
X+2642170Y+2068700D01*
X+2660000Y+2060000D01*
D11*
X+2590000Y+1730000D02*
X+2599138Y+1711678D01*
X+2635875Y+1730000D01*
X+2599138Y+1748322D01*
X+2590000Y+1730000D01*
D12*
X+2710000Y+1760000D02*
X+2714313Y+1743247D01*
X+2752119Y+1752981D01*
X+2719513Y+1774449D01*
X+2710000Y+1760000D01*
D13*
X+2100823Y+2398135D02*
X+2118653Y+2406835D01*
X+2100823Y+2443375D01*
X+2082993Y+2406835D01*
X+2100823Y+2398135D01*
D12*
X+2271346Y+436956D02*
X+2254375Y+440313D01*
X+2246799Y+402017D01*
X+2280258Y+422129D01*
X+2271346Y+436956D01*
D11*
X+2748165Y+1236247D02*
X+2740478Y+1255224D01*
X+2702428Y+1239810D01*
X+2737631Y+1218690D01*
X+2748165Y+1236247D01*
X+2540047Y+1225819D02*
X+2520515Y+1219680D01*
X+2532823Y+1180517D01*
X+2556701Y+1213910D01*
X+2540047Y+1225819D01*
D12*
X+2150823Y+400000D02*
X+2134353Y+405294D01*
X+2122407Y+368129D01*
X+2157963Y+384243D01*
X+2150823Y+400000D01*
D11*
X+2730000Y+1350000D02*
X+2743120Y+1365718D01*
X+2711605Y+1392025D01*
X+2709551Y+1351024D01*
X+2730000Y+1350000D01*
X+2744740Y+1667174D02*
X+2753878Y+1648852D01*
X+2790615Y+1667174D01*
X+2753878Y+1685496D01*
X+2744740Y+1667174D01*
X+674332Y+1429095D02*
X+655910Y+1420161D01*
X+673823Y+1383223D01*
X+692551Y+1419754D01*
X+674332Y+1429095D01*
D18*
X+1900823Y+1898135D03*
X+902641Y+2655444D03*
X+893163Y+2553261D03*
X+1685628Y+1095824D03*
X+563009Y+2806884D03*
X+1806531Y+1819189D03*
X+1030239Y+1713743D03*
X+1007892Y+2002799D03*
X+1050823Y+2098135D03*
X+2422271Y+2387202D03*
X+2543326Y+2057053D03*
X+2414347Y+2200031D03*
X+1390441Y+1100919D03*
X+1322057Y+819241D03*
X+2033474Y+609913D03*
X+721411Y+2452511D03*
X+1621790Y+450272D03*
X+2505288Y+1312153D03*
X+2280000Y+1420000D03*
X+835623Y+2452976D03*
X+1703926Y+1567791D03*
X+750823Y+438135D03*
X+2300000Y+340000D03*
X+1470000Y+880000D03*
X+1490823Y+1158135D03*
X+1800823Y+2448135D03*
X+1700823Y+2648135D03*
X+2730000Y+2120000D03*
X+2795375Y+822687D03*
X+1963312Y+1247819D03*
X+1560000Y+2480000D03*
X+450000Y+2850000D03*
X+1482934Y+2457686D03*
X+2498776Y+1556793D03*
X+1047080Y+2974179D03*
X+1012219Y+2191131D03*
X+821510Y+2237448D03*
X+2300000Y+1720000D03*
X+684976Y+1573884D03*
X+1870000Y+1100000D03*
X+2092523Y+905535D03*
X+2304027Y+1175239D03*
X+1454903Y+1869124D03*
X+1699805Y+1227114D03*
X+1825798Y+2071445D03*
X+1030000Y+920000D03*
X+1117727Y+855682D03*
X+1050000Y+1390000D03*
X+1036410Y+1504020D03*
X+1002548Y+1587452D03*
X+1582900Y+1583307D03*
X+1220000Y+1300000D03*
X+620000Y+1040000D03*
X+1453641Y+1681342D03*
X+1140000Y+1330000D03*
X+680000Y+1110000D03*
X+1480000Y+1020000D03*
X+1317823Y+664235D03*
X+1960000Y+1730000D03*
X+2660000Y+2060000D03*
X+2590000Y+1730000D03*
X+2710000Y+1760000D03*
X+2100823Y+2398135D03*
X+2271346Y+436956D03*
X+2748165Y+1236247D03*
X+2540047Y+1225819D03*
X+2150823Y+400000D03*
X+2730000Y+1350000D03*
X+2744740Y+1667174D03*
X+674332Y+1429095D03*
D12*
X+2070823Y+2338135D02*
X+2200823Y+2338135D01*
X+2200823Y+2246554D01*
X+2192403Y+2246554D01*
X+2192403Y+2228774D01*
X+2189367Y+2228774D01*
X+2188728Y+2228135D01*
X+2160823Y+2228135D01*
X+2160823Y+2200230D01*
X+2158728Y+2198135D01*
X+2030823Y+2198135D01*
X+2030823Y+2368135D01*
X+2070823Y+2338135D01*
X+2420823Y+2448135D02*
X+2370823Y+2448135D01*
X+2370823Y+2417811D01*
X+2367595Y+2414620D01*
X+2265694Y+2414620D01*
X+2200823Y+2479491D01*
X+2200823Y+2588135D01*
X+2310823Y+2588135D01*
X+2400823Y+2678135D01*
X+2420823Y+2678135D01*
X+2420823Y+2448135D01*
X+1280000Y+1480000D02*
X+1240000Y+1480000D01*
X+1240000Y+1460000D01*
X+1090000Y+1460000D01*
X+1090000Y+1475672D01*
X+1094349Y+1480021D01*
X+1094349Y+1492645D01*
X+1095526Y+1495526D01*
X+1120000Y+1520000D01*
X+1280000Y+1520000D01*
X+1280000Y+1480000D01*
X+1370000Y+1340000D02*
X+1007939Y+977939D01*
X+1006001Y+977939D01*
X+972061Y+943999D01*
X+972061Y+942061D01*
X+970000Y+940000D01*
X+950000Y+950000D01*
X+1220000Y+1220000D01*
X+1220000Y+1237347D01*
X+1231452Y+1242061D01*
X+1243999Y+1242061D01*
X+1277939Y+1276001D01*
X+1277939Y+1323999D01*
X+1243999Y+1357939D01*
X+1196001Y+1357939D01*
X+1195000Y+1356938D01*
X+1191938Y+1360000D01*
X+1370000Y+1360000D01*
X+1370000Y+1340000D01*
X+3094445Y+3276165D02*
X+3138781Y+3265957D01*
X+3174106Y+3250107D01*
X+3201623Y+3229209D01*
X+3222902Y+3202790D01*
X+3238750Y+3169490D01*
X+3248879Y+3128031D01*
X+3252563Y+3076422D01*
X+3252563Y-50164D01*
X+3248893Y-101831D01*
X+3238839Y-143440D01*
X+3223188Y-176935D01*
X+3202390Y-203430D01*
X+3175892Y-224231D01*
X+3142398Y-239881D01*
X+3100789Y-249935D01*
X+3049122Y-253605D01*
X+1015122Y-253605D01*
X+1015122Y-241564D01*
X+1189722Y-241564D01*
X+1189722Y+37834D01*
X+1015122Y+37834D01*
X+1015122Y+63234D01*
X+786524Y+63234D01*
X+786524Y-253605D01*
X-47476Y-253605D01*
X-99143Y-249935D01*
X-140752Y-239881D01*
X-174246Y-224231D01*
X-200744Y-203430D01*
X-221542Y-176935D01*
X-237193Y-143440D01*
X-247247Y-101831D01*
X-250917Y-50164D01*
X-250917Y+3076434D01*
X-247247Y+3128101D01*
X-237193Y+3169710D01*
X-221542Y+3203205D01*
X-200744Y+3229700D01*
X-174246Y+3250501D01*
X-140752Y+3266151D01*
X-99143Y+3276205D01*
X-47476Y+3279875D01*
X+1201743Y+3279875D01*
X+989931Y+3068063D01*
X+989931Y+3019338D01*
X+987160Y+3010566D01*
X+978981Y+3002387D01*
X+978981Y+2945971D01*
X+1018872Y+2906080D01*
X+1075288Y+2906080D01*
X+1086268Y+2917060D01*
X+1100530Y+2923380D01*
X+1178617Y+2923380D01*
X+1181768Y+2920229D01*
X+1181768Y+2901234D01*
X+912724Y+2901234D01*
X+912724Y+2683144D01*
X+891167Y+2683144D01*
X+874941Y+2666918D01*
X+874941Y+2643970D01*
X+891167Y+2627744D01*
X+905975Y+2627744D01*
X+903904Y+2625673D01*
X+885354Y+2621360D01*
X+864955Y+2621360D01*
X+825064Y+2581469D01*
X+825064Y+2525053D01*
X+829042Y+2521075D01*
X+807415Y+2521075D01*
X+778284Y+2491944D01*
X+749619Y+2520610D01*
X+693203Y+2520610D01*
X+653312Y+2480719D01*
X+653312Y+2424303D01*
X+660901Y+2416714D01*
X+657676Y+2416714D01*
X+622916Y+2451474D01*
X+585912Y+2451474D01*
X+585912Y+2485764D01*
X+255734Y+2485764D01*
X+255734Y+2310506D01*
X+584784Y+2310506D01*
X+584784Y+2279556D01*
X+693349Y+2279556D01*
X+693349Y+2227575D01*
X+617582Y+2151808D01*
X+617582Y+2115728D01*
X+596829Y+2094975D01*
X+560749Y+2094975D01*
X+455224Y+1989450D01*
X+455224Y+1714855D01*
X+541815Y+1628264D01*
X+541815Y+1535259D01*
X+614868Y+1462206D01*
X+865954Y+1462206D01*
X+923926Y+1404234D01*
X+688645Y+1404234D01*
X+702032Y+1417621D01*
X+702032Y+1440569D01*
X+685806Y+1456795D01*
X+662858Y+1456795D01*
X+646632Y+1440569D01*
X+646632Y+1417621D01*
X+660019Y+1404234D01*
X+473724Y+1404234D01*
X+473724Y+1176036D01*
X+649729Y+1176036D01*
X+611901Y+1138208D01*
X+611901Y+1108099D01*
X+591792Y+1108099D01*
X+551901Y+1068208D01*
X+551901Y+1011792D01*
X+591792Y+971901D01*
X+648208Y+971901D01*
X+659090Y+982783D01*
X+673099Y+988925D01*
X+916179Y+988021D01*
X+895691Y+967533D01*
X+904021Y+916194D01*
X+961950Y+887230D01*
X+965833Y+887860D01*
X+991459Y+862234D01*
X+473724Y+862234D01*
X+473724Y+634036D01*
X+512441Y+634036D01*
X+682724Y+463753D01*
X+682724Y+409927D01*
X+722615Y+370036D01*
X+779031Y+370036D01*
X+790011Y+381016D01*
X+804273Y+387336D01*
X+1039782Y+387336D01*
X+1247917Y+179201D01*
X+2204788Y+179201D01*
X+2297247Y+266686D01*
X+2311815Y+271901D01*
X+2328208Y+271901D01*
X+2368099Y+311792D01*
X+2368099Y+368208D01*
X+2333502Y+402805D01*
X+2339445Y+408748D01*
X+2339445Y+465164D01*
X+2299554Y+505055D01*
X+2243138Y+505055D01*
X+2203247Y+465164D01*
X+2203247Y+443883D01*
X+2179031Y+468099D01*
X+2122615Y+468099D01*
X+2082724Y+428208D01*
X+2082724Y+410675D01*
X+2079550Y+400799D01*
X+1948437Y+400799D01*
X+1948437Y+461707D01*
X+1963006Y+476276D01*
X+2075099Y+476276D01*
X+2300564Y+701741D01*
X+2606181Y+701741D01*
X+2452564Y+548124D01*
X+2452564Y+37834D01*
X+2411924Y+37834D01*
X+2411924Y-241564D01*
X+2589722Y-241564D01*
X+2589722Y+37834D01*
X+2549082Y+37834D01*
X+2549082Y+508146D01*
X+2789629Y+748693D01*
X+2806759Y+754588D01*
X+2823583Y+754588D01*
X+2863474Y+794479D01*
X+2863474Y+850895D01*
X+2823583Y+890786D01*
X+2767167Y+890786D01*
X+2749082Y+872701D01*
X+2749082Y+932096D01*
X+2769402Y+932096D01*
X+2769402Y+947336D01*
X+2771864Y+947336D01*
X+2898504Y+1073976D01*
X+2898504Y+1090986D01*
X+2911124Y+1090986D01*
X+2911124Y+1059236D01*
X+3190522Y+1059236D01*
X+3190522Y+1233836D01*
X+3215922Y+1233836D01*
X+3215922Y+1462434D01*
X+3190522Y+1462434D01*
X+3190522Y+1637034D01*
X+2988600Y+1637034D01*
X+2986776Y+1637953D01*
X+2965493Y+1659236D01*
X+3190522Y+1659236D01*
X+3190522Y+1837034D01*
X+2911124Y+1837034D01*
X+2911124Y+1801560D01*
X+2844534Y+1801201D01*
X+2914434Y+1871101D01*
X+3189699Y+1871101D01*
X+3189699Y+2048899D01*
X+2962263Y+2048899D01*
X+2962263Y+2061101D01*
X+3189699Y+2061101D01*
X+3189699Y+2238899D01*
X+2910301Y+2238899D01*
X+2910301Y+2150931D01*
X+2865745Y+2106375D01*
X+2865745Y+2044083D01*
X+2743056Y+1921394D01*
X+2491665Y+1921394D01*
X+2519322Y+1949051D01*
X+2519322Y+1988954D01*
X+2571534Y+1988954D01*
X+2603136Y+2020556D01*
X+2631792Y+1991901D01*
X+2688208Y+1991901D01*
X+2728099Y+2031792D01*
X+2728099Y+2051901D01*
X+2758208Y+2051901D01*
X+2798099Y+2091792D01*
X+2798099Y+2148208D01*
X+2786205Y+2160102D01*
X+2778259Y+2176386D01*
X+2778259Y+2318329D01*
X+2569082Y+2553969D01*
X+2569082Y+2629056D01*
X+2757151Y+2440987D01*
X+2885724Y+2440987D01*
X+2885724Y+2383836D01*
X+2910301Y+2383836D01*
X+2910301Y+2241101D01*
X+3189699Y+2241101D01*
X+3189699Y+2383836D01*
X+3215922Y+2383836D01*
X+3215922Y+2612434D01*
X+2885724Y+2612434D01*
X+2885724Y+2555283D01*
X+2804495Y+2555283D01*
X+2657149Y+2702629D01*
X+2657149Y+2923672D01*
X+2300946Y+3279875D01*
X+3039212Y+3279875D01*
X+3094445Y+3276165D01*
X+828922Y+2915036D02*
X+572724Y+2915036D01*
X+572724Y+3181234D01*
X+828922Y+3181234D01*
X+828922Y+2915036D01*
X-237276Y-100489D02*
X-237276Y+96759D01*
X-97801Y+236234D01*
X+99447Y+236234D01*
X+238922Y+96759D01*
X+238922Y-100489D01*
X+99447Y-239964D01*
X-97801Y-239964D01*
X-237276Y-100489D01*
X-237276Y+2899511D02*
X-237276Y+3096759D01*
X-97801Y+3236234D01*
X+99447Y+3236234D01*
X+238922Y+3096759D01*
X+238922Y+2899511D01*
X+99447Y+2760036D01*
X-97801Y+2760036D01*
X-237276Y+2899511D01*
X+2762724Y+2899511D02*
X+2762724Y+3096759D01*
X+2902199Y+3236234D01*
X+3099447Y+3236234D01*
X+3238922Y+3096759D01*
X+3238922Y+2899511D01*
X+3099447Y+2760036D01*
X+2902199Y+2760036D01*
X+2762724Y+2899511D01*
X+2762724Y-100489D02*
X+2762724Y+96759D01*
X+2902199Y+236234D01*
X+3099447Y+236234D01*
X+3238922Y+96759D01*
X+3238922Y-100489D01*
X+3099447Y-239964D01*
X+2902199Y-239964D01*
X+2762724Y-100489D01*
X+1411924Y+37834D02*
X+1589722Y+37834D01*
X+1589722Y-241564D01*
X+1411924Y-241564D01*
X+1411924Y+37834D01*
X+1611924Y+37834D02*
X+1789722Y+37834D01*
X+1789722Y-241564D01*
X+1611924Y-241564D01*
X+1611924Y+37834D01*
X+1811924Y+37834D02*
X+1989722Y+37834D01*
X+1989722Y-241564D01*
X+1811924Y-241564D01*
X+1811924Y+37834D01*
X+2011924Y+37834D02*
X+2189722Y+37834D01*
X+2189722Y-241564D01*
X+2011924Y-241564D01*
X+2011924Y+37834D01*
X+2211924Y+37834D02*
X+2389722Y+37834D01*
X+2389722Y-241564D01*
X+2211924Y-241564D01*
X+2211924Y+37834D01*
X+165922Y+1683836D02*
X+165922Y+483836D01*
X+140522Y+483836D01*
X+140522Y+309236D01*
X-138876Y+309236D01*
X-138876Y+483836D01*
X-164276Y+483836D01*
X-164276Y+1912434D01*
X+165922Y+1912434D01*
X+165922Y+1683836D01*
X+2911124Y+359236D02*
X+2911124Y+537034D01*
X+3190522Y+537034D01*
X+3190522Y+359236D01*
X+2911124Y+359236D01*
X+2911124Y+559236D02*
X+2911124Y+737034D01*
X+3190522Y+737034D01*
X+3190522Y+559236D01*
X+2911124Y+559236D01*
X+518099Y+2878208D02*
X+518099Y+2821792D01*
X+513021Y+2816714D01*
X+516862Y+2816714D01*
X+516862Y+2786609D01*
X+546184Y+2757287D01*
X+546184Y+2685764D01*
X+585912Y+2685764D01*
X+585912Y+2510506D01*
X+255734Y+2510506D01*
X+255734Y+2685764D01*
X+284784Y+2685764D01*
X+284784Y+2816714D01*
X+300025Y+2816714D01*
X+300025Y+2830734D01*
X+368650Y+2900799D01*
X+396550Y+2900799D01*
X+410812Y+2907119D01*
X+421792Y+2918099D01*
X+478208Y+2918099D01*
X+518099Y+2878208D01*
X+1389722Y-241564D02*
X+1211924Y-241564D01*
X+1211924Y+37834D01*
X+1389722Y+37834D01*
X+1389722Y-241564D01*
X+2911124Y+849236D02*
X+2911124Y+1027034D01*
X+3190522Y+1027034D01*
X+3190522Y+849236D01*
X+2911124Y+849236D01*
X+535309Y+2795410D02*
X+535309Y+2818358D01*
X+551535Y+2834584D01*
X+574483Y+2834584D01*
X+590709Y+2818358D01*
X+590709Y+2795410D01*
X+574483Y+2779184D01*
X+551535Y+2779184D01*
X+535309Y+2795410D01*
X+2452787Y+2966394D02*
X+2240338Y+2966394D01*
X+2220407Y+2956739D01*
X+2117445Y+2826394D01*
X+2089057Y+2826394D01*
X+2117949Y+2855286D01*
X+2117949Y+2944714D01*
X+2062663Y+3000000D01*
X+2117949Y+3055286D01*
X+2117949Y+3144714D01*
X+2054714Y+3207949D01*
X+2010100Y+3207949D01*
X+1969205Y+3208145D01*
X+1964499Y+3212851D01*
X+2206330Y+3212851D01*
X+2452787Y+2966394D01*
X+930341Y+2652110D02*
X+930341Y+2666918D01*
X+922223Y+2675036D01*
X+953267Y+2675036D01*
X+930341Y+2652110D01*
X+1549067Y+2626900D02*
X+1549067Y+2605859D01*
X+1575024Y+2579902D01*
X+1575024Y+2548099D01*
X+1531792Y+2548099D01*
X+1491901Y+2508208D01*
X+1491901Y+2485386D01*
X+1471460Y+2485386D01*
X+1455234Y+2469160D01*
X+1455234Y+2466714D01*
X+1441883Y+2466714D01*
X+1441883Y+2629556D01*
X+1549067Y+2629556D01*
X+1549067Y+2626900D01*
X+1525024Y+2417286D02*
X+1525024Y+2384234D01*
X+1519402Y+2384234D01*
X+1519402Y+2423453D01*
X+1525024Y+2417286D01*
X+1346635Y+2503097D02*
X+1313199Y+2469661D01*
X+1313199Y+2466714D01*
X+1292244Y+2466714D01*
X+1292244Y+2329556D01*
X+1310024Y+2329556D01*
X+1310024Y+2328601D01*
X+1368324Y+2270301D01*
X+1372724Y+2257687D01*
X+1372724Y+2176234D01*
X+1164724Y+2176234D01*
X+1164724Y+2176099D01*
X+1098893Y+2241930D01*
X+1065669Y+2241930D01*
X+1051407Y+2248250D01*
X+1040427Y+2259230D01*
X+984011Y+2259230D01*
X+944120Y+2219339D01*
X+944120Y+2162923D01*
X+982724Y+2124319D01*
X+982724Y+2070898D01*
X+979684Y+2070898D01*
X+939793Y+2031007D01*
X+939793Y+2029034D01*
X+892202Y+2029034D01*
X+892202Y+2129814D01*
X+739268Y+2129814D01*
X+794947Y+2185493D01*
X+794947Y+2224837D01*
X+810036Y+2209748D01*
X+832984Y+2209748D01*
X+849210Y+2225974D01*
X+849210Y+2248922D01*
X+832984Y+2265148D01*
X+810036Y+2265148D01*
X+794947Y+2250059D01*
X+794947Y+2279556D01*
X+816862Y+2279556D01*
X+816862Y+2308703D01*
X+822133Y+2308703D01*
X+855038Y+2341608D01*
X+928440Y+2341608D01*
X+1073982Y+2487150D01*
X+1204501Y+2487151D01*
X+1346635Y+2629285D01*
X+1346635Y+2503097D01*
X+2413794Y+2314859D02*
X+2486177Y+2242476D01*
X+2486177Y+2102212D01*
X+2483406Y+2093440D01*
X+2478254Y+2088288D01*
X+2449907Y+2116634D01*
X+2351739Y+2116634D01*
X+2319402Y+2084297D01*
X+2319402Y+2166714D01*
X+2319401Y+2166714D01*
X+2319401Y+2256714D01*
X+2304740Y+2256714D01*
X+2304740Y+2307390D01*
X+2315452Y+2318102D01*
X+2407556Y+2318102D01*
X+2413794Y+2314859D01*
X+2386647Y+2188557D02*
X+2386647Y+2211505D01*
X+2402873Y+2227731D01*
X+2425821Y+2227731D01*
X+2442047Y+2211505D01*
X+2442047Y+2188557D01*
X+2425821Y+2172331D01*
X+2402873Y+2172331D01*
X+2386647Y+2188557D01*
X+1777539Y+2127831D02*
X+1769593Y+2111547D01*
X+1757699Y+2099653D01*
X+1757699Y+2043237D01*
X+1769799Y+2031137D01*
X+1597462Y+2031137D01*
X+1474082Y+2154517D01*
X+1474082Y+2160036D01*
X+1777539Y+2160036D01*
X+1777539Y+2127831D01*
X+2012724Y+1970036D02*
X+2012724Y+1923934D01*
X+1968922Y+1923934D01*
X+1968922Y+1926343D01*
X+1929031Y+1966234D01*
X+1903062Y+1966234D01*
X+2011662Y+2074834D01*
X+2012724Y+2074834D01*
X+2012724Y+1970036D01*
X+976782Y+1937602D02*
X+955718Y+1916537D01*
X+948522Y+1916537D01*
X+948522Y+1965862D01*
X+976782Y+1937602D01*
X+1391699Y+2100404D02*
X+1529214Y+1962888D01*
X+1529214Y+1907462D01*
X+1482603Y+1860851D01*
X+1482603Y+1880598D01*
X+1466377Y+1896824D01*
X+1443429Y+1896824D01*
X+1427203Y+1880598D01*
X+1427203Y+1857650D01*
X+1443429Y+1841424D01*
X+1463176Y+1841424D01*
X+1393146Y+1771394D01*
X+1388922Y+1771394D01*
X+1388922Y+2103181D01*
X+1391699Y+2100404D01*
X+1164724Y+1820036D02*
X+1164724Y+1723634D01*
X+1098338Y+1723634D01*
X+1098338Y+1741951D01*
X+1058447Y+1781842D01*
X+1028596Y+1781842D01*
X+1071630Y+1824876D01*
X+1164724Y+1824876D01*
X+1164724Y+1820036D01*
X+616324Y+1697435D02*
X+559863Y+1753896D01*
X+616324Y+1753896D01*
X+616324Y+1697435D01*
X+2521901Y+1758208D02*
X+2521901Y+1716599D01*
X+2416901Y+1716599D01*
X+2416901Y+1702489D01*
X+2325138Y+1702489D01*
X+2291228Y+1668579D01*
X+2236922Y+1668579D01*
X+2236922Y+1774876D01*
X+2538569Y+1774876D01*
X+2521901Y+1758208D01*
X+2272300Y+1708526D02*
X+2272300Y+1731474D01*
X+2288526Y+1747700D01*
X+2311474Y+1747700D01*
X+2327700Y+1731474D01*
X+2327700Y+1708526D01*
X+2311474Y+1692300D01*
X+2288526Y+1692300D01*
X+2272300Y+1708526D01*
X+665044Y+1593126D02*
X+657276Y+1585358D01*
X+657276Y+1563804D01*
X+656950Y+1563804D01*
X+643413Y+1577341D01*
X+643413Y+1646836D01*
X+665044Y+1646836D01*
X+665044Y+1593126D01*
X+2562376Y+1522588D02*
X+2549591Y+1509163D01*
X+2477599Y+1509163D01*
X+2477599Y+1538796D01*
X+2487302Y+1529093D01*
X+2510250Y+1529093D01*
X+2526476Y+1545319D01*
X+2526476Y+1568267D01*
X+2510250Y+1584493D01*
X+2487302Y+1584493D01*
X+2477599Y+1574790D01*
X+2477599Y+1595401D01*
X+2562376Y+1595401D01*
X+2562376Y+1522588D01*
X+1021792Y+1321901D02*
X+1067530Y+1321901D01*
X+1067528Y+1321895D01*
X+1052406Y+1301558D01*
X+1000922Y+1250074D01*
X+1000922Y+1342771D01*
X+1021792Y+1321901D01*
X+2420887Y+1273077D02*
X+2439681Y+1264529D01*
X+2448198Y+1264529D01*
X+2464969Y+1256165D01*
X+2471948Y+1249186D01*
X+2471948Y+1197611D01*
X+2478325Y+1191234D01*
X+2414939Y+1191234D01*
X+2414939Y+1279899D01*
X+2420887Y+1273077D01*
X+2347224Y+1166714D02*
X+2331727Y+1166714D01*
X+2331727Y+1185093D01*
X+2347224Y+1185093D01*
X+2347224Y+1166714D01*
X+2211421Y+1441421D02*
X+2211901Y+1441421D01*
X+2211901Y+1391792D01*
X+2251792Y+1351901D01*
X+2277781Y+1351901D01*
X+2277781Y+1188167D01*
X+2276327Y+1186713D01*
X+2276327Y+1166714D01*
X+2273653Y+1166714D01*
X+2273653Y+1218131D01*
X+2228359Y+1268991D01*
X+2159472Y+1337878D01*
X+2119402Y+1337878D01*
X+2119402Y+1366714D01*
X+2104162Y+1366714D01*
X+2104162Y+1371228D01*
X+2028922Y+1446468D01*
X+2028922Y+1520036D01*
X+2211421Y+1520036D01*
X+2211421Y+1441421D01*
X+910426Y+1159578D02*
X+733504Y+1160610D01*
X+719322Y+1166985D01*
X+710271Y+1176036D01*
X+926884Y+1176036D01*
X+910426Y+1159578D01*
X+1892244Y+1229556D02*
X+1942401Y+1229556D01*
X+1951838Y+1220119D01*
X+1952768Y+1220119D01*
X+1892376Y+1159727D01*
X+1892376Y+1116798D01*
X+1881474Y+1127700D01*
X+1869402Y+1127700D01*
X+1869402Y+1264174D01*
X+1852072Y+1264174D01*
X+1852072Y+1274125D01*
X+1823447Y+1302750D01*
X+1823447Y+1312036D01*
X+1892244Y+1312036D01*
X+1892244Y+1229556D01*
X+1671597Y+1159015D02*
X+1728013Y+1159015D01*
X+1732244Y+1163246D01*
X+1732244Y+1042876D01*
X+1578838Y+1042876D01*
X+1609788Y+1070799D01*
X+1618259Y+1089664D01*
X+1618259Y+1148243D01*
X+1649195Y+1181417D01*
X+1671597Y+1159015D01*
X+1657928Y+1084350D02*
X+1657928Y+1107298D01*
X+1674154Y+1123524D01*
X+1697102Y+1123524D01*
X+1713328Y+1107298D01*
X+1713328Y+1084350D01*
X+1697102Y+1068124D01*
X+1674154Y+1068124D01*
X+1657928Y+1084350D01*
X+2435148Y+1058995D02*
X+2462909Y+1031234D01*
X+2369402Y+1031234D01*
X+2369402Y+1065036D01*
X+2429107Y+1065036D01*
X+2435148Y+1058995D01*
X+1411901Y+991792D02*
X+1451792Y+951901D01*
X+1496470Y+951901D01*
X+1496470Y+892704D01*
X+1481474Y+907700D01*
X+1458526Y+907700D01*
X+1442300Y+891474D01*
X+1442300Y+868526D01*
X+1458526Y+852300D01*
X+1481474Y+852300D01*
X+1496470Y+867296D01*
X+1496470Y+844401D01*
X+1452005Y+844401D01*
X+1435288Y+861118D01*
X+1435288Y+921408D01*
X+1388608Y+968088D01*
X+1388608Y+1032820D01*
X+1411901Y+1032820D01*
X+1411901Y+991792D01*
X+2159069Y+1203581D02*
X+2178405Y+1181869D01*
X+2178405Y+1011427D01*
X+2229320Y+960512D01*
X+2232244Y+960512D01*
X+2232244Y+939556D01*
X+2302052Y+939556D01*
X+2325471Y+916137D01*
X+2347224Y+916137D01*
X+2347224Y+905036D01*
X+2355199Y+905036D01*
X+2355199Y+798259D01*
X+2260586Y+798259D01*
X+2180152Y+717825D01*
X+2180152Y+990624D01*
X+2004894Y+990624D01*
X+2004894Y+872325D01*
X+1990949Y+886270D01*
X+1951497Y+886270D01*
X+1949628Y+884401D01*
X+1948668Y+884401D01*
X+1948668Y+964876D01*
X+1888018Y+964876D01*
X+1987624Y+1064482D01*
X+1987624Y+1120275D01*
X+1997976Y+1130627D01*
X+2017977Y+1130627D01*
X+2097624Y+1210274D01*
X+2097624Y+1229556D01*
X+2119402Y+1229556D01*
X+2119402Y+1242630D01*
X+2120020Y+1242630D01*
X+2159069Y+1203581D01*
X+1156530Y+598934D02*
X+795976Y+598934D01*
X+760874Y+634036D01*
X+1000922Y+634036D01*
X+1000922Y+684636D01*
X+1124427Y+684636D01*
X+1156530Y+716738D01*
X+1156530Y+598934D01*
X+1287131Y+524033D02*
X+1287131Y+524034D01*
X+1301026Y+511108D01*
X+1618259Y+511108D01*
X+1618259Y+477972D01*
X+1610316Y+477972D01*
X+1594090Y+461746D01*
X+1594090Y+438798D01*
X+1610316Y+422572D01*
X+1618259Y+422572D01*
X+1618259Y+400799D01*
X+1369999Y+400799D01*
X+1172600Y+598198D01*
X+1207403Y+598198D01*
X+1287131Y+524033D01*
X+1164724Y+1773135D02*
X+1276823Y+1773135D01*
X+1388922Y+1773135D02*
X+1276823Y+1773135D01*
X+2012724Y+2073135D02*
X+2124823Y+2073135D01*
X+1475823Y+2160036D02*
X+1475823Y+2272135D01*
X+823623Y+2129814D02*
X+823623Y+2061235D01*
X+892202Y+2061235D02*
X+823623Y+2061235D01*
X+665044Y+1616735D02*
X+733623Y+1616735D01*
X+948522Y+1945935D02*
X+860423Y+1945935D01*
X+616324Y+1729935D02*
X+704423Y+1729935D01*
X+1450823Y+2466714D02*
X+1450823Y+2398135D01*
X+1519402Y+2398135D02*
X+1450823Y+2398135D01*
X+2319402Y+2098135D02*
X+2250823Y+2098135D01*
X+1892244Y+1298135D02*
X+1960823Y+1298135D01*
X+2092523Y+990624D02*
X+2092523Y+905535D01*
X+2180152Y+905535D02*
X+2092523Y+905535D01*
X+2004894Y+905535D02*
X+2092523Y+905535D01*
X+912724Y+2788135D02*
X+970823Y+2788135D01*
X+970823Y+2901234D02*
X+970823Y+2788135D01*
X+1732244Y+1098135D02*
X+1800823Y+1098135D01*
X+2402823Y+1065036D02*
X+2402823Y+1128135D01*
X+823Y+309236D02*
X+823Y+398135D01*
X-138876Y+398135D02*
X+823Y+398135D01*
X+140522Y+398135D02*
X+823Y+398135D01*
X+1000922Y+1290135D02*
X+927823Y+1290135D01*
X+800823Y+1404234D02*
X+800823Y+1290135D01*
X+800823Y+1176036D02*
X+800823Y+1290135D01*
X+546823Y+1404234D02*
X+546823Y+1290135D01*
X+546823Y+1176036D02*
X+546823Y+1290135D01*
X+473724Y+1290135D02*
X+546823Y+1290135D01*
X+800823Y+862234D02*
X+800823Y+748135D01*
X+800823Y+634036D02*
X+800823Y+748135D01*
X+2414939Y+1253672D02*
X+2346360Y+1253672D01*
X+2277781Y+1253672D02*
X+2346360Y+1253672D01*
X+2346360Y+1185093D02*
X+2346360Y+1253672D01*
X+3050000Y+2241101D02*
X+3050000Y+2330000D01*
X+3189699Y+2330000D02*
X+3050000Y+2330000D01*
X+2910301Y+2330000D02*
X+3050000Y+2330000D01*
X+255734Y+2598135D02*
X+340823Y+2598135D01*
X+340823Y+2510506D02*
X+340823Y+2598135D01*
X+255734Y+2398135D02*
X+340823Y+2398135D01*
X+340823Y+2485764D02*
X+340823Y+2398135D01*
X+340823Y+2310506D02*
X+340823Y+2398135D01*
X+1389722Y-101865D02*
X+1300823Y-101865D01*
X+1211924Y-101865D02*
X+1300823Y-101865D01*
X+1300823Y+37834D02*
X+1300823Y-101865D01*
X+1300823Y-241564D02*
X+1300823Y-101865D01*
X+1189722Y-101865D02*
X+1100823Y-101865D01*
X+1100823Y+37834D02*
X+1100823Y-101865D01*
X+1100823Y-241564D02*
X+1100823Y-101865D01*
X+3050823Y+849236D02*
X+3050823Y+938135D01*
X+3050823Y+1027034D02*
X+3050823Y+938135D01*
X+3190522Y+938135D02*
X+3050823Y+938135D01*
X+2911124Y+938135D02*
X+3050823Y+938135D01*
X+2117949Y+2900000D02*
X+2010000Y+2900000D01*
D19*
X+1276823Y+2123135D03*
X+1276823Y+2073135D03*
X+1276823Y+2023135D03*
X+1276823Y+1973135D03*
X+1276823Y+1923135D03*
X+1276823Y+1873135D03*
X+1276823Y+1823135D03*
X+1276823Y+1773135D03*
X+1276823Y+1723135D03*
X+1276823Y+1673135D03*
X+1276823Y+1623135D03*
X+1276823Y+1573135D03*
D70*
X+1425823Y+1424135D03*
X+1475823Y+1424135D03*
X+1525823Y+1424135D03*
X+1575823Y+1424135D03*
X+1625823Y+1424135D03*
X+1675823Y+1424135D03*
X+1725823Y+1424135D03*
X+1775823Y+1424135D03*
X+1825823Y+1424135D03*
X+1875823Y+1424135D03*
X+1925823Y+1424135D03*
X+1975823Y+1424135D03*
D19*
X+2124823Y+1573135D03*
X+2124823Y+1623135D03*
X+2124823Y+1673135D03*
X+2124823Y+1723135D03*
X+2124823Y+1773135D03*
X+2124823Y+1823135D03*
X+2124823Y+1873135D03*
X+2124823Y+1923135D03*
X+2124823Y+1973135D03*
X+2124823Y+2023135D03*
X+2124823Y+2073135D03*
X+2124823Y+2123135D03*
D70*
X+1975823Y+2272135D03*
X+1925823Y+2272135D03*
X+1875823Y+2272135D03*
X+1825823Y+2272135D03*
X+1775823Y+2272135D03*
X+1725823Y+2272135D03*
X+1675823Y+2272135D03*
X+1625823Y+2272135D03*
X+1575823Y+2272135D03*
X+1525823Y+2272135D03*
X+1475823Y+2272135D03*
X+1425823Y+2272135D03*
D71*
X+733623Y+2061235D03*
X+823623Y+2061235D03*
X+823623Y+1616735D03*
X+733623Y+1616735D03*
D20*
X+581223Y+1819935D03*
X+581223Y+1919935D03*
D21*
X+860423Y+1729935D03*
X+860423Y+1945935D03*
X+704423Y+1945935D03*
X+704423Y+1729935D03*
D71*
X+1360823Y+2398135D03*
X+1450823Y+2398135D03*
X+2250822Y+2188135D03*
X+2250823Y+2098135D03*
X+1960823Y+1298135D03*
X+2050823Y+1298135D03*
D22*
X+1622569Y+666777D03*
X+1662569Y+666777D03*
X+1702569Y+666777D03*
X+1742569Y+666777D03*
X+1782569Y+666777D03*
X+1822569Y+666777D03*
D23*
X+1872569Y+716777D03*
X+1872569Y+756777D03*
X+1872569Y+796777D03*
X+1872569Y+836777D03*
X+1872569Y+876777D03*
X+1872569Y+916777D03*
D24*
X+1822569Y+966777D03*
X+1782569Y+966777D03*
X+1742569Y+966777D03*
X+1702569Y+966777D03*
X+1662569Y+966777D03*
X+1622569Y+966777D03*
D25*
X+1572569Y+916777D03*
X+1572569Y+876777D03*
X+1572569Y+836777D03*
X+1572569Y+796777D03*
X+1572569Y+756777D03*
X+1572569Y+716777D03*
D26*
X+1722569Y+816777D03*
D27*
X+1863348Y+452409D03*
X+1703348Y+452409D03*
D28*
X+1222569Y+666777D03*
X+1322569Y+666777D03*
X+1222569Y+816777D03*
X+1322569Y+816777D03*
X+1222569Y+966777D03*
X+1322569Y+966777D03*
D29*
X+2092523Y+745535D03*
X+2092523Y+905535D03*
D72*
X+1230823Y+2788135D03*
X+1165823Y+2788135D03*
X+1100823Y+2788135D03*
X+1035823Y+2788135D03*
X+970823Y+2788135D03*
D73*
X+1500823Y+3048135D03*
X+700823Y+3048135D03*
D30*
X+823Y-1865D03*
X+823Y+2998135D03*
X+3000823Y+2998135D03*
X+3000823Y-1865D03*
D28*
X+1600823Y+2698135D03*
X+1500823Y+2698135D03*
D20*
X+1800823Y+1198135D03*
X+1800823Y+1098135D03*
D28*
X+2350823Y+2778135D03*
X+2250823Y+2778135D03*
X+2150823Y+2648135D03*
X+2050823Y+2648135D03*
D31*
X+2402823Y+1128135D03*
X+2468823Y+1128135D03*
X+2532823Y+1128135D03*
X+2598823Y+1128135D03*
X+2598823Y+968135D03*
X+2532823Y+968135D03*
X+2468823Y+968135D03*
X+2402823Y+968135D03*
D20*
X+2700823Y+998135D03*
X+2700823Y+1098135D03*
D28*
X+2580000Y+840000D03*
X+2480000Y+840000D03*
D71*
X+2300823Y+1098135D03*
X+2300823Y+1008135D03*
D32*
X+1500823Y-101865D03*
X+1700823Y-101865D03*
X+1900823Y-101865D03*
X+2100823Y-101865D03*
X+2300823Y-101865D03*
X+2500823Y-101865D03*
D33*
X+823Y+798135D03*
X+823Y+598135D03*
X+823Y+398135D03*
X+823Y+1398135D03*
X+823Y+1198135D03*
X+823Y+998135D03*
X+823Y+1798135D03*
X+823Y+1598135D03*
D34*
X+927823Y+1290135D03*
X+800823Y+1290135D03*
X+673823Y+1290135D03*
X+546823Y+1290135D03*
X+546823Y+748135D03*
X+673823Y+748135D03*
X+800823Y+748135D03*
X+927823Y+748135D03*
D35*
X+2673000Y+1453000D03*
X+2673000Y+1503000D03*
X+2673000Y+1553000D03*
X+2673000Y+1603000D03*
D36*
X+2620000Y+1656000D03*
X+2570000Y+1656000D03*
X+2520000Y+1656000D03*
X+2470000Y+1656000D03*
D35*
X+2417000Y+1603000D03*
X+2417000Y+1553000D03*
X+2417000Y+1503000D03*
X+2417000Y+1453000D03*
D36*
X+2470000Y+1400000D03*
X+2520000Y+1400000D03*
X+2570000Y+1400000D03*
X+2620000Y+1400000D03*
D71*
X+2280000Y+1600000D03*
X+2280000Y+1510000D03*
X+2346360Y+1253672D03*
X+2346360Y+1343672D03*
D33*
X+3050000Y+2150000D03*
X+3050000Y+2330000D03*
X+3050823Y+2498135D03*
X+3050823Y+448135D03*
X+3050823Y+648135D03*
D27*
X+500823Y+2598135D03*
X+340823Y+2598135D03*
D28*
X+450823Y+2748135D03*
X+350823Y+2748135D03*
D27*
X+500823Y+2398135D03*
X+340823Y+2398135D03*
D28*
X+650823Y+2348135D03*
X+750823Y+2348135D03*
D33*
X+3050823Y+1148135D03*
X+3050823Y+1348135D03*
X+3050823Y+1548135D03*
X+3050823Y+1748135D03*
D32*
X+1300823Y-101865D03*
X+1100823Y-101865D03*
D37*
X+2400823Y+1998135D03*
D32*
X+900823Y-101865D03*
D33*
X+3050000Y+1960000D03*
X+3050823Y+938135D03*
D37*
X+1980000Y+2480000D03*
D38*
X+2010000Y+2900000D03*
D39*
X+2010000Y+2900000D03*
D38*
X+1810000Y+2900000D03*
D39*
X+1810000Y+2900000D03*
D38*
X+2010000Y+3100000D03*
D39*
X+2010000Y+3100000D03*
D38*
X+1810000Y+3100000D03*
D39*
X+1810000Y+3100000D03*
D13*
X-299177Y+3078135D02*
X-295100Y+3135532D01*
X-282966Y+3185752D01*
X-262922Y+3228648D01*
X-235114Y+3264072D01*
X-199689Y+3291880D01*
X-156794Y+3311924D01*
X-106574Y+3324058D01*
X-49177Y+3328135D01*
X+3050823Y+3328135D02*
X+3108220Y+3324058D01*
X+3158440Y+3311924D01*
X+3201335Y+3291880D01*
X+3236760Y+3264072D01*
X+3264568Y+3228648D01*
X+3284612Y+3185752D01*
X+3296746Y+3135532D01*
X+3300823Y+3078135D01*
X+3300823Y-51865D02*
X+3296746Y-109262D01*
X+3284612Y-159482D01*
X+3264568Y-202378D01*
X+3236760Y-237802D01*
X+3201335Y-265610D01*
X+3158440Y-285654D01*
X+3108220Y-297788D01*
X+3050823Y-301865D01*
X-49177Y-301865D02*
X-106574Y-297788D01*
X-156794Y-285654D01*
X-199689Y-265610D01*
X-235114Y-237802D01*
X-262922Y-202378D01*
X-282966Y-159482D01*
X-295100Y-109262D01*
X-299177Y-51865D01*
X-49177Y-301865D02*
X+3050823Y-301865D01*
X-299177Y-51865D02*
X-299177Y+3098135D01*
X-59177Y+3328135D02*
X+3040823Y+3328135D01*
X+3300823Y+3098135D02*
X+3300823Y-51865D01*
M02*
