G04 PROTEUS RS274X GERBER FILE*
%FSLAX45Y45*%
%MOMM*%
G01*
%ADD84C,0.050000*%
%ADD85C,0.270000*%
%ADD86C,0.349660*%
%ADD87C,0.243840*%
%ADD88C,0.057000*%
%ADD51C,0.100000*%
%ADD89C,0.400000*%
%ADD90C,0.176660*%
%ADD91C,0.180000*%
%ADD92C,0.143000*%
%ADD93C,0.396240*%
%ADD94C,0.093000*%
%ADD95C,0.360000*%
%ADD96C,0.396660*%
%ADD97C,0.048750*%
%ADD13C,0.203200*%
%ADD49C,0.200000*%
%ADD98C,0.086660*%
%ADD99C,0.046250*%
%ADD100C,0.608000*%
%ADD101C,0.249660*%
%ADD102C,0.170000*%
%ADD103C,0.078750*%
%ADD104C,0.052500*%
%ADD14C,0.152400*%
%ADD105C,0.558800*%
%ADD106C,0.187960*%
D84*
X+1178823Y+1326135D02*
X+2222823Y+1326135D01*
X+2222823Y+2370135D01*
X+1178823Y+2370135D01*
X+1178823Y+1326135D01*
D85*
X+1276823Y+2123135D02*
X+1276823Y+2123135D01*
D86*
X+1421091Y+1953034D02*
X+1421091Y+1778201D01*
X+1456057Y+1743235D01*
X+1595923Y+1743235D01*
X+1630890Y+1778201D01*
X+1630890Y+1953034D01*
X+1770756Y+1883101D02*
X+1840689Y+1953034D01*
X+1840689Y+1743235D01*
D84*
X+688623Y+2016235D02*
X+868623Y+2016235D01*
X+868623Y+2106235D01*
X+688623Y+2106235D01*
X+688623Y+2016235D01*
X+778623Y+2086235D02*
X+778623Y+2036235D01*
X+803623Y+2061235D02*
X+753623Y+2061235D01*
D87*
X+733623Y+2061235D02*
X+733623Y+2061235D01*
D88*
X+767223Y+2049835D02*
X+761523Y+2044135D01*
X+744423Y+2044135D01*
X+733023Y+2055535D01*
X+733023Y+2066935D01*
X+744423Y+2078335D01*
X+761523Y+2078335D01*
X+767223Y+2072635D01*
X+790023Y+2066935D02*
X+801423Y+2078335D01*
X+801423Y+2044135D01*
D84*
X+868623Y+1661735D02*
X+688623Y+1661735D01*
X+688623Y+1571735D01*
X+868623Y+1571735D01*
X+868623Y+1661735D01*
X+778623Y+1591735D02*
X+778623Y+1641735D01*
X+753623Y+1616735D02*
X+803623Y+1616735D01*
D87*
X+823623Y+1616735D02*
X+823623Y+1616735D01*
D88*
X+767223Y+1605335D02*
X+761523Y+1599635D01*
X+744423Y+1599635D01*
X+733023Y+1611035D01*
X+733023Y+1622435D01*
X+744423Y+1633835D01*
X+761523Y+1633835D01*
X+767223Y+1628135D01*
X+812823Y+1633835D02*
X+784323Y+1633835D01*
X+784323Y+1622435D01*
X+807123Y+1622435D01*
X+812823Y+1616735D01*
X+812823Y+1605335D01*
X+807123Y+1599635D01*
X+790023Y+1599635D01*
X+784323Y+1605335D01*
D84*
X+626223Y+1774935D02*
X+626223Y+1964935D01*
X+536223Y+1964935D01*
X+536223Y+1774935D01*
X+626223Y+1774935D01*
X+556223Y+1869935D02*
X+606223Y+1869935D01*
X+581223Y+1894935D02*
X+581223Y+1844935D01*
D87*
X+581223Y+1819935D02*
X+581223Y+1819935D01*
D88*
X+598323Y+1824335D02*
X+564123Y+1824335D01*
X+564123Y+1852835D01*
X+569823Y+1858535D01*
X+575523Y+1858535D01*
X+581223Y+1852835D01*
X+581223Y+1824335D01*
X+581223Y+1852835D02*
X+586923Y+1858535D01*
X+598323Y+1858535D01*
X+575523Y+1881335D02*
X+564123Y+1892735D01*
X+598323Y+1892735D01*
D51*
X+554423Y+1577935D02*
X+1067423Y+1577935D01*
X+1067423Y+2097935D01*
X+554423Y+2097935D01*
X+554423Y+1577935D01*
D89*
X+860423Y+1729935D02*
X+860423Y+1729935D01*
D90*
X+757924Y+1696603D02*
X+846257Y+1696603D01*
X+863923Y+1714269D01*
X+863923Y+1784935D01*
X+846257Y+1802602D01*
X+757924Y+1802602D01*
X+775590Y+1855601D02*
X+757924Y+1873268D01*
X+757924Y+1926267D01*
X+775590Y+1943934D01*
X+793257Y+1943934D01*
X+810923Y+1926267D01*
X+810923Y+1873268D01*
X+828590Y+1855601D01*
X+863923Y+1855601D01*
X+863923Y+1943934D01*
D84*
X+1315823Y+2353135D02*
X+1495823Y+2353135D01*
X+1495823Y+2443135D01*
X+1315823Y+2443135D01*
X+1315823Y+2353135D01*
X+1405823Y+2423135D02*
X+1405823Y+2373135D01*
X+1430823Y+2398135D02*
X+1380823Y+2398135D01*
D87*
X+1360823Y+2398135D02*
X+1360823Y+2398135D01*
D88*
X+1394423Y+2386735D02*
X+1388723Y+2381035D01*
X+1371623Y+2381035D01*
X+1360223Y+2392435D01*
X+1360223Y+2403835D01*
X+1371623Y+2415235D01*
X+1388723Y+2415235D01*
X+1394423Y+2409535D01*
X+1411523Y+2409535D02*
X+1417223Y+2415235D01*
X+1434323Y+2415235D01*
X+1440023Y+2409535D01*
X+1440023Y+2403835D01*
X+1434323Y+2398135D01*
X+1417223Y+2398135D01*
X+1411523Y+2392435D01*
X+1411523Y+2381035D01*
X+1440023Y+2381035D01*
D84*
X+2205822Y+2233135D02*
X+2205822Y+2053135D01*
X+2295822Y+2053135D01*
X+2295822Y+2233135D01*
X+2205822Y+2233135D01*
X+2275822Y+2143135D02*
X+2225822Y+2143135D01*
X+2250822Y+2118135D02*
X+2250822Y+2168135D01*
D87*
X+2250822Y+2188135D02*
X+2250822Y+2188135D01*
D88*
X+2262222Y+2131735D02*
X+2267922Y+2126035D01*
X+2267922Y+2108935D01*
X+2256522Y+2097535D01*
X+2245122Y+2097535D01*
X+2233722Y+2108935D01*
X+2233722Y+2126035D01*
X+2239422Y+2131735D01*
X+2239422Y+2148835D02*
X+2233722Y+2154535D01*
X+2233722Y+2171635D01*
X+2239422Y+2177335D01*
X+2245122Y+2177335D01*
X+2250822Y+2171635D01*
X+2256522Y+2177335D01*
X+2262222Y+2177335D01*
X+2267922Y+2171635D01*
X+2267922Y+2154535D01*
X+2262222Y+2148835D01*
X+2250822Y+2160235D02*
X+2250822Y+2171635D01*
D84*
X+1915823Y+1253135D02*
X+2095823Y+1253135D01*
X+2095823Y+1343135D01*
X+1915823Y+1343135D01*
X+1915823Y+1253135D01*
X+2005823Y+1323135D02*
X+2005823Y+1273135D01*
X+2030823Y+1298135D02*
X+1980823Y+1298135D01*
D87*
X+1960823Y+1298135D02*
X+1960823Y+1298135D01*
D88*
X+1994423Y+1286735D02*
X+1988723Y+1281035D01*
X+1971623Y+1281035D01*
X+1960223Y+1292435D01*
X+1960223Y+1303835D01*
X+1971623Y+1315235D01*
X+1988723Y+1315235D01*
X+1994423Y+1309535D01*
X+2040023Y+1309535D02*
X+2034323Y+1315235D01*
X+2017223Y+1315235D01*
X+2011523Y+1309535D01*
X+2011523Y+1286735D01*
X+2017223Y+1281035D01*
X+2034323Y+1281035D01*
X+2040023Y+1286735D01*
X+2040023Y+1292435D01*
X+2034323Y+1298135D01*
X+2011523Y+1298135D01*
D84*
X+1510569Y+604777D02*
X+1934569Y+604777D01*
X+1934569Y+1028777D01*
X+1510569Y+1028777D01*
X+1510569Y+604777D01*
D91*
X+1622569Y+666777D02*
X+1622569Y+666777D01*
D92*
X+1679669Y+702377D02*
X+1751169Y+702377D01*
X+1765469Y+716677D01*
X+1765469Y+773877D01*
X+1751169Y+788177D01*
X+1679669Y+788177D01*
X+1693969Y+831077D02*
X+1679669Y+845377D01*
X+1679669Y+888277D01*
X+1693969Y+902577D01*
X+1708269Y+902577D01*
X+1722569Y+888277D01*
X+1736869Y+902577D01*
X+1751169Y+902577D01*
X+1765469Y+888277D01*
X+1765469Y+845377D01*
X+1751169Y+831077D01*
X+1722569Y+859677D02*
X+1722569Y+888277D01*
D84*
X+1938348Y+527409D02*
X+1628348Y+527409D01*
X+1628348Y+377409D01*
X+1938348Y+377409D01*
X+1938348Y+527409D01*
X+1783348Y+402409D02*
X+1783348Y+502409D01*
X+1733348Y+452409D02*
X+1833348Y+452409D01*
D93*
X+1863348Y+452409D02*
X+1863348Y+452409D01*
D94*
X+1764748Y+433809D02*
X+1755448Y+424509D01*
X+1727548Y+424509D01*
X+1708948Y+443109D01*
X+1708948Y+461709D01*
X+1727548Y+480309D01*
X+1755448Y+480309D01*
X+1764748Y+471009D01*
X+1792648Y+480309D02*
X+1839148Y+480309D01*
X+1839148Y+471009D01*
X+1792648Y+424509D01*
D84*
X+1177569Y+621777D02*
X+1367569Y+621777D01*
X+1367569Y+711777D01*
X+1177569Y+711777D01*
X+1177569Y+621777D01*
X+1272569Y+691777D02*
X+1272569Y+641777D01*
X+1297569Y+666777D02*
X+1247569Y+666777D01*
D87*
X+1222569Y+666777D02*
X+1222569Y+666777D01*
D88*
X+1226969Y+649677D02*
X+1226969Y+683877D01*
X+1255469Y+683877D01*
X+1261169Y+678177D01*
X+1261169Y+672477D01*
X+1255469Y+666777D01*
X+1226969Y+666777D01*
X+1255469Y+666777D02*
X+1261169Y+661077D01*
X+1261169Y+649677D01*
X+1306769Y+678177D02*
X+1301069Y+683877D01*
X+1283969Y+683877D01*
X+1278269Y+678177D01*
X+1278269Y+655377D01*
X+1283969Y+649677D01*
X+1301069Y+649677D01*
X+1306769Y+655377D01*
X+1306769Y+661077D01*
X+1301069Y+666777D01*
X+1278269Y+666777D01*
D84*
X+1177569Y+771777D02*
X+1367569Y+771777D01*
X+1367569Y+861777D01*
X+1177569Y+861777D01*
X+1177569Y+771777D01*
X+1272569Y+841777D02*
X+1272569Y+791777D01*
X+1297569Y+816777D02*
X+1247569Y+816777D01*
D87*
X+1222569Y+816777D02*
X+1222569Y+816777D01*
D88*
X+1226969Y+799677D02*
X+1226969Y+833877D01*
X+1255469Y+833877D01*
X+1261169Y+828177D01*
X+1261169Y+822477D01*
X+1255469Y+816777D01*
X+1226969Y+816777D01*
X+1255469Y+816777D02*
X+1261169Y+811077D01*
X+1261169Y+799677D01*
X+1278269Y+833877D02*
X+1306769Y+833877D01*
X+1306769Y+828177D01*
X+1278269Y+799677D01*
D84*
X+1177569Y+921777D02*
X+1367569Y+921777D01*
X+1367569Y+1011777D01*
X+1177569Y+1011777D01*
X+1177569Y+921777D01*
X+1272569Y+991777D02*
X+1272569Y+941777D01*
X+1297569Y+966777D02*
X+1247569Y+966777D01*
D87*
X+1222569Y+966777D02*
X+1222569Y+966777D01*
D88*
X+1226969Y+949677D02*
X+1226969Y+983877D01*
X+1255469Y+983877D01*
X+1261169Y+978177D01*
X+1261169Y+972477D01*
X+1255469Y+966777D01*
X+1226969Y+966777D01*
X+1255469Y+966777D02*
X+1261169Y+961077D01*
X+1261169Y+949677D01*
X+1283969Y+966777D02*
X+1278269Y+972477D01*
X+1278269Y+978177D01*
X+1283969Y+983877D01*
X+1301069Y+983877D01*
X+1306769Y+978177D01*
X+1306769Y+972477D01*
X+1301069Y+966777D01*
X+1283969Y+966777D01*
X+1278269Y+961077D01*
X+1278269Y+955377D01*
X+1283969Y+949677D01*
X+1301069Y+949677D01*
X+1306769Y+955377D01*
X+1306769Y+961077D01*
X+1301069Y+966777D01*
D84*
X+2167523Y+670535D02*
X+2167523Y+980535D01*
X+2017523Y+980535D01*
X+2017523Y+670535D01*
X+2167523Y+670535D01*
X+2042523Y+825535D02*
X+2142523Y+825535D01*
X+2092523Y+875535D02*
X+2092523Y+775535D01*
D93*
X+2092523Y+745535D02*
X+2092523Y+745535D01*
D94*
X+2111123Y+806935D02*
X+2120423Y+797635D01*
X+2120423Y+769735D01*
X+2101823Y+751135D01*
X+2083223Y+751135D01*
X+2064623Y+769735D01*
X+2064623Y+797635D01*
X+2073923Y+806935D01*
X+2092523Y+844135D02*
X+2083223Y+834835D01*
X+2073923Y+834835D01*
X+2064623Y+844135D01*
X+2064623Y+872035D01*
X+2073923Y+881335D01*
X+2083223Y+881335D01*
X+2092523Y+872035D01*
X+2092523Y+844135D01*
X+2101823Y+834835D01*
X+2111123Y+834835D01*
X+2120423Y+844135D01*
X+2120423Y+872035D01*
X+2111123Y+881335D01*
X+2101823Y+881335D01*
X+2092523Y+872035D01*
D51*
X+510823Y+2573135D02*
X+1690823Y+2573135D01*
X+1690823Y+3388135D01*
X+510823Y+3388135D01*
X+510823Y+2573135D01*
D95*
X+1230823Y+2788135D02*
X+1230823Y+2788135D01*
D96*
X+783491Y+2940968D02*
X+783491Y+2901301D01*
X+823157Y+2861635D01*
X+981823Y+2861635D01*
X+1021490Y+2901301D01*
X+1021490Y+3099634D01*
X+1140489Y+3059968D02*
X+1180156Y+3099634D01*
X+1299155Y+3099634D01*
X+1338822Y+3059968D01*
X+1338822Y+3020301D01*
X+1299155Y+2980635D01*
X+1338822Y+2940968D01*
X+1338822Y+2901301D01*
X+1299155Y+2861635D01*
X+1180156Y+2861635D01*
X+1140489Y+2901301D01*
X+1219822Y+2980635D02*
X+1299155Y+2980635D01*
D84*
X+1645823Y+2743135D02*
X+1455823Y+2743135D01*
X+1455823Y+2653135D01*
X+1645823Y+2653135D01*
X+1645823Y+2743135D01*
X+1550823Y+2673135D02*
X+1550823Y+2723135D01*
X+1525823Y+2698135D02*
X+1575823Y+2698135D01*
D87*
X+1600823Y+2698135D02*
X+1600823Y+2698135D01*
D88*
X+1505223Y+2681035D02*
X+1505223Y+2715235D01*
X+1533723Y+2715235D01*
X+1539423Y+2709535D01*
X+1539423Y+2703835D01*
X+1533723Y+2698135D01*
X+1505223Y+2698135D01*
X+1533723Y+2698135D02*
X+1539423Y+2692435D01*
X+1539423Y+2681035D01*
X+1585023Y+2692435D02*
X+1550823Y+2692435D01*
X+1573623Y+2715235D01*
X+1573623Y+2681035D01*
D84*
X+1755823Y+1243135D02*
X+1755823Y+1053135D01*
X+1845823Y+1053135D01*
X+1845823Y+1243135D01*
X+1755823Y+1243135D01*
X+1825823Y+1148135D02*
X+1775823Y+1148135D01*
X+1800823Y+1123135D02*
X+1800823Y+1173135D01*
D87*
X+1800823Y+1198135D02*
X+1800823Y+1198135D01*
D88*
X+1817923Y+1102535D02*
X+1783723Y+1102535D01*
X+1783723Y+1131035D01*
X+1789423Y+1136735D01*
X+1795123Y+1136735D01*
X+1800823Y+1131035D01*
X+1800823Y+1102535D01*
X+1800823Y+1131035D02*
X+1806523Y+1136735D01*
X+1817923Y+1136735D01*
X+1783723Y+1182335D02*
X+1783723Y+1153835D01*
X+1795123Y+1153835D01*
X+1795123Y+1176635D01*
X+1800823Y+1182335D01*
X+1812223Y+1182335D01*
X+1817923Y+1176635D01*
X+1817923Y+1159535D01*
X+1812223Y+1153835D01*
D84*
X+2395823Y+2823135D02*
X+2205823Y+2823135D01*
X+2205823Y+2733135D01*
X+2395823Y+2733135D01*
X+2395823Y+2823135D01*
X+2300823Y+2753135D02*
X+2300823Y+2803135D01*
X+2275823Y+2778135D02*
X+2325823Y+2778135D01*
D87*
X+2350823Y+2778135D02*
X+2350823Y+2778135D01*
D97*
X+2242323Y+2763510D02*
X+2242323Y+2792760D01*
X+2266698Y+2792760D01*
X+2271573Y+2787885D01*
X+2271573Y+2783010D01*
X+2266698Y+2778135D01*
X+2242323Y+2778135D01*
X+2266698Y+2778135D02*
X+2271573Y+2773260D01*
X+2271573Y+2763510D01*
X+2291073Y+2783010D02*
X+2300823Y+2792760D01*
X+2300823Y+2763510D01*
X+2325198Y+2787885D02*
X+2330073Y+2792760D01*
X+2344698Y+2792760D01*
X+2349573Y+2787885D01*
X+2349573Y+2783010D01*
X+2344698Y+2778135D01*
X+2330073Y+2778135D01*
X+2325198Y+2773260D01*
X+2325198Y+2763510D01*
X+2349573Y+2763510D01*
D84*
X+2195823Y+2693135D02*
X+2005823Y+2693135D01*
X+2005823Y+2603135D01*
X+2195823Y+2603135D01*
X+2195823Y+2693135D01*
X+2100823Y+2623135D02*
X+2100823Y+2673135D01*
X+2075823Y+2648135D02*
X+2125823Y+2648135D01*
D87*
X+2150823Y+2648135D02*
X+2150823Y+2648135D01*
D97*
X+2042323Y+2633510D02*
X+2042323Y+2662760D01*
X+2066698Y+2662760D01*
X+2071573Y+2657885D01*
X+2071573Y+2653010D01*
X+2066698Y+2648135D01*
X+2042323Y+2648135D01*
X+2066698Y+2648135D02*
X+2071573Y+2643260D01*
X+2071573Y+2633510D01*
X+2091073Y+2653010D02*
X+2100823Y+2662760D01*
X+2100823Y+2633510D01*
X+2125198Y+2657885D02*
X+2130073Y+2662760D01*
X+2144698Y+2662760D01*
X+2149573Y+2657885D01*
X+2149573Y+2653010D01*
X+2144698Y+2648135D01*
X+2149573Y+2643260D01*
X+2149573Y+2638385D01*
X+2144698Y+2633510D01*
X+2130073Y+2633510D01*
X+2125198Y+2638385D01*
X+2134948Y+2648135D02*
X+2144698Y+2648135D01*
D13*
X+2370823Y+943135D02*
X+2630823Y+943135D01*
X+2630823Y+1153135D01*
X+2370823Y+1153135D01*
X+2370823Y+943135D01*
D49*
X+2402823Y+1128135D02*
X+2402823Y+1128135D01*
D98*
X+2431491Y+1074134D02*
X+2431491Y+1030801D01*
X+2440157Y+1022135D01*
X+2474823Y+1022135D01*
X+2483490Y+1030801D01*
X+2483490Y+1074134D01*
X+2552822Y+1065468D02*
X+2544155Y+1074134D01*
X+2518156Y+1074134D01*
X+2509489Y+1065468D01*
X+2509489Y+1030801D01*
X+2518156Y+1022135D01*
X+2544155Y+1022135D01*
X+2552822Y+1030801D01*
X+2552822Y+1039468D01*
X+2544155Y+1048135D01*
X+2509489Y+1048135D01*
D84*
X+2745823Y+953135D02*
X+2745823Y+1143135D01*
X+2655823Y+1143135D01*
X+2655823Y+953135D01*
X+2745823Y+953135D01*
X+2675823Y+1048135D02*
X+2725823Y+1048135D01*
X+2700823Y+1073135D02*
X+2700823Y+1023135D01*
D87*
X+2700823Y+998135D02*
X+2700823Y+998135D01*
D88*
X+2717923Y+1002535D02*
X+2683723Y+1002535D01*
X+2683723Y+1031035D01*
X+2689423Y+1036735D01*
X+2695123Y+1036735D01*
X+2700823Y+1031035D01*
X+2700823Y+1002535D01*
X+2700823Y+1031035D02*
X+2706523Y+1036735D01*
X+2717923Y+1036735D01*
X+2689423Y+1053835D02*
X+2683723Y+1059535D01*
X+2683723Y+1076635D01*
X+2689423Y+1082335D01*
X+2695123Y+1082335D01*
X+2700823Y+1076635D01*
X+2700823Y+1059535D01*
X+2706523Y+1053835D01*
X+2717923Y+1053835D01*
X+2717923Y+1082335D01*
D84*
X+2625000Y+885000D02*
X+2435000Y+885000D01*
X+2435000Y+795000D01*
X+2625000Y+795000D01*
X+2625000Y+885000D01*
X+2530000Y+815000D02*
X+2530000Y+865000D01*
X+2505000Y+840000D02*
X+2555000Y+840000D01*
D87*
X+2580000Y+840000D02*
X+2580000Y+840000D01*
D88*
X+2484400Y+822900D02*
X+2484400Y+857100D01*
X+2512900Y+857100D01*
X+2518600Y+851400D01*
X+2518600Y+845700D01*
X+2512900Y+840000D01*
X+2484400Y+840000D01*
X+2512900Y+840000D02*
X+2518600Y+834300D01*
X+2518600Y+822900D01*
X+2535700Y+851400D02*
X+2541400Y+857100D01*
X+2558500Y+857100D01*
X+2564200Y+851400D01*
X+2564200Y+845700D01*
X+2558500Y+840000D01*
X+2564200Y+834300D01*
X+2564200Y+828600D01*
X+2558500Y+822900D01*
X+2541400Y+822900D01*
X+2535700Y+828600D01*
X+2547100Y+840000D02*
X+2558500Y+840000D01*
D84*
X+2255823Y+1143135D02*
X+2255823Y+963135D01*
X+2345823Y+963135D01*
X+2345823Y+1143135D01*
X+2255823Y+1143135D01*
X+2325823Y+1053135D02*
X+2275823Y+1053135D01*
X+2300823Y+1028135D02*
X+2300823Y+1078135D01*
D87*
X+2300823Y+1098135D02*
X+2300823Y+1098135D01*
D99*
X+2310073Y+1025385D02*
X+2314698Y+1020760D01*
X+2314698Y+1006885D01*
X+2305448Y+997635D01*
X+2296198Y+997635D01*
X+2286948Y+1006885D01*
X+2286948Y+1020760D01*
X+2291573Y+1025385D01*
X+2296198Y+1043885D02*
X+2286948Y+1053135D01*
X+2314698Y+1053135D01*
X+2305448Y+1099385D02*
X+2305448Y+1071635D01*
X+2286948Y+1090135D01*
X+2314698Y+1090135D01*
D84*
X+451323Y+647135D02*
X+1023323Y+647135D01*
X+1023323Y+1391135D01*
X+451323Y+1391135D01*
X+451323Y+647135D01*
D100*
X+927823Y+1290135D02*
X+927823Y+1290135D01*
D101*
X+662424Y+819403D02*
X+787257Y+819403D01*
X+812223Y+844369D01*
X+812223Y+944235D01*
X+787257Y+969202D01*
X+662424Y+969202D01*
X+737323Y+1069068D02*
X+712357Y+1044101D01*
X+687390Y+1044101D01*
X+662424Y+1069068D01*
X+662424Y+1143967D01*
X+687390Y+1168934D01*
X+712357Y+1168934D01*
X+737323Y+1143967D01*
X+737323Y+1069068D01*
X+762290Y+1044101D01*
X+787257Y+1044101D01*
X+812223Y+1069068D01*
X+812223Y+1143967D01*
X+787257Y+1168934D01*
X+762290Y+1168934D01*
X+737323Y+1143967D01*
D51*
X+2295000Y+1278000D02*
X+2795000Y+1278000D01*
X+2795000Y+1778000D01*
X+2295000Y+1778000D01*
X+2295000Y+1278000D01*
D91*
X+2673000Y+1453000D02*
X+2673000Y+1453000D01*
D102*
X+2409000Y+1579000D02*
X+2409000Y+1494000D01*
X+2426000Y+1477000D01*
X+2494000Y+1477000D01*
X+2511000Y+1494000D01*
X+2511000Y+1579000D01*
X+2562000Y+1579000D02*
X+2647000Y+1579000D01*
X+2647000Y+1562000D01*
X+2562000Y+1477000D01*
D84*
X+2235000Y+1645000D02*
X+2235000Y+1465000D01*
X+2325000Y+1465000D01*
X+2325000Y+1645000D01*
X+2235000Y+1645000D01*
X+2305000Y+1555000D02*
X+2255000Y+1555000D01*
X+2280000Y+1530000D02*
X+2280000Y+1580000D01*
D87*
X+2280000Y+1600000D02*
X+2280000Y+1600000D01*
D99*
X+2289250Y+1527250D02*
X+2293875Y+1522625D01*
X+2293875Y+1508750D01*
X+2284625Y+1499500D01*
X+2275375Y+1499500D01*
X+2266125Y+1508750D01*
X+2266125Y+1522625D01*
X+2270750Y+1527250D01*
X+2275375Y+1545750D02*
X+2266125Y+1555000D01*
X+2293875Y+1555000D01*
X+2266125Y+1601250D02*
X+2266125Y+1578125D01*
X+2275375Y+1578125D01*
X+2275375Y+1596625D01*
X+2280000Y+1601250D01*
X+2289250Y+1601250D01*
X+2293875Y+1596625D01*
X+2293875Y+1582750D01*
X+2289250Y+1578125D01*
D84*
X+2391360Y+1208672D02*
X+2391360Y+1388672D01*
X+2301360Y+1388672D01*
X+2301360Y+1208672D01*
X+2391360Y+1208672D01*
X+2321360Y+1298672D02*
X+2371360Y+1298672D01*
X+2346360Y+1323672D02*
X+2346360Y+1273672D01*
D87*
X+2346360Y+1253672D02*
X+2346360Y+1253672D01*
D99*
X+2355610Y+1270922D02*
X+2360235Y+1266297D01*
X+2360235Y+1252422D01*
X+2350985Y+1243172D01*
X+2341735Y+1243172D01*
X+2332485Y+1252422D01*
X+2332485Y+1266297D01*
X+2337110Y+1270922D01*
X+2341735Y+1289422D02*
X+2332485Y+1298672D01*
X+2360235Y+1298672D01*
X+2337110Y+1344922D02*
X+2332485Y+1340297D01*
X+2332485Y+1326422D01*
X+2337110Y+1321797D01*
X+2355610Y+1321797D01*
X+2360235Y+1326422D01*
X+2360235Y+1340297D01*
X+2355610Y+1344922D01*
X+2350985Y+1344922D01*
X+2346360Y+1340297D01*
X+2346360Y+1321797D01*
D13*
X-299177Y+3078135D02*
X-295100Y+3135532D01*
X-282966Y+3185752D01*
X-262922Y+3228648D01*
X-235114Y+3264072D01*
X-199689Y+3291880D01*
X-156794Y+3311924D01*
X-106574Y+3324058D01*
X-49177Y+3328135D01*
X+3050823Y+3328135D02*
X+3108220Y+3324058D01*
X+3158440Y+3311924D01*
X+3201335Y+3291880D01*
X+3236760Y+3264072D01*
X+3264568Y+3228648D01*
X+3284612Y+3185752D01*
X+3296746Y+3135532D01*
X+3300823Y+3078135D01*
X+3300823Y-51865D02*
X+3296746Y-109262D01*
X+3284612Y-159482D01*
X+3264568Y-202378D01*
X+3236760Y-237802D01*
X+3201335Y-265610D01*
X+3158440Y-285654D01*
X+3108220Y-297788D01*
X+3050823Y-301865D01*
X-49177Y-301865D02*
X-106574Y-297788D01*
X-156794Y-285654D01*
X-199689Y-265610D01*
X-235114Y-237802D01*
X-262922Y-202378D01*
X-282966Y-159482D01*
X-295100Y-109262D01*
X-299177Y-51865D01*
X-49177Y-301865D02*
X+3050823Y-301865D01*
X-299177Y-51865D02*
X-299177Y+3098135D01*
X-59177Y+3328135D02*
X+3040823Y+3328135D01*
X+3300823Y+3098135D02*
X+3300823Y-51865D01*
D84*
X+575823Y+2673135D02*
X+265823Y+2673135D01*
X+265823Y+2523135D01*
X+575823Y+2523135D01*
X+575823Y+2673135D01*
X+420823Y+2548135D02*
X+420823Y+2648135D01*
X+370823Y+2598135D02*
X+470823Y+2598135D01*
D93*
X+500823Y+2598135D02*
X+500823Y+2598135D01*
D103*
X+326323Y+2621760D02*
X+326323Y+2574510D01*
X+373573Y+2574510D01*
X+436573Y+2574510D02*
X+389323Y+2574510D01*
X+389323Y+2621760D01*
X+436573Y+2621760D01*
X+389323Y+2598135D02*
X+420823Y+2598135D01*
X+452323Y+2574510D02*
X+452323Y+2621760D01*
X+483823Y+2621760D01*
X+499573Y+2606010D01*
X+499573Y+2590260D01*
X+483823Y+2574510D01*
X+452323Y+2574510D01*
D84*
X+495823Y+2793135D02*
X+305823Y+2793135D01*
X+305823Y+2703135D01*
X+495823Y+2703135D01*
X+495823Y+2793135D01*
X+400823Y+2723135D02*
X+400823Y+2773135D01*
X+375823Y+2748135D02*
X+425823Y+2748135D01*
D87*
X+450823Y+2748135D02*
X+450823Y+2748135D01*
D97*
X+342323Y+2733510D02*
X+342323Y+2762760D01*
X+366698Y+2762760D01*
X+371573Y+2757885D01*
X+371573Y+2753010D01*
X+366698Y+2748135D01*
X+342323Y+2748135D01*
X+366698Y+2748135D02*
X+371573Y+2743260D01*
X+371573Y+2733510D01*
X+391073Y+2753010D02*
X+400823Y+2762760D01*
X+400823Y+2733510D01*
X+449573Y+2762760D02*
X+425198Y+2762760D01*
X+425198Y+2753010D01*
X+444698Y+2753010D01*
X+449573Y+2748135D01*
X+449573Y+2738385D01*
X+444698Y+2733510D01*
X+430073Y+2733510D01*
X+425198Y+2738385D01*
D84*
X+575823Y+2473135D02*
X+265823Y+2473135D01*
X+265823Y+2323135D01*
X+575823Y+2323135D01*
X+575823Y+2473135D01*
X+420823Y+2348135D02*
X+420823Y+2448135D01*
X+370823Y+2398135D02*
X+470823Y+2398135D01*
D93*
X+500823Y+2398135D02*
X+500823Y+2398135D01*
D104*
X+315823Y+2382385D02*
X+315823Y+2413885D01*
X+342073Y+2413885D01*
X+347323Y+2408635D01*
X+347323Y+2403385D01*
X+342073Y+2398135D01*
X+315823Y+2398135D01*
X+357823Y+2403385D02*
X+368323Y+2413885D01*
X+378823Y+2413885D01*
X+389323Y+2403385D01*
X+389323Y+2392885D01*
X+378823Y+2382385D01*
X+368323Y+2382385D01*
X+357823Y+2392885D01*
X+357823Y+2403385D01*
X+399823Y+2413885D02*
X+399823Y+2382385D01*
X+415573Y+2398135D01*
X+431323Y+2382385D01*
X+431323Y+2413885D01*
X+473323Y+2382385D02*
X+441823Y+2382385D01*
X+441823Y+2413885D01*
X+473323Y+2413885D01*
X+441823Y+2398135D02*
X+462823Y+2398135D01*
X+483823Y+2382385D02*
X+483823Y+2413885D01*
X+510073Y+2413885D01*
X+515323Y+2408635D01*
X+515323Y+2403385D01*
X+510073Y+2398135D01*
X+483823Y+2398135D01*
X+510073Y+2398135D02*
X+515323Y+2392885D01*
X+515323Y+2382385D01*
D84*
X+605823Y+2303135D02*
X+795823Y+2303135D01*
X+795823Y+2393135D01*
X+605823Y+2393135D01*
X+605823Y+2303135D01*
X+700823Y+2373135D02*
X+700823Y+2323135D01*
X+725823Y+2348135D02*
X+675823Y+2348135D01*
D87*
X+650823Y+2348135D02*
X+650823Y+2348135D01*
D97*
X+642323Y+2333510D02*
X+642323Y+2362760D01*
X+666698Y+2362760D01*
X+671573Y+2357885D01*
X+671573Y+2353010D01*
X+666698Y+2348135D01*
X+642323Y+2348135D01*
X+666698Y+2348135D02*
X+671573Y+2343260D01*
X+671573Y+2333510D01*
X+691073Y+2353010D02*
X+700823Y+2362760D01*
X+700823Y+2333510D01*
X+749573Y+2357885D02*
X+744698Y+2362760D01*
X+730073Y+2362760D01*
X+725198Y+2357885D01*
X+725198Y+2338385D01*
X+730073Y+2333510D01*
X+744698Y+2333510D01*
X+749573Y+2338385D01*
X+749573Y+2343260D01*
X+744698Y+2348135D01*
X+725198Y+2348135D01*
D14*
X+1686480Y+2725680D02*
X+2136060Y+2725680D01*
X+2136060Y+3274320D01*
X+1686480Y+3274320D01*
X+1686480Y+2725680D01*
X+2136060Y+2725680D01*
X+2136060Y+3274320D01*
X+1686480Y+3274320D01*
X+1686480Y+2725680D01*
D105*
X+2010000Y+2900000D02*
X+2010000Y+2900000D01*
D106*
X+1930066Y+2849632D02*
X+1948862Y+2849632D01*
X+1967658Y+2868428D01*
X+1967658Y+2943612D01*
X+1948862Y+2962408D01*
X+1854882Y+2962408D01*
X+1892474Y+3037592D02*
X+1854882Y+3075184D01*
X+1967658Y+3075184D01*
M02*
