G04 PROTEUS RS274X GERBER FILE*
%FSLAX45Y45*%
%MOMM*%
G01*
%AMPPAD034*
4,1,23,
-0.500000,-0.150000,
0.350000,-0.150000,
0.365590,-0.149240,
0.380670,-0.147020,
0.409030,-0.138430,
0.434540,-0.124790,
0.456640,-0.106640,
0.474790,-0.084540,
0.488430,-0.059030,
0.497020,-0.030670,
0.499240,-0.015590,
0.500000,0.000000,
0.499240,0.015590,
0.497020,0.030670,
0.488430,0.059030,
0.474790,0.084540,
0.456640,0.106640,
0.434540,0.124790,
0.409030,0.138430,
0.380670,0.147020,
0.365590,0.149240,
0.350000,0.150000,
-0.500000,0.150000,
-0.500000,-0.150000,
0*%
%ADD40PPAD034*%
%AMPPAD035*
4,1,23,
-0.150000,0.500000,
-0.150000,-0.350000,
-0.149240,-0.365590,
-0.147020,-0.380670,
-0.138430,-0.409030,
-0.124790,-0.434540,
-0.106640,-0.456640,
-0.084540,-0.474790,
-0.059030,-0.488430,
-0.030670,-0.497020,
-0.015590,-0.499240,
0.000000,-0.500000,
0.015590,-0.499240,
0.030670,-0.497020,
0.059030,-0.488430,
0.084540,-0.474790,
0.106640,-0.456640,
0.124790,-0.434540,
0.138430,-0.409030,
0.147020,-0.380670,
0.149240,-0.365590,
0.150000,-0.350000,
0.150000,0.500000,
-0.150000,0.500000,
0*%
%ADD41PPAD035*%
%AMPPAD036*
4,1,23,
0.500000,0.150000,
-0.350000,0.150000,
-0.365590,0.149240,
-0.380670,0.147020,
-0.409030,0.138430,
-0.434540,0.124790,
-0.456640,0.106640,
-0.474790,0.084540,
-0.488430,0.059030,
-0.497020,0.030670,
-0.499240,0.015590,
-0.500000,0.000000,
-0.499240,-0.015590,
-0.497020,-0.030670,
-0.488430,-0.059030,
-0.474790,-0.084540,
-0.456640,-0.106640,
-0.434540,-0.124790,
-0.409030,-0.138430,
-0.380670,-0.147020,
-0.365590,-0.149240,
-0.350000,-0.150000,
0.500000,-0.150000,
0.500000,0.150000,
0*%
%ADD42PPAD036*%
%AMPPAD037*
4,1,23,
0.150000,-0.500000,
0.150000,0.350000,
0.149240,0.365590,
0.147020,0.380670,
0.138430,0.409030,
0.124790,0.434540,
0.106640,0.456640,
0.084540,0.474790,
0.059030,0.488430,
0.030670,0.497020,
0.015590,0.499240,
0.000000,0.500000,
-0.015590,0.499240,
-0.030670,0.497020,
-0.059030,0.488430,
-0.084540,0.474790,
-0.106640,0.456640,
-0.124790,0.434540,
-0.138430,0.409030,
-0.147020,0.380670,
-0.149240,0.365590,
-0.150000,0.350000,
-0.150000,-0.500000,
0.150000,-0.500000,
0*%
%ADD43PPAD037*%
%ADD44R,3.350000X3.350000*%
%ADD71R,0.609600X0.609600*%
%ADD20R,0.609600X0.558800*%
%ADD45R,1.143000X1.447800*%
%ADD46R,0.939800X2.159000*%
%ADD47R,3.251200X2.159000*%
%ADD27R,0.939800X0.990600*%
%ADD48R,1.803400X1.244600*%
%ADD28R,0.558800X0.609600*%
%ADD13C,0.203200*%
D40*
X+1015623Y+2581935D03*
X+1015623Y+2631935D03*
X+1015623Y+2681935D03*
X+1015623Y+2731935D03*
X+1015623Y+2781935D03*
X+1015623Y+2831935D03*
X+1015623Y+2881935D03*
D41*
X+1105623Y+2971935D03*
X+1155623Y+2971935D03*
X+1205623Y+2971935D03*
X+1255623Y+2971935D03*
X+1305623Y+2971935D03*
X+1355623Y+2971935D03*
X+1405623Y+2971935D03*
D42*
X+1495623Y+2881935D03*
X+1495623Y+2831935D03*
X+1495623Y+2781935D03*
X+1495623Y+2731935D03*
X+1495623Y+2681935D03*
X+1495623Y+2631935D03*
X+1495623Y+2581935D03*
D43*
X+1405623Y+2491935D03*
X+1355623Y+2491935D03*
X+1305623Y+2491935D03*
X+1255623Y+2491935D03*
X+1205623Y+2491935D03*
X+1155623Y+2491935D03*
X+1105623Y+2491935D03*
D44*
X+1255623Y+2731935D03*
D71*
X+722023Y+2493035D03*
X+632023Y+2493035D03*
X+722023Y+2612931D03*
X+632023Y+2612931D03*
D20*
X+657423Y+2899435D03*
X+657423Y+2799435D03*
X+771723Y+2797835D03*
X+771723Y+2897835D03*
D45*
X+2350823Y+3098135D03*
X+2530823Y+3098135D03*
D46*
X+2190823Y+2560195D03*
X+2420823Y+2560195D03*
X+2650823Y+2560195D03*
D47*
X+2420823Y+1980195D03*
D27*
X+2350823Y+2860195D03*
X+2190823Y+2860195D03*
X+2650823Y+2860195D03*
X+2490823Y+2860195D03*
D48*
X+2560000Y+1720000D03*
X+2300000Y+1720000D03*
D28*
X+1910823Y+618135D03*
X+1810823Y+618135D03*
D13*
X-299177Y+3078135D02*
X-295100Y+3135532D01*
X-282966Y+3185752D01*
X-262922Y+3228648D01*
X-235114Y+3264072D01*
X-199689Y+3291880D01*
X-156794Y+3311924D01*
X-106574Y+3324058D01*
X-49177Y+3328135D01*
X+3050823Y+3328135D02*
X+3108220Y+3324058D01*
X+3158440Y+3311924D01*
X+3201335Y+3291880D01*
X+3236760Y+3264072D01*
X+3264568Y+3228648D01*
X+3284612Y+3185752D01*
X+3296746Y+3135532D01*
X+3300823Y+3078135D01*
X+3300823Y-51865D02*
X+3296746Y-109262D01*
X+3284612Y-159482D01*
X+3264568Y-202378D01*
X+3236760Y-237802D01*
X+3201335Y-265610D01*
X+3158440Y-285654D01*
X+3108220Y-297788D01*
X+3050823Y-301865D01*
X-49177Y-301865D02*
X-106574Y-297788D01*
X-156794Y-285654D01*
X-199689Y-265610D01*
X-235114Y-237802D01*
X-262922Y-202378D01*
X-282966Y-159482D01*
X-295100Y-109262D01*
X-299177Y-51865D01*
X-49177Y-301865D02*
X+3050823Y-301865D01*
X-299177Y-51865D02*
X-299177Y+3098135D01*
X-59177Y+3328135D02*
X+3040823Y+3328135D01*
X+3300823Y+3098135D02*
X+3300823Y-51865D01*
M02*
