G04 PROTEUS RS274X GERBER FILE*
%FSLAX45Y45*%
%MOMM*%
G01*
%ADD19R,1.480000X0.300000*%
%ADD70R,0.300000X1.480000*%
%ADD71R,0.609600X0.609600*%
%ADD20R,0.609600X0.558800*%
%ADD21R,1.000000X0.900000*%
%AMPPAD014*
4,1,19,
-0.100000,-0.380000,
-0.100000,0.280000,
-0.098010,0.300450,
-0.092290,0.319360,
-0.083190,0.336360,
-0.071090,0.351090,
-0.056360,0.363190,
-0.039360,0.372280,
-0.020450,0.378010,
0.000000,0.380000,
0.020450,0.378010,
0.039360,0.372280,
0.056360,0.363190,
0.071090,0.351090,
0.083190,0.336360,
0.092290,0.319360,
0.098010,0.300450,
0.100000,0.280000,
0.100000,-0.380000,
-0.100000,-0.380000,
0*%
%ADD22PPAD014*%
%AMPPAD015*
4,1,19,
0.380000,-0.100000,
-0.280000,-0.100000,
-0.300450,-0.098010,
-0.319360,-0.092280,
-0.336360,-0.083190,
-0.351090,-0.071090,
-0.363190,-0.056360,
-0.372290,-0.039360,
-0.378010,-0.020450,
-0.380000,0.000000,
-0.378010,0.020450,
-0.372290,0.039360,
-0.363190,0.056360,
-0.351090,0.071090,
-0.336360,0.083190,
-0.319360,0.092280,
-0.300450,0.098010,
-0.280000,0.100000,
0.380000,0.100000,
0.380000,-0.100000,
0*%
%ADD23PPAD015*%
%AMPPAD016*
4,1,19,
0.100000,0.380000,
0.100000,-0.280000,
0.098010,-0.300450,
0.092290,-0.319360,
0.083190,-0.336360,
0.071090,-0.351090,
0.056360,-0.363190,
0.039360,-0.372280,
0.020450,-0.378010,
0.000000,-0.380000,
-0.020450,-0.378010,
-0.039360,-0.372280,
-0.056360,-0.363190,
-0.071090,-0.351090,
-0.083190,-0.336360,
-0.092290,-0.319360,
-0.098010,-0.300450,
-0.100000,-0.280000,
-0.100000,0.380000,
0.100000,0.380000,
0*%
%ADD24PPAD016*%
%AMPPAD017*
4,1,19,
-0.380000,0.100000,
0.280000,0.100000,
0.300450,0.098010,
0.319360,0.092280,
0.336360,0.083190,
0.351090,0.071090,
0.363190,0.056360,
0.372290,0.039360,
0.378010,0.020450,
0.380000,0.000000,
0.378010,-0.020450,
0.372290,-0.039360,
0.363190,-0.056360,
0.351090,-0.071090,
0.336360,-0.083190,
0.319360,-0.092280,
0.300450,-0.098010,
0.280000,-0.100000,
-0.380000,-0.100000,
-0.380000,0.100000,
0*%
%ADD25PPAD017*%
%ADD26R,1.750000X1.590000*%
%ADD27R,0.939800X0.990600*%
%ADD28R,0.558800X0.609600*%
%ADD29R,0.990600X0.939800*%
%ADD72R,0.400000X1.500000*%
%ADD73R,1.800000X1.900000*%
%ADD31R,0.350000X0.500000*%
%ADD34R,0.700000X1.520000*%
%ADD35R,0.450000X0.300000*%
%ADD36R,0.300000X0.450000*%
%ADD13C,0.203200*%
D19*
X+1276823Y+2123135D03*
X+1276823Y+2073135D03*
X+1276823Y+2023135D03*
X+1276823Y+1973135D03*
X+1276823Y+1923135D03*
X+1276823Y+1873135D03*
X+1276823Y+1823135D03*
X+1276823Y+1773135D03*
X+1276823Y+1723135D03*
X+1276823Y+1673135D03*
X+1276823Y+1623135D03*
X+1276823Y+1573135D03*
D70*
X+1425823Y+1424135D03*
X+1475823Y+1424135D03*
X+1525823Y+1424135D03*
X+1575823Y+1424135D03*
X+1625823Y+1424135D03*
X+1675823Y+1424135D03*
X+1725823Y+1424135D03*
X+1775823Y+1424135D03*
X+1825823Y+1424135D03*
X+1875823Y+1424135D03*
X+1925823Y+1424135D03*
X+1975823Y+1424135D03*
D19*
X+2124823Y+1573135D03*
X+2124823Y+1623135D03*
X+2124823Y+1673135D03*
X+2124823Y+1723135D03*
X+2124823Y+1773135D03*
X+2124823Y+1823135D03*
X+2124823Y+1873135D03*
X+2124823Y+1923135D03*
X+2124823Y+1973135D03*
X+2124823Y+2023135D03*
X+2124823Y+2073135D03*
X+2124823Y+2123135D03*
D70*
X+1975823Y+2272135D03*
X+1925823Y+2272135D03*
X+1875823Y+2272135D03*
X+1825823Y+2272135D03*
X+1775823Y+2272135D03*
X+1725823Y+2272135D03*
X+1675823Y+2272135D03*
X+1625823Y+2272135D03*
X+1575823Y+2272135D03*
X+1525823Y+2272135D03*
X+1475823Y+2272135D03*
X+1425823Y+2272135D03*
D71*
X+733623Y+2061235D03*
X+823623Y+2061235D03*
X+823623Y+1616735D03*
X+733623Y+1616735D03*
D20*
X+581223Y+1819935D03*
X+581223Y+1919935D03*
D21*
X+860423Y+1729935D03*
X+860423Y+1945935D03*
X+704423Y+1945935D03*
X+704423Y+1729935D03*
D71*
X+1360823Y+2398135D03*
X+1450823Y+2398135D03*
X+2250822Y+2188135D03*
X+2250823Y+2098135D03*
X+1960823Y+1298135D03*
X+2050823Y+1298135D03*
D22*
X+1622569Y+666777D03*
X+1662569Y+666777D03*
X+1702569Y+666777D03*
X+1742569Y+666777D03*
X+1782569Y+666777D03*
X+1822569Y+666777D03*
D23*
X+1872569Y+716777D03*
X+1872569Y+756777D03*
X+1872569Y+796777D03*
X+1872569Y+836777D03*
X+1872569Y+876777D03*
X+1872569Y+916777D03*
D24*
X+1822569Y+966777D03*
X+1782569Y+966777D03*
X+1742569Y+966777D03*
X+1702569Y+966777D03*
X+1662569Y+966777D03*
X+1622569Y+966777D03*
D25*
X+1572569Y+916777D03*
X+1572569Y+876777D03*
X+1572569Y+836777D03*
X+1572569Y+796777D03*
X+1572569Y+756777D03*
X+1572569Y+716777D03*
D26*
X+1722569Y+816777D03*
D27*
X+1863348Y+452409D03*
X+1703348Y+452409D03*
D28*
X+1222569Y+666777D03*
X+1322569Y+666777D03*
X+1222569Y+816777D03*
X+1322569Y+816777D03*
X+1222569Y+966777D03*
X+1322569Y+966777D03*
D29*
X+2092523Y+745535D03*
X+2092523Y+905535D03*
D72*
X+1230823Y+2788135D03*
X+1165823Y+2788135D03*
X+1100823Y+2788135D03*
X+1035823Y+2788135D03*
X+970823Y+2788135D03*
D73*
X+1500823Y+3048135D03*
X+700823Y+3048135D03*
D28*
X+1600823Y+2698135D03*
X+1500823Y+2698135D03*
D20*
X+1800823Y+1198135D03*
X+1800823Y+1098135D03*
D28*
X+2350823Y+2778135D03*
X+2250823Y+2778135D03*
X+2150823Y+2648135D03*
X+2050823Y+2648135D03*
D31*
X+2402823Y+1128135D03*
X+2468823Y+1128135D03*
X+2532823Y+1128135D03*
X+2598823Y+1128135D03*
X+2598823Y+968135D03*
X+2532823Y+968135D03*
X+2468823Y+968135D03*
X+2402823Y+968135D03*
D20*
X+2700823Y+998135D03*
X+2700823Y+1098135D03*
D28*
X+2580000Y+840000D03*
X+2480000Y+840000D03*
D71*
X+2300823Y+1098135D03*
X+2300823Y+1008135D03*
D34*
X+927823Y+1290135D03*
X+800823Y+1290135D03*
X+673823Y+1290135D03*
X+546823Y+1290135D03*
X+546823Y+748135D03*
X+673823Y+748135D03*
X+800823Y+748135D03*
X+927823Y+748135D03*
D35*
X+2673000Y+1453000D03*
X+2673000Y+1503000D03*
X+2673000Y+1553000D03*
X+2673000Y+1603000D03*
D36*
X+2620000Y+1656000D03*
X+2570000Y+1656000D03*
X+2520000Y+1656000D03*
X+2470000Y+1656000D03*
D35*
X+2417000Y+1603000D03*
X+2417000Y+1553000D03*
X+2417000Y+1503000D03*
X+2417000Y+1453000D03*
D36*
X+2470000Y+1400000D03*
X+2520000Y+1400000D03*
X+2570000Y+1400000D03*
X+2620000Y+1400000D03*
D71*
X+2280000Y+1600000D03*
X+2280000Y+1510000D03*
X+2346360Y+1253672D03*
X+2346360Y+1343672D03*
D27*
X+500823Y+2598135D03*
X+340823Y+2598135D03*
D28*
X+450823Y+2748135D03*
X+350823Y+2748135D03*
D27*
X+500823Y+2398135D03*
X+340823Y+2398135D03*
D28*
X+650823Y+2348135D03*
X+750823Y+2348135D03*
D13*
X-299177Y+3078135D02*
X-295100Y+3135532D01*
X-282966Y+3185752D01*
X-262922Y+3228648D01*
X-235114Y+3264072D01*
X-199689Y+3291880D01*
X-156794Y+3311924D01*
X-106574Y+3324058D01*
X-49177Y+3328135D01*
X+3050823Y+3328135D02*
X+3108220Y+3324058D01*
X+3158440Y+3311924D01*
X+3201335Y+3291880D01*
X+3236760Y+3264072D01*
X+3264568Y+3228648D01*
X+3284612Y+3185752D01*
X+3296746Y+3135532D01*
X+3300823Y+3078135D01*
X+3300823Y-51865D02*
X+3296746Y-109262D01*
X+3284612Y-159482D01*
X+3264568Y-202378D01*
X+3236760Y-237802D01*
X+3201335Y-265610D01*
X+3158440Y-285654D01*
X+3108220Y-297788D01*
X+3050823Y-301865D01*
X-49177Y-301865D02*
X-106574Y-297788D01*
X-156794Y-285654D01*
X-199689Y-265610D01*
X-235114Y-237802D01*
X-262922Y-202378D01*
X-282966Y-159482D01*
X-295100Y-109262D01*
X-299177Y-51865D01*
X-49177Y-301865D02*
X+3050823Y-301865D01*
X-299177Y-51865D02*
X-299177Y+3098135D01*
X-59177Y+3328135D02*
X+3040823Y+3328135D01*
X+3300823Y+3098135D02*
X+3300823Y-51865D01*
M02*
