M48
METRIC,TZ
T01C0.3000
T02C3.0500
T03C0.5080
T04C0.5080
T05C0.8130
%
T01
X+19008Y+18981
X+9026Y+26554
X+8932Y+25533
X+16856Y+10958
X+5630Y+28069
X+18065Y+18192
X+10302Y+17137
X+10079Y+20028
X+10508Y+20981
X+24223Y+23872
X+25433Y+20571
X+24143Y+22000
X+13904Y+11009
X+13221Y+8192
X+20335Y+6099
X+7214Y+24525
X+16218Y+4503
X+25053Y+13122
X+22800Y+14200
X+8356Y+24530
X+17039Y+15678
X+7508Y+4381
X+23000Y+3400
X+14700Y+8800
X+14908Y+11581
X+18008Y+24481
X+17008Y+26481
X+27300Y+21200
X+27954Y+8227
X+19633Y+12478
X+15600Y+24800
X+4500Y+28500
X+14829Y+24577
X+24988Y+15568
X+10471Y+29742
X+10122Y+21911
X+8215Y+22374
X+23000Y+17200
X+6850Y+15739
X+18700Y+11000
X+20925Y+9055
X+23040Y+11752
X+14549Y+18691
X+16998Y+12271
X+18258Y+20714
X+10300Y+9200
X+11177Y+8557
X+10500Y+13900
X+10364Y+15040
X+10025Y+15875
X+15829Y+15833
X+12200Y+13000
X+6200Y+10400
X+14536Y+16813
X+11400Y+13300
X+6800Y+11100
X+14800Y+10200
X+13178Y+6642
X+19600Y+17300
X+26600Y+20600
X+25900Y+17300
X+27100Y+17600
X+21008Y+23981
X+22713Y+4370
X+27482Y+12362
X+25400Y+12258
X+21508Y+4000
X+27300Y+13500
X+27447Y+16672
X+6743Y+14291
T02
X+8Y-19
X+8Y+29981
X+30008Y+29981
X+30008Y-19
T03
X+15008Y-1019
X+17008Y-1019
X+19008Y-1019
X+21008Y-1019
X+23008Y-1019
X+25008Y-1019
X+8Y+7981
X+8Y+5981
X+8Y+3981
X+8Y+13981
X+8Y+11981
X+8Y+9981
X+8Y+17981
X+8Y+15981
X+30500Y+21500
X+30500Y+23300
X+30508Y+4481
X+30508Y+6481
X+30508Y+11481
X+30508Y+13481
X+30508Y+15481
X+30508Y+17481
X+13008Y-1019
X+11008Y-1019
X+9008Y-1019
X+30500Y+19600
X+30508Y+9381
T04
X+30508Y+24981
T05
X+20100Y+29000
X+18100Y+29000
X+20100Y+31000
X+18100Y+31000
M30
